999
dxflib 2.0.4.8
  0
SECTION
  2
HEADER
  9
$ACADVER
  1
AC1015
  9
$HANDSEED
  5
FFFF
  9
$DIMASZ
 40
2.5
  9
$DIMGAP
 40
0.625
  9
$DIMEXO
 40
0.625
  9
$INSUNITS
 70
4
  9
$DIMTXT
 40
2.5
  9
$DIMSTYLE
  2
Standard
  9
$PLIMMAX
 10
210.0
 20
297.0
  9
$PLIMMIN
 10
0.0
 20
0.0
  9
$DIMEXE
 40
1.25
  0
ENDSEC
  0
SECTION
  2
TABLES
  0
TABLE
  2
VPORT
  5
8
100
AcDbSymbolTable
 70
1
  0
VPORT
  5
30
100
AcDbSymbolTableRecord
100
AcDbViewportTableRecord
  2
*Active
 70
0
 10
0.0
 20
0.0
 11
1.0
 21
1.0
 12
286.3055555555554861
 22
148.5
 13
0.0
 23
0.0
 14
10.0
 24
10.0
 15
10.0
 25
10.0
 16
0.0
 26
0.0
 36
1.0
 17
0.0
 27
0.0
 37
0.0
 40
297.0
 41
1.92798353909465
 42
50.0
 43
0.0
 44
0.0
 50
0.0
 51
0.0
 71
0
 72
100
 73
1
 74
3
 75
1
 76
1
 77
0
 78
0
281
0
 65
1
110
0.0
120
0.0
130
0.0
111
1.0
121
0.0
131
0.0
112
0.0
122
1.0
132
0.0
 79
0
146
0.0
  0
ENDTAB
  0
TABLE
  2
LTYPE
  5
5
100
AcDbSymbolTable
 70
21
  0
LTYPE
  5
14
100
AcDbSymbolTableRecord
100
AcDbLinetypeTableRecord
  2
ByBlock
 70
0
  3

 72
65
 73
0
 40
0.0
  0
LTYPE
  5
15
100
AcDbSymbolTableRecord
100
AcDbLinetypeTableRecord
  2
ByLayer
 70
0
  3

 72
65
 73
0
 40
0.0
  0
LTYPE
  5
16
100
AcDbSymbolTableRecord
100
AcDbLinetypeTableRecord
  2
CONTINUOUS
 70
0
  3
Solid line
 72
65
 73
0
 40
0.0
  0
LTYPE
  5
31
100
AcDbSymbolTableRecord
100
AcDbLinetypeTableRecord
  2
DOT
 70
0
  3
Dot . . . . . . . . . . . . . . . . . . . . . .
 72
65
 73
2
 40
6.3499999999999996
 49
0.0
 74
0
 49
-6.3499999999999996
 74
0
  0
LTYPE
  5
32
100
AcDbSymbolTableRecord
100
AcDbLinetypeTableRecord
  2
DOT2
 70
0
  3
Dot (.5x) .....................................
 72
65
 73
2
 40
3.1749999999999998
 49
0.0
 74
0
 49
-3.1749999999999998
 74
0
  0
LTYPE
  5
33
100
AcDbSymbolTableRecord
100
AcDbLinetypeTableRecord
  2
DOTX2
 70
0
  3
Dot (2x) .  .  .  .  .  .  .  .  .  .  .  .  .
 72
65
 73
2
 40
12.6999999999999993
 49
0.0
 74
0
 49
-12.6999999999999993
 74
0
  0
LTYPE
  5
34
100
AcDbSymbolTableRecord
100
AcDbLinetypeTableRecord
  2
DASHED
 70
0
  3
Dashed __ __ __ __ __ __ __ __ __ __ __ __ __ _
 72
65
 73
2
 40
19.0500000000000007
 49
12.6999999999999993
 74
0
 49
-6.3499999999999996
 74
0
  0
LTYPE
  5
35
100
AcDbSymbolTableRecord
100
AcDbLinetypeTableRecord
  2
DASHED2
 70
0
  3
Dashed (.5x) _ _ _ _ _ _ _ _ _ _ _ _ _ _ _ _ _
 72
65
 73
2
 40
9.5250000000000004
 49
6.3499999999999996
 74
0
 49
-3.1749999999999998
 74
0
  0
LTYPE
  5
36
100
AcDbSymbolTableRecord
100
AcDbLinetypeTableRecord
  2
DASHEDX2
 70
0
  3
Dashed (2x) ____  ____  ____  ____  ____  ___
 72
65
 73
2
 40
38.1000000000000014
 49
25.3999999999999986
 74
0
 49
-12.6999999999999993
 74
0
  0
LTYPE
  5
37
100
AcDbSymbolTableRecord
100
AcDbLinetypeTableRecord
  2
DASHDOT
 70
0
  3
Dash dot __ . __ . __ . __ . __ . __ . __ . __
 72
65
 73
4
 40
25.3999999999999986
 49
12.6999999999999993
 74
0
 49
-6.3499999999999996
 74
0
 49
0.0
 74
0
 49
-6.3499999999999996
 74
0
  0
LTYPE
  5
38
100
AcDbSymbolTableRecord
100
AcDbLinetypeTableRecord
  2
DASHDOT2
 70
0
  3
Dash dot (.5x) _._._._._._._._._._._._._._._.
 72
65
 73
4
 40
12.6999999999999993
 49
6.3499999999999996
 74
0
 49
-3.1749999999999998
 74
0
 49
0.0
 74
0
 49
-3.1749999999999998
 74
0
  0
LTYPE
  5
39
100
AcDbSymbolTableRecord
100
AcDbLinetypeTableRecord
  2
DASHDOTX2
 70
0
  3
Dash dot (2x) ____  .  ____  .  ____  .  ___
 72
65
 73
4
 40
50.7999999999999972
 49
25.3999999999999986
 74
0
 49
-12.6999999999999993
 74
0
 49
0.0
 74
0
 49
-12.6999999999999993
 74
0
  0
LTYPE
  5
3A
100
AcDbSymbolTableRecord
100
AcDbLinetypeTableRecord
  2
DIVIDE
 70
0
  3
Divide ____ . . ____ . . ____ . . ____ . . ____
 72
65
 73
6
 40
31.75
 49
12.6999999999999993
 74
0
 49
-6.3499999999999996
 74
0
 49
0.0
 74
0
 49
-6.3499999999999996
 74
0
 49
0.0
 74
0
 49
-6.3499999999999996
 74
0
  0
LTYPE
  5
3B
100
AcDbSymbolTableRecord
100
AcDbLinetypeTableRecord
  2
DIVIDE2
 70
0
  3
Divide (.5x) __..__..__..__..__..__..__..__.._
 72
65
 73
6
 40
15.875
 49
6.3499999999999996
 74
0
 49
-3.1749999999999998
 74
0
 49
0.0
 74
0
 49
-3.1749999999999998
 74
0
 49
0.0
 74
0
 49
-3.1749999999999998
 74
0
  0
LTYPE
  5
3C
100
AcDbSymbolTableRecord
100
AcDbLinetypeTableRecord
  2
DIVIDEX2
 70
0
  3
Divide (2x) ________  .  .  ________  .  .  _
 72
65
 73
6
 40
63.5
 49
25.3999999999999986
 74
0
 49
-12.6999999999999993
 74
0
 49
0.0
 74
0
 49
-12.6999999999999993
 74
0
 49
0.0
 74
0
 49
-12.6999999999999993
 74
0
  0
LTYPE
  5
3D
100
AcDbSymbolTableRecord
100
AcDbLinetypeTableRecord
  2
CENTER
 70
0
  3
Center ____ _ ____ _ ____ _ ____ _ ____ _ ____
 72
65
 73
4
 40
50.7999999999999972
 49
31.75
 74
0
 49
-6.3499999999999996
 74
0
 49
6.3499999999999996
 74
0
 49
-6.3499999999999996
 74
0
  0
LTYPE
  5
3E
100
AcDbSymbolTableRecord
100
AcDbLinetypeTableRecord
  2
CENTER2
 70
0
  3
Center (.5x) ___ _ ___ _ ___ _ ___ _ ___ _ ___
 72
65
 73
4
 40
28.5749999999999993
 49
19.0500000000000007
 74
0
 49
-3.1749999999999998
 74
0
 49
3.1749999999999998
 74
0
 49
-3.1749999999999998
 74
0
  0
LTYPE
  5
3F
100
AcDbSymbolTableRecord
100
AcDbLinetypeTableRecord
  2
CENTERX2
 70
0
  3
Center (2x) ________  __  ________  __  _____
 72
65
 73
4
 40
101.5999999999999943
 49
63.5
 74
0
 49
-12.6999999999999993
 74
0
 49
12.6999999999999993
 74
0
 49
-12.6999999999999993
 74
0
  0
LTYPE
  5
40
100
AcDbSymbolTableRecord
100
AcDbLinetypeTableRecord
  2
BORDER
 70
0
  3
Border __ __ . __ __ . __ __ . __ __ . __ __ .
 72
65
 73
6
 40
44.4500000000000028
 49
12.6999999999999993
 74
0
 49
-6.3499999999999996
 74
0
 49
12.6999999999999993
 74
0
 49
-6.3499999999999996
 74
0
 49
0.0
 74
0
 49
-6.3499999999999996
 74
0
  0
LTYPE
  5
41
100
AcDbSymbolTableRecord
100
AcDbLinetypeTableRecord
  2
BORDER2
 70
0
  3
Border (.5x) __.__.__.__.__.__.__.__.__.__.__.
 72
65
 73
6
 40
22.2250000000000014
 49
6.3499999999999996
 74
0
 49
-3.1749999999999998
 74
0
 49
6.3499999999999996
 74
0
 49
-3.1749999999999998
 74
0
 49
0.0
 74
0
 49
-3.1749999999999998
 74
0
  0
LTYPE
  5
42
100
AcDbSymbolTableRecord
100
AcDbLinetypeTableRecord
  2
BORDERX2
 70
0
  3
Border (2x) ____  ____  .  ____  ____  .  ___
 72
65
 73
6
 40
88.9000000000000057
 49
25.3999999999999986
 74
0
 49
-12.6999999999999993
 74
0
 49
25.3999999999999986
 74
0
 49
-12.6999999999999993
 74
0
 49
0.0
 74
0
 49
-12.6999999999999993
 74
0
  0
ENDTAB
  0
TABLE
  2
LAYER
  5
2
100
AcDbSymbolTable
 70
1
  0
LAYER
  5
10
100
AcDbSymbolTableRecord
100
AcDbLayerTableRecord
  2
0
 70
0
 62
7
  6
CONTINUOUS
370
0
390
F
  0
ENDTAB
  0
TABLE
  2
STYLE
  5
3
100
AcDbSymbolTable
 70
1
  0
STYLE
  5
11
100
AcDbSymbolTableRecord
100
AcDbTextStyleTableRecord
  2
Standard
 70
0
 40
0.0
 41
0.75
 50
0.0
 71
0
 42
2.5
  3
txt
  4

  0
ENDTAB
  0
TABLE
  2
VIEW
  5
6
100
AcDbSymbolTable
 70
0
  0
ENDTAB
  0
TABLE
  2
UCS
  5
7
100
AcDbSymbolTable
 70
0
  0
ENDTAB
  0
TABLE
  2
APPID
  5
9
100
AcDbSymbolTable
 70
1
  0
APPID
  5
12
100
AcDbSymbolTableRecord
100
AcDbRegAppTableRecord
  2
ACAD
 70
0
  0
ENDTAB
  0
TABLE
  2
DIMSTYLE
  5
A
100
AcDbSymbolTable
 70
1
100
AcDbDimStyleTable
 71
0
  0
DIMSTYLE
105
27
100
AcDbSymbolTableRecord
100
AcDbDimStyleTableRecord
  2
Standard
 41
2.5
 42
0.625
 43
3.75
 44
1.25
 70
0
 73
0
 74
0
 77
1
 78
8
140
2.5
141
2.5
143
0.03937007874016
147
0.625
171
3
172
1
271
2
272
2
274
3
278
44
283
0
284
8
340
11
  0
ENDTAB
  0
TABLE
  2
BLOCK_RECORD
  5
1
100
AcDbSymbolTable
 70
1
  0
BLOCK_RECORD
  5
1F
100
AcDbSymbolTableRecord
100
AcDbBlockTableRecord
  2
*Model_Space
340
22
  0
BLOCK_RECORD
  5
1B
100
AcDbSymbolTableRecord
100
AcDbBlockTableRecord
  2
*Paper_Space
340
1E
  0
BLOCK_RECORD
  5
23
100
AcDbSymbolTableRecord
100
AcDbBlockTableRecord
  2
*Paper_Space0
340
26
  0
ENDTAB
  0
ENDSEC
  0
SECTION
  2
BLOCKS
  0
BLOCK
  5
20
100
AcDbEntity
  8
0
100
AcDbBlockBegin
  2
*Model_Space
 70
0
 10
0.0
 20
0.0
 30
0.0
  3
*Model_Space
  1

  0
ENDBLK
  5
21
100
AcDbEntity
  8
0
100
AcDbBlockEnd
  0
BLOCK
  5
1C
100
AcDbEntity
 67
1
  8
0
100
AcDbBlockBegin
  2
*Paper_Space
 70
0
 10
0.0
 20
0.0
 30
0.0
  3
*Paper_Space
  1

  0
ENDBLK
  5
1D
100
AcDbEntity
 67
1
  8
0
100
AcDbBlockEnd
  0
BLOCK
  5
24
100
AcDbEntity
  8
0
100
AcDbBlockBegin
  2
*Paper_Space0
 70
0
 10
0.0
 20
0.0
 30
0.0
  3
*Paper_Space0
  1

  0
ENDBLK
  5
25
100
AcDbEntity
  8
0
100
AcDbBlockEnd
  0
ENDSEC
  0
SECTION
  2
ENTITIES
  0
LINE
  5
43
100
AcDbEntity
100
AcDbLine
  8
0
 62
256
370
-1
  6
ByLayer
 10
-80.0
 20
-65.0
 30
0.0
 11
-80.0
 21
65.0
 31
0.0
  0
LINE
  5
44
100
AcDbEntity
100
AcDbLine
  8
0
 62
256
370
-1
  6
ByLayer
 10
-80.0
 20
65.0
 30
0.0
 11
80.0
 21
65.0
 31
0.0
  0
LINE
  5
45
100
AcDbEntity
100
AcDbLine
  8
0
 62
256
370
-1
  6
ByLayer
 10
80.0
 20
65.0
 30
0.0
 11
80.0
 21
-65.0
 31
0.0
  0
LINE
  5
46
100
AcDbEntity
100
AcDbLine
  8
0
 62
256
370
-1
  6
ByLayer
 10
80.0
 20
-65.0
 30
0.0
 11
-80.0
 21
-65.0
 31
0.0
  0
LINE
  5
47
100
AcDbEntity
100
AcDbLine
  8
0
 62
256
370
-1
  6
ByLayer
 10
-50.0
 20
0.0
 30
0.0
 11
-49.9010000000000034
 21
3.1400000000000001
 31
0.0
  0
LINE
  5
48
100
AcDbEntity
100
AcDbLine
  8
0
 62
256
370
-1
  6
ByLayer
 10
-49.9010000000000034
 20
3.1400000000000001
 30
0.0
 11
-49.6060000000000016
 21
6.2670000000000003
 31
0.0
  0
LINE
  5
49
100
AcDbEntity
100
AcDbLine
  8
0
 62
256
370
-1
  6
ByLayer
 10
-49.6060000000000016
 20
6.2670000000000003
 30
0.0
 11
-49.1139999999999972
 21
9.3689999999999998
 31
0.0
  0
LINE
  5
4A
100
AcDbEntity
100
AcDbLine
  8
0
 62
256
370
-1
  6
ByLayer
 10
-49.1139999999999972
 20
9.3689999999999998
 30
0.0
 11
-48.429000000000002
 21
12.4339999999999993
 31
0.0
  0
LINE
  5
4B
100
AcDbEntity
100
AcDbLine
  8
0
 62
256
370
-1
  6
ByLayer
 10
-48.429000000000002
 20
12.4339999999999993
 30
0.0
 11
-47.5529999999999973
 21
15.4510000000000005
 31
0.0
  0
LINE
  5
4C
100
AcDbEntity
100
AcDbLine
  8
0
 62
256
370
-1
  6
ByLayer
 10
-47.5529999999999973
 20
15.4510000000000005
 30
0.0
 11
-46.4889999999999972
 21
18.4059999999999988
 31
0.0
  0
LINE
  5
4D
100
AcDbEntity
100
AcDbLine
  8
0
 62
256
370
-1
  6
ByLayer
 10
-46.4889999999999972
 20
18.4059999999999988
 30
0.0
 11
-45.2409999999999997
 21
21.2890000000000015
 31
0.0
  0
LINE
  5
4E
100
AcDbEntity
100
AcDbLine
  8
0
 62
256
370
-1
  6
ByLayer
 10
-45.2409999999999997
 20
21.2890000000000015
 30
0.0
 11
-43.8149999999999977
 21
24.088000000000001
 31
0.0
  0
LINE
  5
4F
100
AcDbEntity
100
AcDbLine
  8
0
 62
256
370
-1
  6
ByLayer
 10
-43.8149999999999977
 20
24.088000000000001
 30
0.0
 11
-42.2160000000000011
 21
26.7910000000000004
 31
0.0
  0
LINE
  5
50
100
AcDbEntity
100
AcDbLine
  8
0
 62
256
370
-1
  6
ByLayer
 10
-42.2160000000000011
 20
26.7910000000000004
 30
0.0
 11
-40.4510000000000005
 21
29.3889999999999993
 31
0.0
  0
LINE
  5
51
100
AcDbEntity
100
AcDbLine
  8
0
 62
256
370
-1
  6
ByLayer
 10
-40.4510000000000005
 20
29.3889999999999993
 30
0.0
 11
-38.5260000000000034
 21
31.8709999999999987
 31
0.0
  0
LINE
  5
52
100
AcDbEntity
100
AcDbLine
  8
0
 62
256
370
-1
  6
ByLayer
 10
-38.5260000000000034
 20
31.8709999999999987
 30
0.0
 11
-36.4480000000000004
 21
34.2269999999999968
 31
0.0
  0
LINE
  5
53
100
AcDbEntity
100
AcDbLine
  8
0
 62
256
370
-1
  6
ByLayer
 10
-36.4480000000000004
 20
34.2269999999999968
 30
0.0
 11
-34.2269999999999968
 21
36.4480000000000004
 31
0.0
  0
LINE
  5
54
100
AcDbEntity
100
AcDbLine
  8
0
 62
256
370
-1
  6
ByLayer
 10
-34.2269999999999968
 20
36.4480000000000004
 30
0.0
 11
-31.8709999999999987
 21
38.5260000000000034
 31
0.0
  0
LINE
  5
55
100
AcDbEntity
100
AcDbLine
  8
0
 62
256
370
-1
  6
ByLayer
 10
-31.8709999999999987
 20
38.5260000000000034
 30
0.0
 11
-29.3889999999999993
 21
40.4510000000000005
 31
0.0
  0
LINE
  5
56
100
AcDbEntity
100
AcDbLine
  8
0
 62
256
370
-1
  6
ByLayer
 10
-29.3889999999999993
 20
40.4510000000000005
 30
0.0
 11
-26.7910000000000004
 21
42.2160000000000011
 31
0.0
  0
LINE
  5
57
100
AcDbEntity
100
AcDbLine
  8
0
 62
256
370
-1
  6
ByLayer
 10
-26.7910000000000004
 20
42.2160000000000011
 30
0.0
 11
-24.088000000000001
 21
43.8149999999999977
 31
0.0
  0
LINE
  5
58
100
AcDbEntity
100
AcDbLine
  8
0
 62
256
370
-1
  6
ByLayer
 10
-24.088000000000001
 20
43.8149999999999977
 30
0.0
 11
-21.2890000000000015
 21
45.2409999999999997
 31
0.0
  0
LINE
  5
59
100
AcDbEntity
100
AcDbLine
  8
0
 62
256
370
-1
  6
ByLayer
 10
-21.2890000000000015
 20
45.2409999999999997
 30
0.0
 11
-18.4059999999999988
 21
46.4889999999999972
 31
0.0
  0
LINE
  5
5A
100
AcDbEntity
100
AcDbLine
  8
0
 62
256
370
-1
  6
ByLayer
 10
-18.4059999999999988
 20
46.4889999999999972
 30
0.0
 11
-15.4510000000000005
 21
47.5529999999999973
 31
0.0
  0
LINE
  5
5B
100
AcDbEntity
100
AcDbLine
  8
0
 62
256
370
-1
  6
ByLayer
 10
-15.4510000000000005
 20
47.5529999999999973
 30
0.0
 11
-12.4339999999999993
 21
48.429000000000002
 31
0.0
  0
LINE
  5
5C
100
AcDbEntity
100
AcDbLine
  8
0
 62
256
370
-1
  6
ByLayer
 10
-12.4339999999999993
 20
48.429000000000002
 30
0.0
 11
-9.3689999999999998
 21
49.1139999999999972
 31
0.0
  0
LINE
  5
5D
100
AcDbEntity
100
AcDbLine
  8
0
 62
256
370
-1
  6
ByLayer
 10
-9.3689999999999998
 20
49.1139999999999972
 30
0.0
 11
-6.2670000000000003
 21
49.6060000000000016
 31
0.0
  0
LINE
  5
5E
100
AcDbEntity
100
AcDbLine
  8
0
 62
256
370
-1
  6
ByLayer
 10
-6.2670000000000003
 20
49.6060000000000016
 30
0.0
 11
-3.1400000000000001
 21
49.9010000000000034
 31
0.0
  0
LINE
  5
5F
100
AcDbEntity
100
AcDbLine
  8
0
 62
256
370
-1
  6
ByLayer
 10
-3.1400000000000001
 20
49.9010000000000034
 30
0.0
 11
0.0
 21
50.0
 31
0.0
  0
LINE
  5
60
100
AcDbEntity
100
AcDbLine
  8
0
 62
256
370
-1
  6
ByLayer
 10
0.0
 20
50.0
 30
0.0
 11
3.1400000000000001
 21
49.9010000000000034
 31
0.0
  0
LINE
  5
61
100
AcDbEntity
100
AcDbLine
  8
0
 62
256
370
-1
  6
ByLayer
 10
3.1400000000000001
 20
49.9010000000000034
 30
0.0
 11
6.2670000000000003
 21
49.6060000000000016
 31
0.0
  0
LINE
  5
62
100
AcDbEntity
100
AcDbLine
  8
0
 62
256
370
-1
  6
ByLayer
 10
6.2670000000000003
 20
49.6060000000000016
 30
0.0
 11
9.3689999999999998
 21
49.1139999999999972
 31
0.0
  0
LINE
  5
63
100
AcDbEntity
100
AcDbLine
  8
0
 62
256
370
-1
  6
ByLayer
 10
9.3689999999999998
 20
49.1139999999999972
 30
0.0
 11
12.4339999999999993
 21
48.429000000000002
 31
0.0
  0
LINE
  5
64
100
AcDbEntity
100
AcDbLine
  8
0
 62
256
370
-1
  6
ByLayer
 10
12.4339999999999993
 20
48.429000000000002
 30
0.0
 11
15.4510000000000005
 21
47.5529999999999973
 31
0.0
  0
LINE
  5
65
100
AcDbEntity
100
AcDbLine
  8
0
 62
256
370
-1
  6
ByLayer
 10
15.4510000000000005
 20
47.5529999999999973
 30
0.0
 11
18.4059999999999988
 21
46.4889999999999972
 31
0.0
  0
LINE
  5
66
100
AcDbEntity
100
AcDbLine
  8
0
 62
256
370
-1
  6
ByLayer
 10
18.4059999999999988
 20
46.4889999999999972
 30
0.0
 11
21.2890000000000015
 21
45.2409999999999997
 31
0.0
  0
LINE
  5
67
100
AcDbEntity
100
AcDbLine
  8
0
 62
256
370
-1
  6
ByLayer
 10
21.2890000000000015
 20
45.2409999999999997
 30
0.0
 11
24.088000000000001
 21
43.8149999999999977
 31
0.0
  0
LINE
  5
68
100
AcDbEntity
100
AcDbLine
  8
0
 62
256
370
-1
  6
ByLayer
 10
24.088000000000001
 20
43.8149999999999977
 30
0.0
 11
26.7910000000000004
 21
42.2160000000000011
 31
0.0
  0
LINE
  5
69
100
AcDbEntity
100
AcDbLine
  8
0
 62
256
370
-1
  6
ByLayer
 10
26.7910000000000004
 20
42.2160000000000011
 30
0.0
 11
29.3889999999999993
 21
40.4510000000000005
 31
0.0
  0
LINE
  5
6A
100
AcDbEntity
100
AcDbLine
  8
0
 62
256
370
-1
  6
ByLayer
 10
29.3889999999999993
 20
40.4510000000000005
 30
0.0
 11
31.8709999999999987
 21
38.5260000000000034
 31
0.0
  0
LINE
  5
6B
100
AcDbEntity
100
AcDbLine
  8
0
 62
256
370
-1
  6
ByLayer
 10
31.8709999999999987
 20
38.5260000000000034
 30
0.0
 11
34.2269999999999968
 21
36.4480000000000004
 31
0.0
  0
LINE
  5
6C
100
AcDbEntity
100
AcDbLine
  8
0
 62
256
370
-1
  6
ByLayer
 10
34.2269999999999968
 20
36.4480000000000004
 30
0.0
 11
36.4480000000000004
 21
34.2269999999999968
 31
0.0
  0
LINE
  5
6D
100
AcDbEntity
100
AcDbLine
  8
0
 62
256
370
-1
  6
ByLayer
 10
36.4480000000000004
 20
34.2269999999999968
 30
0.0
 11
38.5260000000000034
 21
31.8709999999999987
 31
0.0
  0
LINE
  5
6E
100
AcDbEntity
100
AcDbLine
  8
0
 62
256
370
-1
  6
ByLayer
 10
38.5260000000000034
 20
31.8709999999999987
 30
0.0
 11
40.4510000000000005
 21
29.3889999999999993
 31
0.0
  0
LINE
  5
6F
100
AcDbEntity
100
AcDbLine
  8
0
 62
256
370
-1
  6
ByLayer
 10
40.4510000000000005
 20
29.3889999999999993
 30
0.0
 11
42.2160000000000011
 21
26.7910000000000004
 31
0.0
  0
LINE
  5
70
100
AcDbEntity
100
AcDbLine
  8
0
 62
256
370
-1
  6
ByLayer
 10
42.2160000000000011
 20
26.7910000000000004
 30
0.0
 11
43.8149999999999977
 21
24.088000000000001
 31
0.0
  0
LINE
  5
71
100
AcDbEntity
100
AcDbLine
  8
0
 62
256
370
-1
  6
ByLayer
 10
43.8149999999999977
 20
24.088000000000001
 30
0.0
 11
45.2409999999999997
 21
21.2890000000000015
 31
0.0
  0
LINE
  5
72
100
AcDbEntity
100
AcDbLine
  8
0
 62
256
370
-1
  6
ByLayer
 10
45.2409999999999997
 20
21.2890000000000015
 30
0.0
 11
46.4889999999999972
 21
18.4059999999999988
 31
0.0
  0
LINE
  5
73
100
AcDbEntity
100
AcDbLine
  8
0
 62
256
370
-1
  6
ByLayer
 10
46.4889999999999972
 20
18.4059999999999988
 30
0.0
 11
47.5529999999999973
 21
15.4510000000000005
 31
0.0
  0
LINE
  5
74
100
AcDbEntity
100
AcDbLine
  8
0
 62
256
370
-1
  6
ByLayer
 10
47.5529999999999973
 20
15.4510000000000005
 30
0.0
 11
48.429000000000002
 21
12.4339999999999993
 31
0.0
  0
LINE
  5
75
100
AcDbEntity
100
AcDbLine
  8
0
 62
256
370
-1
  6
ByLayer
 10
48.429000000000002
 20
12.4339999999999993
 30
0.0
 11
49.1139999999999972
 21
9.3689999999999998
 31
0.0
  0
LINE
  5
76
100
AcDbEntity
100
AcDbLine
  8
0
 62
256
370
-1
  6
ByLayer
 10
49.1139999999999972
 20
9.3689999999999998
 30
0.0
 11
49.6060000000000016
 21
6.2670000000000003
 31
0.0
  0
LINE
  5
77
100
AcDbEntity
100
AcDbLine
  8
0
 62
256
370
-1
  6
ByLayer
 10
49.6060000000000016
 20
6.2670000000000003
 30
0.0
 11
49.9010000000000034
 21
3.1400000000000001
 31
0.0
  0
LINE
  5
78
100
AcDbEntity
100
AcDbLine
  8
0
 62
256
370
-1
  6
ByLayer
 10
49.9010000000000034
 20
3.1400000000000001
 30
0.0
 11
50.0
 21
0.0
 31
0.0
  0
LINE
  5
79
100
AcDbEntity
100
AcDbLine
  8
0
 62
256
370
-1
  6
ByLayer
 10
50.0
 20
0.0
 30
0.0
 11
49.9010000000000034
 21
-3.1400000000000001
 31
0.0
  0
LINE
  5
7A
100
AcDbEntity
100
AcDbLine
  8
0
 62
256
370
-1
  6
ByLayer
 10
49.9010000000000034
 20
-3.1400000000000001
 30
0.0
 11
49.6060000000000016
 21
-6.2670000000000003
 31
0.0
  0
LINE
  5
7B
100
AcDbEntity
100
AcDbLine
  8
0
 62
256
370
-1
  6
ByLayer
 10
49.6060000000000016
 20
-6.2670000000000003
 30
0.0
 11
49.1139999999999972
 21
-9.3689999999999998
 31
0.0
  0
LINE
  5
7C
100
AcDbEntity
100
AcDbLine
  8
0
 62
256
370
-1
  6
ByLayer
 10
49.1139999999999972
 20
-9.3689999999999998
 30
0.0
 11
48.429000000000002
 21
-12.4339999999999993
 31
0.0
  0
LINE
  5
7D
100
AcDbEntity
100
AcDbLine
  8
0
 62
256
370
-1
  6
ByLayer
 10
48.429000000000002
 20
-12.4339999999999993
 30
0.0
 11
47.5529999999999973
 21
-15.4510000000000005
 31
0.0
  0
LINE
  5
7E
100
AcDbEntity
100
AcDbLine
  8
0
 62
256
370
-1
  6
ByLayer
 10
47.5529999999999973
 20
-15.4510000000000005
 30
0.0
 11
46.4889999999999972
 21
-18.4059999999999988
 31
0.0
  0
LINE
  5
7F
100
AcDbEntity
100
AcDbLine
  8
0
 62
256
370
-1
  6
ByLayer
 10
46.4889999999999972
 20
-18.4059999999999988
 30
0.0
 11
45.2409999999999997
 21
-21.2890000000000015
 31
0.0
  0
LINE
  5
80
100
AcDbEntity
100
AcDbLine
  8
0
 62
256
370
-1
  6
ByLayer
 10
45.2409999999999997
 20
-21.2890000000000015
 30
0.0
 11
43.8149999999999977
 21
-24.088000000000001
 31
0.0
  0
LINE
  5
81
100
AcDbEntity
100
AcDbLine
  8
0
 62
256
370
-1
  6
ByLayer
 10
43.8149999999999977
 20
-24.088000000000001
 30
0.0
 11
42.2160000000000011
 21
-26.7910000000000004
 31
0.0
  0
LINE
  5
82
100
AcDbEntity
100
AcDbLine
  8
0
 62
256
370
-1
  6
ByLayer
 10
42.2160000000000011
 20
-26.7910000000000004
 30
0.0
 11
40.4510000000000005
 21
-29.3889999999999993
 31
0.0
  0
LINE
  5
83
100
AcDbEntity
100
AcDbLine
  8
0
 62
256
370
-1
  6
ByLayer
 10
40.4510000000000005
 20
-29.3889999999999993
 30
0.0
 11
38.5260000000000034
 21
-31.8709999999999987
 31
0.0
  0
LINE
  5
84
100
AcDbEntity
100
AcDbLine
  8
0
 62
256
370
-1
  6
ByLayer
 10
38.5260000000000034
 20
-31.8709999999999987
 30
0.0
 11
36.4480000000000004
 21
-34.2269999999999968
 31
0.0
  0
LINE
  5
85
100
AcDbEntity
100
AcDbLine
  8
0
 62
256
370
-1
  6
ByLayer
 10
36.4480000000000004
 20
-34.2269999999999968
 30
0.0
 11
34.2269999999999968
 21
-36.4480000000000004
 31
0.0
  0
LINE
  5
86
100
AcDbEntity
100
AcDbLine
  8
0
 62
256
370
-1
  6
ByLayer
 10
34.2269999999999968
 20
-36.4480000000000004
 30
0.0
 11
31.8709999999999987
 21
-38.5260000000000034
 31
0.0
  0
LINE
  5
87
100
AcDbEntity
100
AcDbLine
  8
0
 62
256
370
-1
  6
ByLayer
 10
31.8709999999999987
 20
-38.5260000000000034
 30
0.0
 11
29.3889999999999993
 21
-40.4510000000000005
 31
0.0
  0
LINE
  5
88
100
AcDbEntity
100
AcDbLine
  8
0
 62
256
370
-1
  6
ByLayer
 10
29.3889999999999993
 20
-40.4510000000000005
 30
0.0
 11
26.7910000000000004
 21
-42.2160000000000011
 31
0.0
  0
LINE
  5
89
100
AcDbEntity
100
AcDbLine
  8
0
 62
256
370
-1
  6
ByLayer
 10
26.7910000000000004
 20
-42.2160000000000011
 30
0.0
 11
24.088000000000001
 21
-43.8149999999999977
 31
0.0
  0
LINE
  5
8A
100
AcDbEntity
100
AcDbLine
  8
0
 62
256
370
-1
  6
ByLayer
 10
24.088000000000001
 20
-43.8149999999999977
 30
0.0
 11
21.2890000000000015
 21
-45.2409999999999997
 31
0.0
  0
LINE
  5
8B
100
AcDbEntity
100
AcDbLine
  8
0
 62
256
370
-1
  6
ByLayer
 10
21.2890000000000015
 20
-45.2409999999999997
 30
0.0
 11
18.4059999999999988
 21
-46.4889999999999972
 31
0.0
  0
LINE
  5
8C
100
AcDbEntity
100
AcDbLine
  8
0
 62
256
370
-1
  6
ByLayer
 10
18.4059999999999988
 20
-46.4889999999999972
 30
0.0
 11
15.4510000000000005
 21
-47.5529999999999973
 31
0.0
  0
LINE
  5
8D
100
AcDbEntity
100
AcDbLine
  8
0
 62
256
370
-1
  6
ByLayer
 10
15.4510000000000005
 20
-47.5529999999999973
 30
0.0
 11
12.4339999999999993
 21
-48.429000000000002
 31
0.0
  0
LINE
  5
8E
100
AcDbEntity
100
AcDbLine
  8
0
 62
256
370
-1
  6
ByLayer
 10
12.4339999999999993
 20
-48.429000000000002
 30
0.0
 11
9.3689999999999998
 21
-49.1139999999999972
 31
0.0
  0
LINE
  5
8F
100
AcDbEntity
100
AcDbLine
  8
0
 62
256
370
-1
  6
ByLayer
 10
9.3689999999999998
 20
-49.1139999999999972
 30
0.0
 11
6.2670000000000003
 21
-49.6060000000000016
 31
0.0
  0
LINE
  5
90
100
AcDbEntity
100
AcDbLine
  8
0
 62
256
370
-1
  6
ByLayer
 10
6.2670000000000003
 20
-49.6060000000000016
 30
0.0
 11
3.1400000000000001
 21
-49.9010000000000034
 31
0.0
  0
LINE
  5
91
100
AcDbEntity
100
AcDbLine
  8
0
 62
256
370
-1
  6
ByLayer
 10
3.1400000000000001
 20
-49.9010000000000034
 30
0.0
 11
0.0
 21
-50.0
 31
0.0
  0
LINE
  5
92
100
AcDbEntity
100
AcDbLine
  8
0
 62
256
370
-1
  6
ByLayer
 10
0.0
 20
-50.0
 30
0.0
 11
-3.1400000000000001
 21
-49.9010000000000034
 31
0.0
  0
LINE
  5
93
100
AcDbEntity
100
AcDbLine
  8
0
 62
256
370
-1
  6
ByLayer
 10
-3.1400000000000001
 20
-49.9010000000000034
 30
0.0
 11
-6.2670000000000003
 21
-49.6060000000000016
 31
0.0
  0
LINE
  5
94
100
AcDbEntity
100
AcDbLine
  8
0
 62
256
370
-1
  6
ByLayer
 10
-6.2670000000000003
 20
-49.6060000000000016
 30
0.0
 11
-9.3689999999999998
 21
-49.1139999999999972
 31
0.0
  0
LINE
  5
95
100
AcDbEntity
100
AcDbLine
  8
0
 62
256
370
-1
  6
ByLayer
 10
-9.3689999999999998
 20
-49.1139999999999972
 30
0.0
 11
-12.4339999999999993
 21
-48.429000000000002
 31
0.0
  0
LINE
  5
96
100
AcDbEntity
100
AcDbLine
  8
0
 62
256
370
-1
  6
ByLayer
 10
-12.4339999999999993
 20
-48.429000000000002
 30
0.0
 11
-15.4510000000000005
 21
-47.5529999999999973
 31
0.0
  0
LINE
  5
97
100
AcDbEntity
100
AcDbLine
  8
0
 62
256
370
-1
  6
ByLayer
 10
-15.4510000000000005
 20
-47.5529999999999973
 30
0.0
 11
-18.4059999999999988
 21
-46.4889999999999972
 31
0.0
  0
LINE
  5
98
100
AcDbEntity
100
AcDbLine
  8
0
 62
256
370
-1
  6
ByLayer
 10
-18.4059999999999988
 20
-46.4889999999999972
 30
0.0
 11
-21.2890000000000015
 21
-45.2409999999999997
 31
0.0
  0
LINE
  5
99
100
AcDbEntity
100
AcDbLine
  8
0
 62
256
370
-1
  6
ByLayer
 10
-21.2890000000000015
 20
-45.2409999999999997
 30
0.0
 11
-24.088000000000001
 21
-43.8149999999999977
 31
0.0
  0
LINE
  5
9A
100
AcDbEntity
100
AcDbLine
  8
0
 62
256
370
-1
  6
ByLayer
 10
-24.088000000000001
 20
-43.8149999999999977
 30
0.0
 11
-26.7910000000000004
 21
-42.2160000000000011
 31
0.0
  0
LINE
  5
9B
100
AcDbEntity
100
AcDbLine
  8
0
 62
256
370
-1
  6
ByLayer
 10
-26.7910000000000004
 20
-42.2160000000000011
 30
0.0
 11
-29.3889999999999993
 21
-40.4510000000000005
 31
0.0
  0
LINE
  5
9C
100
AcDbEntity
100
AcDbLine
  8
0
 62
256
370
-1
  6
ByLayer
 10
-29.3889999999999993
 20
-40.4510000000000005
 30
0.0
 11
-31.8709999999999987
 21
-38.5260000000000034
 31
0.0
  0
LINE
  5
9D
100
AcDbEntity
100
AcDbLine
  8
0
 62
256
370
-1
  6
ByLayer
 10
-31.8709999999999987
 20
-38.5260000000000034
 30
0.0
 11
-34.2269999999999968
 21
-36.4480000000000004
 31
0.0
  0
LINE
  5
9E
100
AcDbEntity
100
AcDbLine
  8
0
 62
256
370
-1
  6
ByLayer
 10
-34.2269999999999968
 20
-36.4480000000000004
 30
0.0
 11
-36.4480000000000004
 21
-34.2269999999999968
 31
0.0
  0
LINE
  5
9F
100
AcDbEntity
100
AcDbLine
  8
0
 62
256
370
-1
  6
ByLayer
 10
-36.4480000000000004
 20
-34.2269999999999968
 30
0.0
 11
-38.5260000000000034
 21
-31.8709999999999987
 31
0.0
  0
LINE
  5
A0
100
AcDbEntity
100
AcDbLine
  8
0
 62
256
370
-1
  6
ByLayer
 10
-38.5260000000000034
 20
-31.8709999999999987
 30
0.0
 11
-40.4510000000000005
 21
-29.3889999999999993
 31
0.0
  0
LINE
  5
A1
100
AcDbEntity
100
AcDbLine
  8
0
 62
256
370
-1
  6
ByLayer
 10
-40.4510000000000005
 20
-29.3889999999999993
 30
0.0
 11
-42.2160000000000011
 21
-26.7910000000000004
 31
0.0
  0
LINE
  5
A2
100
AcDbEntity
100
AcDbLine
  8
0
 62
256
370
-1
  6
ByLayer
 10
-42.2160000000000011
 20
-26.7910000000000004
 30
0.0
 11
-43.8149999999999977
 21
-24.088000000000001
 31
0.0
  0
LINE
  5
A3
100
AcDbEntity
100
AcDbLine
  8
0
 62
256
370
-1
  6
ByLayer
 10
-43.8149999999999977
 20
-24.088000000000001
 30
0.0
 11
-45.2409999999999997
 21
-21.2890000000000015
 31
0.0
  0
LINE
  5
A4
100
AcDbEntity
100
AcDbLine
  8
0
 62
256
370
-1
  6
ByLayer
 10
-45.2409999999999997
 20
-21.2890000000000015
 30
0.0
 11
-46.4889999999999972
 21
-18.4059999999999988
 31
0.0
  0
LINE
  5
A5
100
AcDbEntity
100
AcDbLine
  8
0
 62
256
370
-1
  6
ByLayer
 10
-46.4889999999999972
 20
-18.4059999999999988
 30
0.0
 11
-47.5529999999999973
 21
-15.4510000000000005
 31
0.0
  0
LINE
  5
A6
100
AcDbEntity
100
AcDbLine
  8
0
 62
256
370
-1
  6
ByLayer
 10
-47.5529999999999973
 20
-15.4510000000000005
 30
0.0
 11
-48.429000000000002
 21
-12.4339999999999993
 31
0.0
  0
LINE
  5
A7
100
AcDbEntity
100
AcDbLine
  8
0
 62
256
370
-1
  6
ByLayer
 10
-48.429000000000002
 20
-12.4339999999999993
 30
0.0
 11
-49.1139999999999972
 21
-9.3689999999999998
 31
0.0
  0
LINE
  5
A8
100
AcDbEntity
100
AcDbLine
  8
0
 62
256
370
-1
  6
ByLayer
 10
-49.1139999999999972
 20
-9.3689999999999998
 30
0.0
 11
-49.6060000000000016
 21
-6.2670000000000003
 31
0.0
  0
LINE
  5
A9
100
AcDbEntity
100
AcDbLine
  8
0
 62
256
370
-1
  6
ByLayer
 10
-49.6060000000000016
 20
-6.2670000000000003
 30
0.0
 11
-49.9010000000000034
 21
-3.1400000000000001
 31
0.0
  0
LINE
  5
AA
100
AcDbEntity
100
AcDbLine
  8
0
 62
256
370
-1
  6
ByLayer
 10
-49.9010000000000034
 20
-3.1400000000000001
 30
0.0
 11
-50.0
 21
0.0
 31
0.0
  0
LINE
  5
AB
100
AcDbEntity
100
AcDbLine
  8
0
 62
256
370
-1
  6
ByLayer
 10
-48.3160000000000025
 20
-27.25
 30
0.0
 11
-48.3140000000000001
 21
-27.1799999999999997
 31
0.0
  0
LINE
  5
AC
100
AcDbEntity
100
AcDbLine
  8
0
 62
256
370
-1
  6
ByLayer
 10
-48.3140000000000001
 20
-27.1799999999999997
 30
0.0
 11
-48.3070000000000022
 21
-27.1099999999999994
 31
0.0
  0
LINE
  5
AD
100
AcDbEntity
100
AcDbLine
  8
0
 62
256
370
-1
  6
ByLayer
 10
-48.3070000000000022
 20
-27.1099999999999994
 30
0.0
 11
-48.2959999999999994
 21
-27.0410000000000004
 31
0.0
  0
LINE
  5
AE
100
AcDbEntity
100
AcDbLine
  8
0
 62
256
370
-1
  6
ByLayer
 10
-48.2959999999999994
 20
-27.0410000000000004
 30
0.0
 11
-48.2809999999999988
 21
-26.9720000000000013
 31
0.0
  0
LINE
  5
AF
100
AcDbEntity
100
AcDbLine
  8
0
 62
256
370
-1
  6
ByLayer
 10
-48.2809999999999988
 20
-26.9720000000000013
 30
0.0
 11
-48.2610000000000028
 21
-26.9050000000000011
 31
0.0
  0
LINE
  5
B0
100
AcDbEntity
100
AcDbLine
  8
0
 62
256
370
-1
  6
ByLayer
 10
-48.2610000000000028
 20
-26.9050000000000011
 30
0.0
 11
-48.2370000000000019
 21
-26.8389999999999986
 31
0.0
  0
LINE
  5
B1
100
AcDbEntity
100
AcDbLine
  8
0
 62
256
370
-1
  6
ByLayer
 10
-48.2370000000000019
 20
-26.8389999999999986
 30
0.0
 11
-48.2100000000000009
 21
-26.7740000000000009
 31
0.0
  0
LINE
  5
B2
100
AcDbEntity
100
AcDbLine
  8
0
 62
256
370
-1
  6
ByLayer
 10
-48.2100000000000009
 20
-26.7740000000000009
 30
0.0
 11
-48.1779999999999973
 21
-26.7119999999999997
 31
0.0
  0
LINE
  5
B3
100
AcDbEntity
100
AcDbLine
  8
0
 62
256
370
-1
  6
ByLayer
 10
-48.1779999999999973
 20
-26.7119999999999997
 30
0.0
 11
-48.142000000000003
 21
-26.6509999999999998
 31
0.0
  0
LINE
  5
B4
100
AcDbEntity
100
AcDbLine
  8
0
 62
256
370
-1
  6
ByLayer
 10
-48.142000000000003
 20
-26.6509999999999998
 30
0.0
 11
-48.1030000000000015
 21
-26.593
 31
0.0
  0
LINE
  5
B5
100
AcDbEntity
100
AcDbLine
  8
0
 62
256
370
-1
  6
ByLayer
 10
-48.1030000000000015
 20
-26.593
 30
0.0
 11
-48.0600000000000023
 21
-26.5380000000000003
 31
0.0
  0
LINE
  5
B6
100
AcDbEntity
100
AcDbLine
  8
0
 62
256
370
-1
  6
ByLayer
 10
-48.0600000000000023
 20
-26.5380000000000003
 30
0.0
 11
-48.0129999999999981
 21
-26.4849999999999994
 31
0.0
  0
LINE
  5
B7
100
AcDbEntity
100
AcDbLine
  8
0
 62
256
370
-1
  6
ByLayer
 10
-48.0129999999999981
 20
-26.4849999999999994
 30
0.0
 11
-47.963000000000001
 21
-26.4349999999999987
 31
0.0
  0
LINE
  5
B8
100
AcDbEntity
100
AcDbLine
  8
0
 62
256
370
-1
  6
ByLayer
 10
-47.963000000000001
 20
-26.4349999999999987
 30
0.0
 11
-47.9110000000000014
 21
-26.3889999999999993
 31
0.0
  0
LINE
  5
B9
100
AcDbEntity
100
AcDbLine
  8
0
 62
256
370
-1
  6
ByLayer
 10
-47.9110000000000014
 20
-26.3889999999999993
 30
0.0
 11
-47.8549999999999969
 21
-26.3460000000000001
 31
0.0
  0
LINE
  5
BA
100
AcDbEntity
100
AcDbLine
  8
0
 62
256
370
-1
  6
ByLayer
 10
-47.8549999999999969
 20
-26.3460000000000001
 30
0.0
 11
-47.796999999999997
 21
-26.3060000000000009
 31
0.0
  0
LINE
  5
BB
100
AcDbEntity
100
AcDbLine
  8
0
 62
256
370
-1
  6
ByLayer
 10
-47.796999999999997
 20
-26.3060000000000009
 30
0.0
 11
-47.7370000000000019
 21
-26.2710000000000008
 31
0.0
  0
LINE
  5
BC
100
AcDbEntity
100
AcDbLine
  8
0
 62
256
370
-1
  6
ByLayer
 10
-47.7370000000000019
 20
-26.2710000000000008
 30
0.0
 11
-47.6739999999999995
 21
-26.2390000000000008
 31
0.0
  0
LINE
  5
BD
100
AcDbEntity
100
AcDbLine
  8
0
 62
256
370
-1
  6
ByLayer
 10
-47.6739999999999995
 20
-26.2390000000000008
 30
0.0
 11
-47.6099999999999994
 21
-26.2109999999999985
 31
0.0
  0
LINE
  5
BE
100
AcDbEntity
100
AcDbLine
  8
0
 62
256
370
-1
  6
ByLayer
 10
-47.6099999999999994
 20
-26.2109999999999985
 30
0.0
 11
-47.5439999999999969
 21
-26.1870000000000012
 31
0.0
  0
LINE
  5
BF
100
AcDbEntity
100
AcDbLine
  8
0
 62
256
370
-1
  6
ByLayer
 10
-47.5439999999999969
 20
-26.1870000000000012
 30
0.0
 11
-47.4759999999999991
 21
-26.1679999999999993
 31
0.0
  0
LINE
  5
C0
100
AcDbEntity
100
AcDbLine
  8
0
 62
256
370
-1
  6
ByLayer
 10
-47.4759999999999991
 20
-26.1679999999999993
 30
0.0
 11
-47.4080000000000013
 21
-26.152000000000001
 31
0.0
  0
LINE
  5
C1
100
AcDbEntity
100
AcDbLine
  8
0
 62
256
370
-1
  6
ByLayer
 10
-47.4080000000000013
 20
-26.152000000000001
 30
0.0
 11
-47.338000000000001
 21
-26.1409999999999982
 31
0.0
  0
LINE
  5
C2
100
AcDbEntity
100
AcDbLine
  8
0
 62
256
370
-1
  6
ByLayer
 10
-47.338000000000001
 20
-26.1409999999999982
 30
0.0
 11
-47.2689999999999984
 21
-26.1350000000000016
 31
0.0
  0
LINE
  5
C3
100
AcDbEntity
100
AcDbLine
  8
0
 62
256
370
-1
  6
ByLayer
 10
-47.2689999999999984
 20
-26.1350000000000016
 30
0.0
 11
-47.1980000000000004
 21
-26.1320000000000014
 31
0.0
  0
LINE
  5
C4
100
AcDbEntity
100
AcDbLine
  8
0
 62
256
370
-1
  6
ByLayer
 10
-47.1980000000000004
 20
-26.1320000000000014
 30
0.0
 11
-47.1280000000000001
 21
-26.1350000000000016
 31
0.0
  0
LINE
  5
C5
100
AcDbEntity
100
AcDbLine
  8
0
 62
256
370
-1
  6
ByLayer
 10
-47.1280000000000001
 20
-26.1350000000000016
 30
0.0
 11
-47.0579999999999998
 21
-26.1409999999999982
 31
0.0
  0
LINE
  5
C6
100
AcDbEntity
100
AcDbLine
  8
0
 62
256
370
-1
  6
ByLayer
 10
-47.0579999999999998
 20
-26.1409999999999982
 30
0.0
 11
-46.9889999999999972
 21
-26.152000000000001
 31
0.0
  0
LINE
  5
C7
100
AcDbEntity
100
AcDbLine
  8
0
 62
256
370
-1
  6
ByLayer
 10
-46.9889999999999972
 20
-26.152000000000001
 30
0.0
 11
-46.9200000000000017
 21
-26.1679999999999993
 31
0.0
  0
LINE
  5
C8
100
AcDbEntity
100
AcDbLine
  8
0
 62
256
370
-1
  6
ByLayer
 10
-46.9200000000000017
 20
-26.1679999999999993
 30
0.0
 11
-46.8530000000000015
 21
-26.1870000000000012
 31
0.0
  0
LINE
  5
C9
100
AcDbEntity
100
AcDbLine
  8
0
 62
256
370
-1
  6
ByLayer
 10
-46.8530000000000015
 20
-26.1870000000000012
 30
0.0
 11
-46.786999999999999
 21
-26.2109999999999985
 31
0.0
  0
LINE
  5
CA
100
AcDbEntity
100
AcDbLine
  8
0
 62
256
370
-1
  6
ByLayer
 10
-46.786999999999999
 20
-26.2109999999999985
 30
0.0
 11
-46.722999999999999
 21
-26.2390000000000008
 31
0.0
  0
LINE
  5
CB
100
AcDbEntity
100
AcDbLine
  8
0
 62
256
370
-1
  6
ByLayer
 10
-46.722999999999999
 20
-26.2390000000000008
 30
0.0
 11
-46.6599999999999966
 21
-26.2710000000000008
 31
0.0
  0
LINE
  5
CC
100
AcDbEntity
100
AcDbLine
  8
0
 62
256
370
-1
  6
ByLayer
 10
-46.6599999999999966
 20
-26.2710000000000008
 30
0.0
 11
-46.6000000000000014
 21
-26.3060000000000009
 31
0.0
  0
LINE
  5
CD
100
AcDbEntity
100
AcDbLine
  8
0
 62
256
370
-1
  6
ByLayer
 10
-46.6000000000000014
 20
-26.3060000000000009
 30
0.0
 11
-46.5409999999999968
 21
-26.3460000000000001
 31
0.0
  0
LINE
  5
CE
100
AcDbEntity
100
AcDbLine
  8
0
 62
256
370
-1
  6
ByLayer
 10
-46.5409999999999968
 20
-26.3460000000000001
 30
0.0
 11
-46.4859999999999971
 21
-26.3889999999999993
 31
0.0
  0
LINE
  5
CF
100
AcDbEntity
100
AcDbLine
  8
0
 62
256
370
-1
  6
ByLayer
 10
-46.4859999999999971
 20
-26.3889999999999993
 30
0.0
 11
-46.4329999999999998
 21
-26.4349999999999987
 31
0.0
  0
LINE
  5
D0
100
AcDbEntity
100
AcDbLine
  8
0
 62
256
370
-1
  6
ByLayer
 10
-46.4329999999999998
 20
-26.4349999999999987
 30
0.0
 11
-46.3840000000000003
 21
-26.4849999999999994
 31
0.0
  0
LINE
  5
D1
100
AcDbEntity
100
AcDbLine
  8
0
 62
256
370
-1
  6
ByLayer
 10
-46.3840000000000003
 20
-26.4849999999999994
 30
0.0
 11
-46.3370000000000033
 21
-26.5380000000000003
 31
0.0
  0
LINE
  5
D2
100
AcDbEntity
100
AcDbLine
  8
0
 62
256
370
-1
  6
ByLayer
 10
-46.3370000000000033
 20
-26.5380000000000003
 30
0.0
 11
-46.2939999999999969
 21
-26.593
 31
0.0
  0
LINE
  5
D3
100
AcDbEntity
100
AcDbLine
  8
0
 62
256
370
-1
  6
ByLayer
 10
-46.2939999999999969
 20
-26.593
 30
0.0
 11
-46.2550000000000026
 21
-26.6509999999999998
 31
0.0
  0
LINE
  5
D4
100
AcDbEntity
100
AcDbLine
  8
0
 62
256
370
-1
  6
ByLayer
 10
-46.2550000000000026
 20
-26.6509999999999998
 30
0.0
 11
-46.2190000000000012
 21
-26.7119999999999997
 31
0.0
  0
LINE
  5
D5
100
AcDbEntity
100
AcDbLine
  8
0
 62
256
370
-1
  6
ByLayer
 10
-46.2190000000000012
 20
-26.7119999999999997
 30
0.0
 11
-46.1869999999999976
 21
-26.7740000000000009
 31
0.0
  0
LINE
  5
D6
100
AcDbEntity
100
AcDbLine
  8
0
 62
256
370
-1
  6
ByLayer
 10
-46.1869999999999976
 20
-26.7740000000000009
 30
0.0
 11
-46.1589999999999989
 21
-26.8389999999999986
 31
0.0
  0
LINE
  5
D7
100
AcDbEntity
100
AcDbLine
  8
0
 62
256
370
-1
  6
ByLayer
 10
-46.1589999999999989
 20
-26.8389999999999986
 30
0.0
 11
-46.134999999999998
 21
-26.9050000000000011
 31
0.0
  0
LINE
  5
D8
100
AcDbEntity
100
AcDbLine
  8
0
 62
256
370
-1
  6
ByLayer
 10
-46.134999999999998
 20
-26.9050000000000011
 30
0.0
 11
-46.1159999999999997
 21
-26.9720000000000013
 31
0.0
  0
LINE
  5
D9
100
AcDbEntity
100
AcDbLine
  8
0
 62
256
370
-1
  6
ByLayer
 10
-46.1159999999999997
 20
-26.9720000000000013
 30
0.0
 11
-46.1009999999999991
 21
-27.0410000000000004
 31
0.0
  0
LINE
  5
DA
100
AcDbEntity
100
AcDbLine
  8
0
 62
256
370
-1
  6
ByLayer
 10
-46.1009999999999991
 20
-27.0410000000000004
 30
0.0
 11
-46.0900000000000034
 21
-27.1099999999999994
 31
0.0
  0
LINE
  5
DB
100
AcDbEntity
100
AcDbLine
  8
0
 62
256
370
-1
  6
ByLayer
 10
-46.0900000000000034
 20
-27.1099999999999994
 30
0.0
 11
-46.0829999999999984
 21
-27.1799999999999997
 31
0.0
  0
LINE
  5
DC
100
AcDbEntity
100
AcDbLine
  8
0
 62
256
370
-1
  6
ByLayer
 10
-46.0829999999999984
 20
-27.1799999999999997
 30
0.0
 11
-46.0810000000000031
 21
-27.25
 31
0.0
  0
LINE
  5
DD
100
AcDbEntity
100
AcDbLine
  8
0
 62
256
370
-1
  6
ByLayer
 10
-46.0810000000000031
 20
-27.25
 30
0.0
 11
-46.0829999999999984
 21
-27.3200000000000003
 31
0.0
  0
LINE
  5
DE
100
AcDbEntity
100
AcDbLine
  8
0
 62
256
370
-1
  6
ByLayer
 10
-46.0829999999999984
 20
-27.3200000000000003
 30
0.0
 11
-46.0900000000000034
 21
-27.3900000000000006
 31
0.0
  0
LINE
  5
DF
100
AcDbEntity
100
AcDbLine
  8
0
 62
256
370
-1
  6
ByLayer
 10
-46.0900000000000034
 20
-27.3900000000000006
 30
0.0
 11
-46.1009999999999991
 21
-27.4589999999999996
 31
0.0
  0
LINE
  5
E0
100
AcDbEntity
100
AcDbLine
  8
0
 62
256
370
-1
  6
ByLayer
 10
-46.1009999999999991
 20
-27.4589999999999996
 30
0.0
 11
-46.1159999999999997
 21
-27.5279999999999987
 31
0.0
  0
LINE
  5
E1
100
AcDbEntity
100
AcDbLine
  8
0
 62
256
370
-1
  6
ByLayer
 10
-46.1159999999999997
 20
-27.5279999999999987
 30
0.0
 11
-46.134999999999998
 21
-27.5949999999999989
 31
0.0
  0
LINE
  5
E2
100
AcDbEntity
100
AcDbLine
  8
0
 62
256
370
-1
  6
ByLayer
 10
-46.134999999999998
 20
-27.5949999999999989
 30
0.0
 11
-46.1589999999999989
 21
-27.6610000000000014
 31
0.0
  0
LINE
  5
E3
100
AcDbEntity
100
AcDbLine
  8
0
 62
256
370
-1
  6
ByLayer
 10
-46.1589999999999989
 20
-27.6610000000000014
 30
0.0
 11
-46.1869999999999976
 21
-27.7259999999999991
 31
0.0
  0
LINE
  5
E4
100
AcDbEntity
100
AcDbLine
  8
0
 62
256
370
-1
  6
ByLayer
 10
-46.1869999999999976
 20
-27.7259999999999991
 30
0.0
 11
-46.2190000000000012
 21
-27.7880000000000003
 31
0.0
  0
LINE
  5
E5
100
AcDbEntity
100
AcDbLine
  8
0
 62
256
370
-1
  6
ByLayer
 10
-46.2190000000000012
 20
-27.7880000000000003
 30
0.0
 11
-46.2550000000000026
 21
-27.8490000000000002
 31
0.0
  0
LINE
  5
E6
100
AcDbEntity
100
AcDbLine
  8
0
 62
256
370
-1
  6
ByLayer
 10
-46.2550000000000026
 20
-27.8490000000000002
 30
0.0
 11
-46.2939999999999969
 21
-27.907
 31
0.0
  0
LINE
  5
E7
100
AcDbEntity
100
AcDbLine
  8
0
 62
256
370
-1
  6
ByLayer
 10
-46.2939999999999969
 20
-27.907
 30
0.0
 11
-46.3370000000000033
 21
-27.9619999999999997
 31
0.0
  0
LINE
  5
E8
100
AcDbEntity
100
AcDbLine
  8
0
 62
256
370
-1
  6
ByLayer
 10
-46.3370000000000033
 20
-27.9619999999999997
 30
0.0
 11
-46.3840000000000003
 21
-28.0150000000000006
 31
0.0
  0
LINE
  5
E9
100
AcDbEntity
100
AcDbLine
  8
0
 62
256
370
-1
  6
ByLayer
 10
-46.3840000000000003
 20
-28.0150000000000006
 30
0.0
 11
-46.4329999999999998
 21
-28.0650000000000013
 31
0.0
  0
LINE
  5
EA
100
AcDbEntity
100
AcDbLine
  8
0
 62
256
370
-1
  6
ByLayer
 10
-46.4329999999999998
 20
-28.0650000000000013
 30
0.0
 11
-46.4859999999999971
 21
-28.1110000000000007
 31
0.0
  0
LINE
  5
EB
100
AcDbEntity
100
AcDbLine
  8
0
 62
256
370
-1
  6
ByLayer
 10
-46.4859999999999971
 20
-28.1110000000000007
 30
0.0
 11
-46.5409999999999968
 21
-28.1539999999999999
 31
0.0
  0
LINE
  5
EC
100
AcDbEntity
100
AcDbLine
  8
0
 62
256
370
-1
  6
ByLayer
 10
-46.5409999999999968
 20
-28.1539999999999999
 30
0.0
 11
-46.6000000000000014
 21
-28.1939999999999991
 31
0.0
  0
LINE
  5
ED
100
AcDbEntity
100
AcDbLine
  8
0
 62
256
370
-1
  6
ByLayer
 10
-46.6000000000000014
 20
-28.1939999999999991
 30
0.0
 11
-46.6599999999999966
 21
-28.2289999999999992
 31
0.0
  0
LINE
  5
EE
100
AcDbEntity
100
AcDbLine
  8
0
 62
256
370
-1
  6
ByLayer
 10
-46.6599999999999966
 20
-28.2289999999999992
 30
0.0
 11
-46.722999999999999
 21
-28.2609999999999992
 31
0.0
  0
LINE
  5
EF
100
AcDbEntity
100
AcDbLine
  8
0
 62
256
370
-1
  6
ByLayer
 10
-46.722999999999999
 20
-28.2609999999999992
 30
0.0
 11
-46.786999999999999
 21
-28.2890000000000015
 31
0.0
  0
LINE
  5
F0
100
AcDbEntity
100
AcDbLine
  8
0
 62
256
370
-1
  6
ByLayer
 10
-46.786999999999999
 20
-28.2890000000000015
 30
0.0
 11
-46.8530000000000015
 21
-28.3129999999999988
 31
0.0
  0
LINE
  5
F1
100
AcDbEntity
100
AcDbLine
  8
0
 62
256
370
-1
  6
ByLayer
 10
-46.8530000000000015
 20
-28.3129999999999988
 30
0.0
 11
-46.9200000000000017
 21
-28.3320000000000007
 31
0.0
  0
LINE
  5
F2
100
AcDbEntity
100
AcDbLine
  8
0
 62
256
370
-1
  6
ByLayer
 10
-46.9200000000000017
 20
-28.3320000000000007
 30
0.0
 11
-46.9889999999999972
 21
-28.347999999999999
 31
0.0
  0
LINE
  5
F3
100
AcDbEntity
100
AcDbLine
  8
0
 62
256
370
-1
  6
ByLayer
 10
-46.9889999999999972
 20
-28.347999999999999
 30
0.0
 11
-47.0579999999999998
 21
-28.3590000000000018
 31
0.0
  0
LINE
  5
F4
100
AcDbEntity
100
AcDbLine
  8
0
 62
256
370
-1
  6
ByLayer
 10
-47.0579999999999998
 20
-28.3590000000000018
 30
0.0
 11
-47.1280000000000001
 21
-28.3649999999999984
 31
0.0
  0
LINE
  5
F5
100
AcDbEntity
100
AcDbLine
  8
0
 62
256
370
-1
  6
ByLayer
 10
-47.1280000000000001
 20
-28.3649999999999984
 30
0.0
 11
-47.1980000000000004
 21
-28.3679999999999986
 31
0.0
  0
LINE
  5
F6
100
AcDbEntity
100
AcDbLine
  8
0
 62
256
370
-1
  6
ByLayer
 10
-47.1980000000000004
 20
-28.3679999999999986
 30
0.0
 11
-47.2689999999999984
 21
-28.3649999999999984
 31
0.0
  0
LINE
  5
F7
100
AcDbEntity
100
AcDbLine
  8
0
 62
256
370
-1
  6
ByLayer
 10
-47.2689999999999984
 20
-28.3649999999999984
 30
0.0
 11
-47.338000000000001
 21
-28.3590000000000018
 31
0.0
  0
LINE
  5
F8
100
AcDbEntity
100
AcDbLine
  8
0
 62
256
370
-1
  6
ByLayer
 10
-47.338000000000001
 20
-28.3590000000000018
 30
0.0
 11
-47.4080000000000013
 21
-28.347999999999999
 31
0.0
  0
LINE
  5
F9
100
AcDbEntity
100
AcDbLine
  8
0
 62
256
370
-1
  6
ByLayer
 10
-47.4080000000000013
 20
-28.347999999999999
 30
0.0
 11
-47.4759999999999991
 21
-28.3320000000000007
 31
0.0
  0
LINE
  5
FA
100
AcDbEntity
100
AcDbLine
  8
0
 62
256
370
-1
  6
ByLayer
 10
-47.4759999999999991
 20
-28.3320000000000007
 30
0.0
 11
-47.5439999999999969
 21
-28.3129999999999988
 31
0.0
  0
LINE
  5
FB
100
AcDbEntity
100
AcDbLine
  8
0
 62
256
370
-1
  6
ByLayer
 10
-47.5439999999999969
 20
-28.3129999999999988
 30
0.0
 11
-47.6099999999999994
 21
-28.2890000000000015
 31
0.0
  0
LINE
  5
FC
100
AcDbEntity
100
AcDbLine
  8
0
 62
256
370
-1
  6
ByLayer
 10
-47.6099999999999994
 20
-28.2890000000000015
 30
0.0
 11
-47.6739999999999995
 21
-28.2609999999999992
 31
0.0
  0
LINE
  5
FD
100
AcDbEntity
100
AcDbLine
  8
0
 62
256
370
-1
  6
ByLayer
 10
-47.6739999999999995
 20
-28.2609999999999992
 30
0.0
 11
-47.7370000000000019
 21
-28.2289999999999992
 31
0.0
  0
LINE
  5
FE
100
AcDbEntity
100
AcDbLine
  8
0
 62
256
370
-1
  6
ByLayer
 10
-47.7370000000000019
 20
-28.2289999999999992
 30
0.0
 11
-47.796999999999997
 21
-28.1939999999999991
 31
0.0
  0
LINE
  5
FF
100
AcDbEntity
100
AcDbLine
  8
0
 62
256
370
-1
  6
ByLayer
 10
-47.796999999999997
 20
-28.1939999999999991
 30
0.0
 11
-47.8549999999999969
 21
-28.1539999999999999
 31
0.0
  0
LINE
  5
100
100
AcDbEntity
100
AcDbLine
  8
0
 62
256
370
-1
  6
ByLayer
 10
-47.8549999999999969
 20
-28.1539999999999999
 30
0.0
 11
-47.9110000000000014
 21
-28.1110000000000007
 31
0.0
  0
LINE
  5
101
100
AcDbEntity
100
AcDbLine
  8
0
 62
256
370
-1
  6
ByLayer
 10
-47.9110000000000014
 20
-28.1110000000000007
 30
0.0
 11
-47.963000000000001
 21
-28.0650000000000013
 31
0.0
  0
LINE
  5
102
100
AcDbEntity
100
AcDbLine
  8
0
 62
256
370
-1
  6
ByLayer
 10
-47.963000000000001
 20
-28.0650000000000013
 30
0.0
 11
-48.0129999999999981
 21
-28.0150000000000006
 31
0.0
  0
LINE
  5
103
100
AcDbEntity
100
AcDbLine
  8
0
 62
256
370
-1
  6
ByLayer
 10
-48.0129999999999981
 20
-28.0150000000000006
 30
0.0
 11
-48.0600000000000023
 21
-27.9619999999999997
 31
0.0
  0
LINE
  5
104
100
AcDbEntity
100
AcDbLine
  8
0
 62
256
370
-1
  6
ByLayer
 10
-48.0600000000000023
 20
-27.9619999999999997
 30
0.0
 11
-48.1030000000000015
 21
-27.907
 31
0.0
  0
LINE
  5
105
100
AcDbEntity
100
AcDbLine
  8
0
 62
256
370
-1
  6
ByLayer
 10
-48.1030000000000015
 20
-27.907
 30
0.0
 11
-48.142000000000003
 21
-27.8490000000000002
 31
0.0
  0
LINE
  5
106
100
AcDbEntity
100
AcDbLine
  8
0
 62
256
370
-1
  6
ByLayer
 10
-48.142000000000003
 20
-27.8490000000000002
 30
0.0
 11
-48.1779999999999973
 21
-27.7880000000000003
 31
0.0
  0
LINE
  5
107
100
AcDbEntity
100
AcDbLine
  8
0
 62
256
370
-1
  6
ByLayer
 10
-48.1779999999999973
 20
-27.7880000000000003
 30
0.0
 11
-48.2100000000000009
 21
-27.7259999999999991
 31
0.0
  0
LINE
  5
108
100
AcDbEntity
100
AcDbLine
  8
0
 62
256
370
-1
  6
ByLayer
 10
-48.2100000000000009
 20
-27.7259999999999991
 30
0.0
 11
-48.2370000000000019
 21
-27.6610000000000014
 31
0.0
  0
LINE
  5
109
100
AcDbEntity
100
AcDbLine
  8
0
 62
256
370
-1
  6
ByLayer
 10
-48.2370000000000019
 20
-27.6610000000000014
 30
0.0
 11
-48.2610000000000028
 21
-27.5949999999999989
 31
0.0
  0
LINE
  5
10A
100
AcDbEntity
100
AcDbLine
  8
0
 62
256
370
-1
  6
ByLayer
 10
-48.2610000000000028
 20
-27.5949999999999989
 30
0.0
 11
-48.2809999999999988
 21
-27.5279999999999987
 31
0.0
  0
LINE
  5
10B
100
AcDbEntity
100
AcDbLine
  8
0
 62
256
370
-1
  6
ByLayer
 10
-48.2809999999999988
 20
-27.5279999999999987
 30
0.0
 11
-48.2959999999999994
 21
-27.4589999999999996
 31
0.0
  0
LINE
  5
10C
100
AcDbEntity
100
AcDbLine
  8
0
 62
256
370
-1
  6
ByLayer
 10
-48.2959999999999994
 20
-27.4589999999999996
 30
0.0
 11
-48.3070000000000022
 21
-27.3900000000000006
 31
0.0
  0
LINE
  5
10D
100
AcDbEntity
100
AcDbLine
  8
0
 62
256
370
-1
  6
ByLayer
 10
-48.3070000000000022
 20
-27.3900000000000006
 30
0.0
 11
-48.3140000000000001
 21
-27.3200000000000003
 31
0.0
  0
LINE
  5
10E
100
AcDbEntity
100
AcDbLine
  8
0
 62
256
370
-1
  6
ByLayer
 10
-48.3140000000000001
 20
-27.3200000000000003
 30
0.0
 11
-48.3160000000000025
 21
-27.25
 31
0.0
  0
LINE
  5
10F
100
AcDbEntity
100
AcDbLine
  8
0
 62
256
370
-1
  6
ByLayer
 10
-48.3160000000000025
 20
27.25
 30
0.0
 11
-48.3140000000000001
 21
27.3200000000000003
 31
0.0
  0
LINE
  5
110
100
AcDbEntity
100
AcDbLine
  8
0
 62
256
370
-1
  6
ByLayer
 10
-48.3140000000000001
 20
27.3200000000000003
 30
0.0
 11
-48.3070000000000022
 21
27.3900000000000006
 31
0.0
  0
LINE
  5
111
100
AcDbEntity
100
AcDbLine
  8
0
 62
256
370
-1
  6
ByLayer
 10
-48.3070000000000022
 20
27.3900000000000006
 30
0.0
 11
-48.2959999999999994
 21
27.4589999999999996
 31
0.0
  0
LINE
  5
112
100
AcDbEntity
100
AcDbLine
  8
0
 62
256
370
-1
  6
ByLayer
 10
-48.2959999999999994
 20
27.4589999999999996
 30
0.0
 11
-48.2809999999999988
 21
27.5279999999999987
 31
0.0
  0
LINE
  5
113
100
AcDbEntity
100
AcDbLine
  8
0
 62
256
370
-1
  6
ByLayer
 10
-48.2809999999999988
 20
27.5279999999999987
 30
0.0
 11
-48.2610000000000028
 21
27.5949999999999989
 31
0.0
  0
LINE
  5
114
100
AcDbEntity
100
AcDbLine
  8
0
 62
256
370
-1
  6
ByLayer
 10
-48.2610000000000028
 20
27.5949999999999989
 30
0.0
 11
-48.2370000000000019
 21
27.6610000000000014
 31
0.0
  0
LINE
  5
115
100
AcDbEntity
100
AcDbLine
  8
0
 62
256
370
-1
  6
ByLayer
 10
-48.2370000000000019
 20
27.6610000000000014
 30
0.0
 11
-48.2100000000000009
 21
27.7259999999999991
 31
0.0
  0
LINE
  5
116
100
AcDbEntity
100
AcDbLine
  8
0
 62
256
370
-1
  6
ByLayer
 10
-48.2100000000000009
 20
27.7259999999999991
 30
0.0
 11
-48.1779999999999973
 21
27.7880000000000003
 31
0.0
  0
LINE
  5
117
100
AcDbEntity
100
AcDbLine
  8
0
 62
256
370
-1
  6
ByLayer
 10
-48.1779999999999973
 20
27.7880000000000003
 30
0.0
 11
-48.142000000000003
 21
27.8490000000000002
 31
0.0
  0
LINE
  5
118
100
AcDbEntity
100
AcDbLine
  8
0
 62
256
370
-1
  6
ByLayer
 10
-48.142000000000003
 20
27.8490000000000002
 30
0.0
 11
-48.1030000000000015
 21
27.907
 31
0.0
  0
LINE
  5
119
100
AcDbEntity
100
AcDbLine
  8
0
 62
256
370
-1
  6
ByLayer
 10
-48.1030000000000015
 20
27.907
 30
0.0
 11
-48.0600000000000023
 21
27.9619999999999997
 31
0.0
  0
LINE
  5
11A
100
AcDbEntity
100
AcDbLine
  8
0
 62
256
370
-1
  6
ByLayer
 10
-48.0600000000000023
 20
27.9619999999999997
 30
0.0
 11
-48.0129999999999981
 21
28.0150000000000006
 31
0.0
  0
LINE
  5
11B
100
AcDbEntity
100
AcDbLine
  8
0
 62
256
370
-1
  6
ByLayer
 10
-48.0129999999999981
 20
28.0150000000000006
 30
0.0
 11
-47.963000000000001
 21
28.0650000000000013
 31
0.0
  0
LINE
  5
11C
100
AcDbEntity
100
AcDbLine
  8
0
 62
256
370
-1
  6
ByLayer
 10
-47.963000000000001
 20
28.0650000000000013
 30
0.0
 11
-47.9110000000000014
 21
28.1110000000000007
 31
0.0
  0
LINE
  5
11D
100
AcDbEntity
100
AcDbLine
  8
0
 62
256
370
-1
  6
ByLayer
 10
-47.9110000000000014
 20
28.1110000000000007
 30
0.0
 11
-47.8549999999999969
 21
28.1539999999999999
 31
0.0
  0
LINE
  5
11E
100
AcDbEntity
100
AcDbLine
  8
0
 62
256
370
-1
  6
ByLayer
 10
-47.8549999999999969
 20
28.1539999999999999
 30
0.0
 11
-47.796999999999997
 21
28.1939999999999991
 31
0.0
  0
LINE
  5
11F
100
AcDbEntity
100
AcDbLine
  8
0
 62
256
370
-1
  6
ByLayer
 10
-47.796999999999997
 20
28.1939999999999991
 30
0.0
 11
-47.7370000000000019
 21
28.2289999999999992
 31
0.0
  0
LINE
  5
120
100
AcDbEntity
100
AcDbLine
  8
0
 62
256
370
-1
  6
ByLayer
 10
-47.7370000000000019
 20
28.2289999999999992
 30
0.0
 11
-47.6739999999999995
 21
28.2609999999999992
 31
0.0
  0
LINE
  5
121
100
AcDbEntity
100
AcDbLine
  8
0
 62
256
370
-1
  6
ByLayer
 10
-47.6739999999999995
 20
28.2609999999999992
 30
0.0
 11
-47.6099999999999994
 21
28.2890000000000015
 31
0.0
  0
LINE
  5
122
100
AcDbEntity
100
AcDbLine
  8
0
 62
256
370
-1
  6
ByLayer
 10
-47.6099999999999994
 20
28.2890000000000015
 30
0.0
 11
-47.5439999999999969
 21
28.3129999999999988
 31
0.0
  0
LINE
  5
123
100
AcDbEntity
100
AcDbLine
  8
0
 62
256
370
-1
  6
ByLayer
 10
-47.5439999999999969
 20
28.3129999999999988
 30
0.0
 11
-47.4759999999999991
 21
28.3320000000000007
 31
0.0
  0
LINE
  5
124
100
AcDbEntity
100
AcDbLine
  8
0
 62
256
370
-1
  6
ByLayer
 10
-47.4759999999999991
 20
28.3320000000000007
 30
0.0
 11
-47.4080000000000013
 21
28.347999999999999
 31
0.0
  0
LINE
  5
125
100
AcDbEntity
100
AcDbLine
  8
0
 62
256
370
-1
  6
ByLayer
 10
-47.4080000000000013
 20
28.347999999999999
 30
0.0
 11
-47.338000000000001
 21
28.3590000000000018
 31
0.0
  0
LINE
  5
126
100
AcDbEntity
100
AcDbLine
  8
0
 62
256
370
-1
  6
ByLayer
 10
-47.338000000000001
 20
28.3590000000000018
 30
0.0
 11
-47.2689999999999984
 21
28.3649999999999984
 31
0.0
  0
LINE
  5
127
100
AcDbEntity
100
AcDbLine
  8
0
 62
256
370
-1
  6
ByLayer
 10
-47.2689999999999984
 20
28.3649999999999984
 30
0.0
 11
-47.1980000000000004
 21
28.3679999999999986
 31
0.0
  0
LINE
  5
128
100
AcDbEntity
100
AcDbLine
  8
0
 62
256
370
-1
  6
ByLayer
 10
-47.1980000000000004
 20
28.3679999999999986
 30
0.0
 11
-47.1280000000000001
 21
28.3649999999999984
 31
0.0
  0
LINE
  5
129
100
AcDbEntity
100
AcDbLine
  8
0
 62
256
370
-1
  6
ByLayer
 10
-47.1280000000000001
 20
28.3649999999999984
 30
0.0
 11
-47.0579999999999998
 21
28.3590000000000018
 31
0.0
  0
LINE
  5
12A
100
AcDbEntity
100
AcDbLine
  8
0
 62
256
370
-1
  6
ByLayer
 10
-47.0579999999999998
 20
28.3590000000000018
 30
0.0
 11
-46.9889999999999972
 21
28.347999999999999
 31
0.0
  0
LINE
  5
12B
100
AcDbEntity
100
AcDbLine
  8
0
 62
256
370
-1
  6
ByLayer
 10
-46.9889999999999972
 20
28.347999999999999
 30
0.0
 11
-46.9200000000000017
 21
28.3320000000000007
 31
0.0
  0
LINE
  5
12C
100
AcDbEntity
100
AcDbLine
  8
0
 62
256
370
-1
  6
ByLayer
 10
-46.9200000000000017
 20
28.3320000000000007
 30
0.0
 11
-46.8530000000000015
 21
28.3129999999999988
 31
0.0
  0
LINE
  5
12D
100
AcDbEntity
100
AcDbLine
  8
0
 62
256
370
-1
  6
ByLayer
 10
-46.8530000000000015
 20
28.3129999999999988
 30
0.0
 11
-46.786999999999999
 21
28.2890000000000015
 31
0.0
  0
LINE
  5
12E
100
AcDbEntity
100
AcDbLine
  8
0
 62
256
370
-1
  6
ByLayer
 10
-46.786999999999999
 20
28.2890000000000015
 30
0.0
 11
-46.722999999999999
 21
28.2609999999999992
 31
0.0
  0
LINE
  5
12F
100
AcDbEntity
100
AcDbLine
  8
0
 62
256
370
-1
  6
ByLayer
 10
-46.722999999999999
 20
28.2609999999999992
 30
0.0
 11
-46.6599999999999966
 21
28.2289999999999992
 31
0.0
  0
LINE
  5
130
100
AcDbEntity
100
AcDbLine
  8
0
 62
256
370
-1
  6
ByLayer
 10
-46.6599999999999966
 20
28.2289999999999992
 30
0.0
 11
-46.6000000000000014
 21
28.1939999999999991
 31
0.0
  0
LINE
  5
131
100
AcDbEntity
100
AcDbLine
  8
0
 62
256
370
-1
  6
ByLayer
 10
-46.6000000000000014
 20
28.1939999999999991
 30
0.0
 11
-46.5409999999999968
 21
28.1539999999999999
 31
0.0
  0
LINE
  5
132
100
AcDbEntity
100
AcDbLine
  8
0
 62
256
370
-1
  6
ByLayer
 10
-46.5409999999999968
 20
28.1539999999999999
 30
0.0
 11
-46.4859999999999971
 21
28.1110000000000007
 31
0.0
  0
LINE
  5
133
100
AcDbEntity
100
AcDbLine
  8
0
 62
256
370
-1
  6
ByLayer
 10
-46.4859999999999971
 20
28.1110000000000007
 30
0.0
 11
-46.4329999999999998
 21
28.0650000000000013
 31
0.0
  0
LINE
  5
134
100
AcDbEntity
100
AcDbLine
  8
0
 62
256
370
-1
  6
ByLayer
 10
-46.4329999999999998
 20
28.0650000000000013
 30
0.0
 11
-46.3840000000000003
 21
28.0150000000000006
 31
0.0
  0
LINE
  5
135
100
AcDbEntity
100
AcDbLine
  8
0
 62
256
370
-1
  6
ByLayer
 10
-46.3840000000000003
 20
28.0150000000000006
 30
0.0
 11
-46.3370000000000033
 21
27.9619999999999997
 31
0.0
  0
LINE
  5
136
100
AcDbEntity
100
AcDbLine
  8
0
 62
256
370
-1
  6
ByLayer
 10
-46.3370000000000033
 20
27.9619999999999997
 30
0.0
 11
-46.2939999999999969
 21
27.907
 31
0.0
  0
LINE
  5
137
100
AcDbEntity
100
AcDbLine
  8
0
 62
256
370
-1
  6
ByLayer
 10
-46.2939999999999969
 20
27.907
 30
0.0
 11
-46.2550000000000026
 21
27.8490000000000002
 31
0.0
  0
LINE
  5
138
100
AcDbEntity
100
AcDbLine
  8
0
 62
256
370
-1
  6
ByLayer
 10
-46.2550000000000026
 20
27.8490000000000002
 30
0.0
 11
-46.2190000000000012
 21
27.7880000000000003
 31
0.0
  0
LINE
  5
139
100
AcDbEntity
100
AcDbLine
  8
0
 62
256
370
-1
  6
ByLayer
 10
-46.2190000000000012
 20
27.7880000000000003
 30
0.0
 11
-46.1869999999999976
 21
27.7259999999999991
 31
0.0
  0
LINE
  5
13A
100
AcDbEntity
100
AcDbLine
  8
0
 62
256
370
-1
  6
ByLayer
 10
-46.1869999999999976
 20
27.7259999999999991
 30
0.0
 11
-46.1589999999999989
 21
27.6610000000000014
 31
0.0
  0
LINE
  5
13B
100
AcDbEntity
100
AcDbLine
  8
0
 62
256
370
-1
  6
ByLayer
 10
-46.1589999999999989
 20
27.6610000000000014
 30
0.0
 11
-46.134999999999998
 21
27.5949999999999989
 31
0.0
  0
LINE
  5
13C
100
AcDbEntity
100
AcDbLine
  8
0
 62
256
370
-1
  6
ByLayer
 10
-46.134999999999998
 20
27.5949999999999989
 30
0.0
 11
-46.1159999999999997
 21
27.5279999999999987
 31
0.0
  0
LINE
  5
13D
100
AcDbEntity
100
AcDbLine
  8
0
 62
256
370
-1
  6
ByLayer
 10
-46.1159999999999997
 20
27.5279999999999987
 30
0.0
 11
-46.1009999999999991
 21
27.4589999999999996
 31
0.0
  0
LINE
  5
13E
100
AcDbEntity
100
AcDbLine
  8
0
 62
256
370
-1
  6
ByLayer
 10
-46.1009999999999991
 20
27.4589999999999996
 30
0.0
 11
-46.0900000000000034
 21
27.3900000000000006
 31
0.0
  0
LINE
  5
13F
100
AcDbEntity
100
AcDbLine
  8
0
 62
256
370
-1
  6
ByLayer
 10
-46.0900000000000034
 20
27.3900000000000006
 30
0.0
 11
-46.0829999999999984
 21
27.3200000000000003
 31
0.0
  0
LINE
  5
140
100
AcDbEntity
100
AcDbLine
  8
0
 62
256
370
-1
  6
ByLayer
 10
-46.0829999999999984
 20
27.3200000000000003
 30
0.0
 11
-46.0810000000000031
 21
27.25
 31
0.0
  0
LINE
  5
141
100
AcDbEntity
100
AcDbLine
  8
0
 62
256
370
-1
  6
ByLayer
 10
-46.0810000000000031
 20
27.25
 30
0.0
 11
-46.0829999999999984
 21
27.1799999999999997
 31
0.0
  0
LINE
  5
142
100
AcDbEntity
100
AcDbLine
  8
0
 62
256
370
-1
  6
ByLayer
 10
-46.0829999999999984
 20
27.1799999999999997
 30
0.0
 11
-46.0900000000000034
 21
27.1099999999999994
 31
0.0
  0
LINE
  5
143
100
AcDbEntity
100
AcDbLine
  8
0
 62
256
370
-1
  6
ByLayer
 10
-46.0900000000000034
 20
27.1099999999999994
 30
0.0
 11
-46.1009999999999991
 21
27.0410000000000004
 31
0.0
  0
LINE
  5
144
100
AcDbEntity
100
AcDbLine
  8
0
 62
256
370
-1
  6
ByLayer
 10
-46.1009999999999991
 20
27.0410000000000004
 30
0.0
 11
-46.1159999999999997
 21
26.9720000000000013
 31
0.0
  0
LINE
  5
145
100
AcDbEntity
100
AcDbLine
  8
0
 62
256
370
-1
  6
ByLayer
 10
-46.1159999999999997
 20
26.9720000000000013
 30
0.0
 11
-46.134999999999998
 21
26.9050000000000011
 31
0.0
  0
LINE
  5
146
100
AcDbEntity
100
AcDbLine
  8
0
 62
256
370
-1
  6
ByLayer
 10
-46.134999999999998
 20
26.9050000000000011
 30
0.0
 11
-46.1589999999999989
 21
26.8389999999999986
 31
0.0
  0
LINE
  5
147
100
AcDbEntity
100
AcDbLine
  8
0
 62
256
370
-1
  6
ByLayer
 10
-46.1589999999999989
 20
26.8389999999999986
 30
0.0
 11
-46.1869999999999976
 21
26.7740000000000009
 31
0.0
  0
LINE
  5
148
100
AcDbEntity
100
AcDbLine
  8
0
 62
256
370
-1
  6
ByLayer
 10
-46.1869999999999976
 20
26.7740000000000009
 30
0.0
 11
-46.2190000000000012
 21
26.7119999999999997
 31
0.0
  0
LINE
  5
149
100
AcDbEntity
100
AcDbLine
  8
0
 62
256
370
-1
  6
ByLayer
 10
-46.2190000000000012
 20
26.7119999999999997
 30
0.0
 11
-46.2550000000000026
 21
26.6509999999999998
 31
0.0
  0
LINE
  5
14A
100
AcDbEntity
100
AcDbLine
  8
0
 62
256
370
-1
  6
ByLayer
 10
-46.2550000000000026
 20
26.6509999999999998
 30
0.0
 11
-46.2939999999999969
 21
26.593
 31
0.0
  0
LINE
  5
14B
100
AcDbEntity
100
AcDbLine
  8
0
 62
256
370
-1
  6
ByLayer
 10
-46.2939999999999969
 20
26.593
 30
0.0
 11
-46.3370000000000033
 21
26.5380000000000003
 31
0.0
  0
LINE
  5
14C
100
AcDbEntity
100
AcDbLine
  8
0
 62
256
370
-1
  6
ByLayer
 10
-46.3370000000000033
 20
26.5380000000000003
 30
0.0
 11
-46.3840000000000003
 21
26.4849999999999994
 31
0.0
  0
LINE
  5
14D
100
AcDbEntity
100
AcDbLine
  8
0
 62
256
370
-1
  6
ByLayer
 10
-46.3840000000000003
 20
26.4849999999999994
 30
0.0
 11
-46.4329999999999998
 21
26.4349999999999987
 31
0.0
  0
LINE
  5
14E
100
AcDbEntity
100
AcDbLine
  8
0
 62
256
370
-1
  6
ByLayer
 10
-46.4329999999999998
 20
26.4349999999999987
 30
0.0
 11
-46.4859999999999971
 21
26.3889999999999993
 31
0.0
  0
LINE
  5
14F
100
AcDbEntity
100
AcDbLine
  8
0
 62
256
370
-1
  6
ByLayer
 10
-46.4859999999999971
 20
26.3889999999999993
 30
0.0
 11
-46.5409999999999968
 21
26.3460000000000001
 31
0.0
  0
LINE
  5
150
100
AcDbEntity
100
AcDbLine
  8
0
 62
256
370
-1
  6
ByLayer
 10
-46.5409999999999968
 20
26.3460000000000001
 30
0.0
 11
-46.6000000000000014
 21
26.3060000000000009
 31
0.0
  0
LINE
  5
151
100
AcDbEntity
100
AcDbLine
  8
0
 62
256
370
-1
  6
ByLayer
 10
-46.6000000000000014
 20
26.3060000000000009
 30
0.0
 11
-46.6599999999999966
 21
26.2710000000000008
 31
0.0
  0
LINE
  5
152
100
AcDbEntity
100
AcDbLine
  8
0
 62
256
370
-1
  6
ByLayer
 10
-46.6599999999999966
 20
26.2710000000000008
 30
0.0
 11
-46.722999999999999
 21
26.2390000000000008
 31
0.0
  0
LINE
  5
153
100
AcDbEntity
100
AcDbLine
  8
0
 62
256
370
-1
  6
ByLayer
 10
-46.722999999999999
 20
26.2390000000000008
 30
0.0
 11
-46.786999999999999
 21
26.2109999999999985
 31
0.0
  0
LINE
  5
154
100
AcDbEntity
100
AcDbLine
  8
0
 62
256
370
-1
  6
ByLayer
 10
-46.786999999999999
 20
26.2109999999999985
 30
0.0
 11
-46.8530000000000015
 21
26.1870000000000012
 31
0.0
  0
LINE
  5
155
100
AcDbEntity
100
AcDbLine
  8
0
 62
256
370
-1
  6
ByLayer
 10
-46.8530000000000015
 20
26.1870000000000012
 30
0.0
 11
-46.9200000000000017
 21
26.1679999999999993
 31
0.0
  0
LINE
  5
156
100
AcDbEntity
100
AcDbLine
  8
0
 62
256
370
-1
  6
ByLayer
 10
-46.9200000000000017
 20
26.1679999999999993
 30
0.0
 11
-46.9889999999999972
 21
26.152000000000001
 31
0.0
  0
LINE
  5
157
100
AcDbEntity
100
AcDbLine
  8
0
 62
256
370
-1
  6
ByLayer
 10
-46.9889999999999972
 20
26.152000000000001
 30
0.0
 11
-47.0579999999999998
 21
26.1409999999999982
 31
0.0
  0
LINE
  5
158
100
AcDbEntity
100
AcDbLine
  8
0
 62
256
370
-1
  6
ByLayer
 10
-47.0579999999999998
 20
26.1409999999999982
 30
0.0
 11
-47.1280000000000001
 21
26.1350000000000016
 31
0.0
  0
LINE
  5
159
100
AcDbEntity
100
AcDbLine
  8
0
 62
256
370
-1
  6
ByLayer
 10
-47.1280000000000001
 20
26.1350000000000016
 30
0.0
 11
-47.1980000000000004
 21
26.1320000000000014
 31
0.0
  0
LINE
  5
15A
100
AcDbEntity
100
AcDbLine
  8
0
 62
256
370
-1
  6
ByLayer
 10
-47.1980000000000004
 20
26.1320000000000014
 30
0.0
 11
-47.2689999999999984
 21
26.1350000000000016
 31
0.0
  0
LINE
  5
15B
100
AcDbEntity
100
AcDbLine
  8
0
 62
256
370
-1
  6
ByLayer
 10
-47.2689999999999984
 20
26.1350000000000016
 30
0.0
 11
-47.338000000000001
 21
26.1409999999999982
 31
0.0
  0
LINE
  5
15C
100
AcDbEntity
100
AcDbLine
  8
0
 62
256
370
-1
  6
ByLayer
 10
-47.338000000000001
 20
26.1409999999999982
 30
0.0
 11
-47.4080000000000013
 21
26.152000000000001
 31
0.0
  0
LINE
  5
15D
100
AcDbEntity
100
AcDbLine
  8
0
 62
256
370
-1
  6
ByLayer
 10
-47.4080000000000013
 20
26.152000000000001
 30
0.0
 11
-47.4759999999999991
 21
26.1679999999999993
 31
0.0
  0
LINE
  5
15E
100
AcDbEntity
100
AcDbLine
  8
0
 62
256
370
-1
  6
ByLayer
 10
-47.4759999999999991
 20
26.1679999999999993
 30
0.0
 11
-47.5439999999999969
 21
26.1870000000000012
 31
0.0
  0
LINE
  5
15F
100
AcDbEntity
100
AcDbLine
  8
0
 62
256
370
-1
  6
ByLayer
 10
-47.5439999999999969
 20
26.1870000000000012
 30
0.0
 11
-47.6099999999999994
 21
26.2109999999999985
 31
0.0
  0
LINE
  5
160
100
AcDbEntity
100
AcDbLine
  8
0
 62
256
370
-1
  6
ByLayer
 10
-47.6099999999999994
 20
26.2109999999999985
 30
0.0
 11
-47.6739999999999995
 21
26.2390000000000008
 31
0.0
  0
LINE
  5
161
100
AcDbEntity
100
AcDbLine
  8
0
 62
256
370
-1
  6
ByLayer
 10
-47.6739999999999995
 20
26.2390000000000008
 30
0.0
 11
-47.7370000000000019
 21
26.2710000000000008
 31
0.0
  0
LINE
  5
162
100
AcDbEntity
100
AcDbLine
  8
0
 62
256
370
-1
  6
ByLayer
 10
-47.7370000000000019
 20
26.2710000000000008
 30
0.0
 11
-47.796999999999997
 21
26.3060000000000009
 31
0.0
  0
LINE
  5
163
100
AcDbEntity
100
AcDbLine
  8
0
 62
256
370
-1
  6
ByLayer
 10
-47.796999999999997
 20
26.3060000000000009
 30
0.0
 11
-47.8549999999999969
 21
26.3460000000000001
 31
0.0
  0
LINE
  5
164
100
AcDbEntity
100
AcDbLine
  8
0
 62
256
370
-1
  6
ByLayer
 10
-47.8549999999999969
 20
26.3460000000000001
 30
0.0
 11
-47.9110000000000014
 21
26.3889999999999993
 31
0.0
  0
LINE
  5
165
100
AcDbEntity
100
AcDbLine
  8
0
 62
256
370
-1
  6
ByLayer
 10
-47.9110000000000014
 20
26.3889999999999993
 30
0.0
 11
-47.963000000000001
 21
26.4349999999999987
 31
0.0
  0
LINE
  5
166
100
AcDbEntity
100
AcDbLine
  8
0
 62
256
370
-1
  6
ByLayer
 10
-47.963000000000001
 20
26.4349999999999987
 30
0.0
 11
-48.0129999999999981
 21
26.4849999999999994
 31
0.0
  0
LINE
  5
167
100
AcDbEntity
100
AcDbLine
  8
0
 62
256
370
-1
  6
ByLayer
 10
-48.0129999999999981
 20
26.4849999999999994
 30
0.0
 11
-48.0600000000000023
 21
26.5380000000000003
 31
0.0
  0
LINE
  5
168
100
AcDbEntity
100
AcDbLine
  8
0
 62
256
370
-1
  6
ByLayer
 10
-48.0600000000000023
 20
26.5380000000000003
 30
0.0
 11
-48.1030000000000015
 21
26.593
 31
0.0
  0
LINE
  5
169
100
AcDbEntity
100
AcDbLine
  8
0
 62
256
370
-1
  6
ByLayer
 10
-48.1030000000000015
 20
26.593
 30
0.0
 11
-48.142000000000003
 21
26.6509999999999998
 31
0.0
  0
LINE
  5
16A
100
AcDbEntity
100
AcDbLine
  8
0
 62
256
370
-1
  6
ByLayer
 10
-48.142000000000003
 20
26.6509999999999998
 30
0.0
 11
-48.1779999999999973
 21
26.7119999999999997
 31
0.0
  0
LINE
  5
16B
100
AcDbEntity
100
AcDbLine
  8
0
 62
256
370
-1
  6
ByLayer
 10
-48.1779999999999973
 20
26.7119999999999997
 30
0.0
 11
-48.2100000000000009
 21
26.7740000000000009
 31
0.0
  0
LINE
  5
16C
100
AcDbEntity
100
AcDbLine
  8
0
 62
256
370
-1
  6
ByLayer
 10
-48.2100000000000009
 20
26.7740000000000009
 30
0.0
 11
-48.2370000000000019
 21
26.8389999999999986
 31
0.0
  0
LINE
  5
16D
100
AcDbEntity
100
AcDbLine
  8
0
 62
256
370
-1
  6
ByLayer
 10
-48.2370000000000019
 20
26.8389999999999986
 30
0.0
 11
-48.2610000000000028
 21
26.9050000000000011
 31
0.0
  0
LINE
  5
16E
100
AcDbEntity
100
AcDbLine
  8
0
 62
256
370
-1
  6
ByLayer
 10
-48.2610000000000028
 20
26.9050000000000011
 30
0.0
 11
-48.2809999999999988
 21
26.9720000000000013
 31
0.0
  0
LINE
  5
16F
100
AcDbEntity
100
AcDbLine
  8
0
 62
256
370
-1
  6
ByLayer
 10
-48.2809999999999988
 20
26.9720000000000013
 30
0.0
 11
-48.2959999999999994
 21
27.0410000000000004
 31
0.0
  0
LINE
  5
170
100
AcDbEntity
100
AcDbLine
  8
0
 62
256
370
-1
  6
ByLayer
 10
-48.2959999999999994
 20
27.0410000000000004
 30
0.0
 11
-48.3070000000000022
 21
27.1099999999999994
 31
0.0
  0
LINE
  5
171
100
AcDbEntity
100
AcDbLine
  8
0
 62
256
370
-1
  6
ByLayer
 10
-48.3070000000000022
 20
27.1099999999999994
 30
0.0
 11
-48.3140000000000001
 21
27.1799999999999997
 31
0.0
  0
LINE
  5
172
100
AcDbEntity
100
AcDbLine
  8
0
 62
256
370
-1
  6
ByLayer
 10
-48.3140000000000001
 20
27.1799999999999997
 30
0.0
 11
-48.3160000000000025
 21
27.25
 31
0.0
  0
LINE
  5
173
100
AcDbEntity
100
AcDbLine
  8
0
 62
256
370
-1
  6
ByLayer
 10
-1.1180000000000001
 20
-54.5
 30
0.0
 11
-1.115
 21
-54.4299999999999997
 31
0.0
  0
LINE
  5
174
100
AcDbEntity
100
AcDbLine
  8
0
 62
256
370
-1
  6
ByLayer
 10
-1.115
 20
-54.4299999999999997
 30
0.0
 11
-1.109
 21
-54.3599999999999994
 31
0.0
  0
LINE
  5
175
100
AcDbEntity
100
AcDbLine
  8
0
 62
256
370
-1
  6
ByLayer
 10
-1.109
 20
-54.3599999999999994
 30
0.0
 11
-1.0980000000000001
 21
-54.2909999999999968
 31
0.0
  0
LINE
  5
176
100
AcDbEntity
100
AcDbLine
  8
0
 62
256
370
-1
  6
ByLayer
 10
-1.0980000000000001
 20
-54.2909999999999968
 30
0.0
 11
-1.0820000000000001
 21
-54.2220000000000013
 31
0.0
  0
LINE
  5
177
100
AcDbEntity
100
AcDbLine
  8
0
 62
256
370
-1
  6
ByLayer
 10
-1.0820000000000001
 20
-54.2220000000000013
 30
0.0
 11
-1.0629999999999999
 21
-54.1550000000000011
 31
0.0
  0
LINE
  5
178
100
AcDbEntity
100
AcDbLine
  8
0
 62
256
370
-1
  6
ByLayer
 10
-1.0629999999999999
 20
-54.1550000000000011
 30
0.0
 11
-1.0389999999999999
 21
-54.0889999999999986
 31
0.0
  0
LINE
  5
179
100
AcDbEntity
100
AcDbLine
  8
0
 62
256
370
-1
  6
ByLayer
 10
-1.0389999999999999
 20
-54.0889999999999986
 30
0.0
 11
-1.0109999999999999
 21
-54.0240000000000009
 31
0.0
  0
LINE
  5
17A
100
AcDbEntity
100
AcDbLine
  8
0
 62
256
370
-1
  6
ByLayer
 10
-1.0109999999999999
 20
-54.0240000000000009
 30
0.0
 11
-0.979
 21
-53.9620000000000033
 31
0.0
  0
LINE
  5
17B
100
AcDbEntity
100
AcDbLine
  8
0
 62
256
370
-1
  6
ByLayer
 10
-0.979
 20
-53.9620000000000033
 30
0.0
 11
-0.944
 21
-53.9010000000000034
 31
0.0
  0
LINE
  5
17C
100
AcDbEntity
100
AcDbLine
  8
0
 62
256
370
-1
  6
ByLayer
 10
-0.944
 20
-53.9010000000000034
 30
0.0
 11
-0.904
 21
-53.8430000000000035
 31
0.0
  0
LINE
  5
17D
100
AcDbEntity
100
AcDbLine
  8
0
 62
256
370
-1
  6
ByLayer
 10
-0.904
 20
-53.8430000000000035
 30
0.0
 11
-0.861
 21
-53.7879999999999967
 31
0.0
  0
LINE
  5
17E
100
AcDbEntity
100
AcDbLine
  8
0
 62
256
370
-1
  6
ByLayer
 10
-0.861
 20
-53.7879999999999967
 30
0.0
 11
-0.8149999999999999
 21
-53.7349999999999994
 31
0.0
  0
LINE
  5
17F
100
AcDbEntity
100
AcDbLine
  8
0
 62
256
370
-1
  6
ByLayer
 10
-0.8149999999999999
 20
-53.7349999999999994
 30
0.0
 11
-0.765
 21
-53.6850000000000023
 31
0.0
  0
LINE
  5
180
100
AcDbEntity
100
AcDbLine
  8
0
 62
256
370
-1
  6
ByLayer
 10
-0.765
 20
-53.6850000000000023
 30
0.0
 11
-0.712
 21
-53.6390000000000029
 31
0.0
  0
LINE
  5
181
100
AcDbEntity
100
AcDbLine
  8
0
 62
256
370
-1
  6
ByLayer
 10
-0.712
 20
-53.6390000000000029
 30
0.0
 11
-0.657
 21
-53.5959999999999965
 31
0.0
  0
LINE
  5
182
100
AcDbEntity
100
AcDbLine
  8
0
 62
256
370
-1
  6
ByLayer
 10
-0.657
 20
-53.5959999999999965
 30
0.0
 11
-0.599
 21
-53.5559999999999974
 31
0.0
  0
LINE
  5
183
100
AcDbEntity
100
AcDbLine
  8
0
 62
256
370
-1
  6
ByLayer
 10
-0.599
 20
-53.5559999999999974
 30
0.0
 11
-0.538
 21
-53.5210000000000008
 31
0.0
  0
LINE
  5
184
100
AcDbEntity
100
AcDbLine
  8
0
 62
256
370
-1
  6
ByLayer
 10
-0.538
 20
-53.5210000000000008
 30
0.0
 11
-0.476
 21
-53.4889999999999972
 31
0.0
  0
LINE
  5
185
100
AcDbEntity
100
AcDbLine
  8
0
 62
256
370
-1
  6
ByLayer
 10
-0.476
 20
-53.4889999999999972
 30
0.0
 11
-0.411
 21
-53.4609999999999985
 31
0.0
  0
LINE
  5
186
100
AcDbEntity
100
AcDbLine
  8
0
 62
256
370
-1
  6
ByLayer
 10
-0.411
 20
-53.4609999999999985
 30
0.0
 11
-0.345
 21
-53.4369999999999976
 31
0.0
  0
LINE
  5
187
100
AcDbEntity
100
AcDbLine
  8
0
 62
256
370
-1
  6
ByLayer
 10
-0.345
 20
-53.4369999999999976
 30
0.0
 11
-0.278
 21
-53.4179999999999993
 31
0.0
  0
LINE
  5
188
100
AcDbEntity
100
AcDbLine
  8
0
 62
256
370
-1
  6
ByLayer
 10
-0.278
 20
-53.4179999999999993
 30
0.0
 11
-0.209
 21
-53.402000000000001
 31
0.0
  0
LINE
  5
189
100
AcDbEntity
100
AcDbLine
  8
0
 62
256
370
-1
  6
ByLayer
 10
-0.209
 20
-53.402000000000001
 30
0.0
 11
-0.14
 21
-53.3909999999999982
 31
0.0
  0
LINE
  5
18A
100
AcDbEntity
100
AcDbLine
  8
0
 62
256
370
-1
  6
ByLayer
 10
-0.14
 20
-53.3909999999999982
 30
0.0
 11
-0.07
 21
-53.384999999999998
 31
0.0
  0
LINE
  5
18B
100
AcDbEntity
100
AcDbLine
  8
0
 62
256
370
-1
  6
ByLayer
 10
-0.07
 20
-53.384999999999998
 30
0.0
 11
0.0
 21
-53.3819999999999979
 31
0.0
  0
LINE
  5
18C
100
AcDbEntity
100
AcDbLine
  8
0
 62
256
370
-1
  6
ByLayer
 10
0.0
 20
-53.3819999999999979
 30
0.0
 11
0.07
 21
-53.384999999999998
 31
0.0
  0
LINE
  5
18D
100
AcDbEntity
100
AcDbLine
  8
0
 62
256
370
-1
  6
ByLayer
 10
0.07
 20
-53.384999999999998
 30
0.0
 11
0.14
 21
-53.3909999999999982
 31
0.0
  0
LINE
  5
18E
100
AcDbEntity
100
AcDbLine
  8
0
 62
256
370
-1
  6
ByLayer
 10
0.14
 20
-53.3909999999999982
 30
0.0
 11
0.209
 21
-53.402000000000001
 31
0.0
  0
LINE
  5
18F
100
AcDbEntity
100
AcDbLine
  8
0
 62
256
370
-1
  6
ByLayer
 10
0.209
 20
-53.402000000000001
 30
0.0
 11
0.278
 21
-53.4179999999999993
 31
0.0
  0
LINE
  5
190
100
AcDbEntity
100
AcDbLine
  8
0
 62
256
370
-1
  6
ByLayer
 10
0.278
 20
-53.4179999999999993
 30
0.0
 11
0.345
 21
-53.4369999999999976
 31
0.0
  0
LINE
  5
191
100
AcDbEntity
100
AcDbLine
  8
0
 62
256
370
-1
  6
ByLayer
 10
0.345
 20
-53.4369999999999976
 30
0.0
 11
0.411
 21
-53.4609999999999985
 31
0.0
  0
LINE
  5
192
100
AcDbEntity
100
AcDbLine
  8
0
 62
256
370
-1
  6
ByLayer
 10
0.411
 20
-53.4609999999999985
 30
0.0
 11
0.476
 21
-53.4889999999999972
 31
0.0
  0
LINE
  5
193
100
AcDbEntity
100
AcDbLine
  8
0
 62
256
370
-1
  6
ByLayer
 10
0.476
 20
-53.4889999999999972
 30
0.0
 11
0.538
 21
-53.5210000000000008
 31
0.0
  0
LINE
  5
194
100
AcDbEntity
100
AcDbLine
  8
0
 62
256
370
-1
  6
ByLayer
 10
0.538
 20
-53.5210000000000008
 30
0.0
 11
0.599
 21
-53.5559999999999974
 31
0.0
  0
LINE
  5
195
100
AcDbEntity
100
AcDbLine
  8
0
 62
256
370
-1
  6
ByLayer
 10
0.599
 20
-53.5559999999999974
 30
0.0
 11
0.657
 21
-53.5959999999999965
 31
0.0
  0
LINE
  5
196
100
AcDbEntity
100
AcDbLine
  8
0
 62
256
370
-1
  6
ByLayer
 10
0.657
 20
-53.5959999999999965
 30
0.0
 11
0.712
 21
-53.6390000000000029
 31
0.0
  0
LINE
  5
197
100
AcDbEntity
100
AcDbLine
  8
0
 62
256
370
-1
  6
ByLayer
 10
0.712
 20
-53.6390000000000029
 30
0.0
 11
0.765
 21
-53.6850000000000023
 31
0.0
  0
LINE
  5
198
100
AcDbEntity
100
AcDbLine
  8
0
 62
256
370
-1
  6
ByLayer
 10
0.765
 20
-53.6850000000000023
 30
0.0
 11
0.8149999999999999
 21
-53.7349999999999994
 31
0.0
  0
LINE
  5
199
100
AcDbEntity
100
AcDbLine
  8
0
 62
256
370
-1
  6
ByLayer
 10
0.8149999999999999
 20
-53.7349999999999994
 30
0.0
 11
0.861
 21
-53.7879999999999967
 31
0.0
  0
LINE
  5
19A
100
AcDbEntity
100
AcDbLine
  8
0
 62
256
370
-1
  6
ByLayer
 10
0.861
 20
-53.7879999999999967
 30
0.0
 11
0.904
 21
-53.8430000000000035
 31
0.0
  0
LINE
  5
19B
100
AcDbEntity
100
AcDbLine
  8
0
 62
256
370
-1
  6
ByLayer
 10
0.904
 20
-53.8430000000000035
 30
0.0
 11
0.944
 21
-53.9010000000000034
 31
0.0
  0
LINE
  5
19C
100
AcDbEntity
100
AcDbLine
  8
0
 62
256
370
-1
  6
ByLayer
 10
0.944
 20
-53.9010000000000034
 30
0.0
 11
0.979
 21
-53.9620000000000033
 31
0.0
  0
LINE
  5
19D
100
AcDbEntity
100
AcDbLine
  8
0
 62
256
370
-1
  6
ByLayer
 10
0.979
 20
-53.9620000000000033
 30
0.0
 11
1.0109999999999999
 21
-54.0240000000000009
 31
0.0
  0
LINE
  5
19E
100
AcDbEntity
100
AcDbLine
  8
0
 62
256
370
-1
  6
ByLayer
 10
1.0109999999999999
 20
-54.0240000000000009
 30
0.0
 11
1.0389999999999999
 21
-54.0889999999999986
 31
0.0
  0
LINE
  5
19F
100
AcDbEntity
100
AcDbLine
  8
0
 62
256
370
-1
  6
ByLayer
 10
1.0389999999999999
 20
-54.0889999999999986
 30
0.0
 11
1.0629999999999999
 21
-54.1550000000000011
 31
0.0
  0
LINE
  5
1A0
100
AcDbEntity
100
AcDbLine
  8
0
 62
256
370
-1
  6
ByLayer
 10
1.0629999999999999
 20
-54.1550000000000011
 30
0.0
 11
1.0820000000000001
 21
-54.2220000000000013
 31
0.0
  0
LINE
  5
1A1
100
AcDbEntity
100
AcDbLine
  8
0
 62
256
370
-1
  6
ByLayer
 10
1.0820000000000001
 20
-54.2220000000000013
 30
0.0
 11
1.0980000000000001
 21
-54.2909999999999968
 31
0.0
  0
LINE
  5
1A2
100
AcDbEntity
100
AcDbLine
  8
0
 62
256
370
-1
  6
ByLayer
 10
1.0980000000000001
 20
-54.2909999999999968
 30
0.0
 11
1.109
 21
-54.3599999999999994
 31
0.0
  0
LINE
  5
1A3
100
AcDbEntity
100
AcDbLine
  8
0
 62
256
370
-1
  6
ByLayer
 10
1.109
 20
-54.3599999999999994
 30
0.0
 11
1.115
 21
-54.4299999999999997
 31
0.0
  0
LINE
  5
1A4
100
AcDbEntity
100
AcDbLine
  8
0
 62
256
370
-1
  6
ByLayer
 10
1.115
 20
-54.4299999999999997
 30
0.0
 11
1.1180000000000001
 21
-54.5
 31
0.0
  0
LINE
  5
1A5
100
AcDbEntity
100
AcDbLine
  8
0
 62
256
370
-1
  6
ByLayer
 10
1.1180000000000001
 20
-54.5
 30
0.0
 11
1.115
 21
-54.5700000000000003
 31
0.0
  0
LINE
  5
1A6
100
AcDbEntity
100
AcDbLine
  8
0
 62
256
370
-1
  6
ByLayer
 10
1.115
 20
-54.5700000000000003
 30
0.0
 11
1.109
 21
-54.6400000000000006
 31
0.0
  0
LINE
  5
1A7
100
AcDbEntity
100
AcDbLine
  8
0
 62
256
370
-1
  6
ByLayer
 10
1.109
 20
-54.6400000000000006
 30
0.0
 11
1.0980000000000001
 21
-54.7090000000000032
 31
0.0
  0
LINE
  5
1A8
100
AcDbEntity
100
AcDbLine
  8
0
 62
256
370
-1
  6
ByLayer
 10
1.0980000000000001
 20
-54.7090000000000032
 30
0.0
 11
1.0820000000000001
 21
-54.7779999999999987
 31
0.0
  0
LINE
  5
1A9
100
AcDbEntity
100
AcDbLine
  8
0
 62
256
370
-1
  6
ByLayer
 10
1.0820000000000001
 20
-54.7779999999999987
 30
0.0
 11
1.0629999999999999
 21
-54.8449999999999989
 31
0.0
  0
LINE
  5
1AA
100
AcDbEntity
100
AcDbLine
  8
0
 62
256
370
-1
  6
ByLayer
 10
1.0629999999999999
 20
-54.8449999999999989
 30
0.0
 11
1.0389999999999999
 21
-54.9110000000000014
 31
0.0
  0
LINE
  5
1AB
100
AcDbEntity
100
AcDbLine
  8
0
 62
256
370
-1
  6
ByLayer
 10
1.0389999999999999
 20
-54.9110000000000014
 30
0.0
 11
1.0109999999999999
 21
-54.9759999999999991
 31
0.0
  0
LINE
  5
1AC
100
AcDbEntity
100
AcDbLine
  8
0
 62
256
370
-1
  6
ByLayer
 10
1.0109999999999999
 20
-54.9759999999999991
 30
0.0
 11
0.979
 21
-55.0379999999999967
 31
0.0
  0
LINE
  5
1AD
100
AcDbEntity
100
AcDbLine
  8
0
 62
256
370
-1
  6
ByLayer
 10
0.979
 20
-55.0379999999999967
 30
0.0
 11
0.944
 21
-55.0989999999999966
 31
0.0
  0
LINE
  5
1AE
100
AcDbEntity
100
AcDbLine
  8
0
 62
256
370
-1
  6
ByLayer
 10
0.944
 20
-55.0989999999999966
 30
0.0
 11
0.904
 21
-55.1569999999999965
 31
0.0
  0
LINE
  5
1AF
100
AcDbEntity
100
AcDbLine
  8
0
 62
256
370
-1
  6
ByLayer
 10
0.904
 20
-55.1569999999999965
 30
0.0
 11
0.861
 21
-55.2120000000000033
 31
0.0
  0
LINE
  5
1B0
100
AcDbEntity
100
AcDbLine
  8
0
 62
256
370
-1
  6
ByLayer
 10
0.861
 20
-55.2120000000000033
 30
0.0
 11
0.8149999999999999
 21
-55.2650000000000006
 31
0.0
  0
LINE
  5
1B1
100
AcDbEntity
100
AcDbLine
  8
0
 62
256
370
-1
  6
ByLayer
 10
0.8149999999999999
 20
-55.2650000000000006
 30
0.0
 11
0.765
 21
-55.3149999999999977
 31
0.0
  0
LINE
  5
1B2
100
AcDbEntity
100
AcDbLine
  8
0
 62
256
370
-1
  6
ByLayer
 10
0.765
 20
-55.3149999999999977
 30
0.0
 11
0.712
 21
-55.3609999999999971
 31
0.0
  0
LINE
  5
1B3
100
AcDbEntity
100
AcDbLine
  8
0
 62
256
370
-1
  6
ByLayer
 10
0.712
 20
-55.3609999999999971
 30
0.0
 11
0.657
 21
-55.4040000000000035
 31
0.0
  0
LINE
  5
1B4
100
AcDbEntity
100
AcDbLine
  8
0
 62
256
370
-1
  6
ByLayer
 10
0.657
 20
-55.4040000000000035
 30
0.0
 11
0.599
 21
-55.4440000000000026
 31
0.0
  0
LINE
  5
1B5
100
AcDbEntity
100
AcDbLine
  8
0
 62
256
370
-1
  6
ByLayer
 10
0.599
 20
-55.4440000000000026
 30
0.0
 11
0.538
 21
-55.4789999999999992
 31
0.0
  0
LINE
  5
1B6
100
AcDbEntity
100
AcDbLine
  8
0
 62
256
370
-1
  6
ByLayer
 10
0.538
 20
-55.4789999999999992
 30
0.0
 11
0.476
 21
-55.5110000000000028
 31
0.0
  0
LINE
  5
1B7
100
AcDbEntity
100
AcDbLine
  8
0
 62
256
370
-1
  6
ByLayer
 10
0.476
 20
-55.5110000000000028
 30
0.0
 11
0.411
 21
-55.5390000000000015
 31
0.0
  0
LINE
  5
1B8
100
AcDbEntity
100
AcDbLine
  8
0
 62
256
370
-1
  6
ByLayer
 10
0.411
 20
-55.5390000000000015
 30
0.0
 11
0.345
 21
-55.5630000000000024
 31
0.0
  0
LINE
  5
1B9
100
AcDbEntity
100
AcDbLine
  8
0
 62
256
370
-1
  6
ByLayer
 10
0.345
 20
-55.5630000000000024
 30
0.0
 11
0.278
 21
-55.5820000000000007
 31
0.0
  0
LINE
  5
1BA
100
AcDbEntity
100
AcDbLine
  8
0
 62
256
370
-1
  6
ByLayer
 10
0.278
 20
-55.5820000000000007
 30
0.0
 11
0.209
 21
-55.597999999999999
 31
0.0
  0
LINE
  5
1BB
100
AcDbEntity
100
AcDbLine
  8
0
 62
256
370
-1
  6
ByLayer
 10
0.209
 20
-55.597999999999999
 30
0.0
 11
0.14
 21
-55.6090000000000018
 31
0.0
  0
LINE
  5
1BC
100
AcDbEntity
100
AcDbLine
  8
0
 62
256
370
-1
  6
ByLayer
 10
0.14
 20
-55.6090000000000018
 30
0.0
 11
0.07
 21
-55.615000000000002
 31
0.0
  0
LINE
  5
1BD
100
AcDbEntity
100
AcDbLine
  8
0
 62
256
370
-1
  6
ByLayer
 10
0.07
 20
-55.615000000000002
 30
0.0
 11
0.0
 21
-55.6180000000000021
 31
0.0
  0
LINE
  5
1BE
100
AcDbEntity
100
AcDbLine
  8
0
 62
256
370
-1
  6
ByLayer
 10
0.0
 20
-55.6180000000000021
 30
0.0
 11
-0.07
 21
-55.615000000000002
 31
0.0
  0
LINE
  5
1BF
100
AcDbEntity
100
AcDbLine
  8
0
 62
256
370
-1
  6
ByLayer
 10
-0.07
 20
-55.615000000000002
 30
0.0
 11
-0.14
 21
-55.6090000000000018
 31
0.0
  0
LINE
  5
1C0
100
AcDbEntity
100
AcDbLine
  8
0
 62
256
370
-1
  6
ByLayer
 10
-0.14
 20
-55.6090000000000018
 30
0.0
 11
-0.209
 21
-55.597999999999999
 31
0.0
  0
LINE
  5
1C1
100
AcDbEntity
100
AcDbLine
  8
0
 62
256
370
-1
  6
ByLayer
 10
-0.209
 20
-55.597999999999999
 30
0.0
 11
-0.278
 21
-55.5820000000000007
 31
0.0
  0
LINE
  5
1C2
100
AcDbEntity
100
AcDbLine
  8
0
 62
256
370
-1
  6
ByLayer
 10
-0.278
 20
-55.5820000000000007
 30
0.0
 11
-0.345
 21
-55.5630000000000024
 31
0.0
  0
LINE
  5
1C3
100
AcDbEntity
100
AcDbLine
  8
0
 62
256
370
-1
  6
ByLayer
 10
-0.345
 20
-55.5630000000000024
 30
0.0
 11
-0.411
 21
-55.5390000000000015
 31
0.0
  0
LINE
  5
1C4
100
AcDbEntity
100
AcDbLine
  8
0
 62
256
370
-1
  6
ByLayer
 10
-0.411
 20
-55.5390000000000015
 30
0.0
 11
-0.476
 21
-55.5110000000000028
 31
0.0
  0
LINE
  5
1C5
100
AcDbEntity
100
AcDbLine
  8
0
 62
256
370
-1
  6
ByLayer
 10
-0.476
 20
-55.5110000000000028
 30
0.0
 11
-0.538
 21
-55.4789999999999992
 31
0.0
  0
LINE
  5
1C6
100
AcDbEntity
100
AcDbLine
  8
0
 62
256
370
-1
  6
ByLayer
 10
-0.538
 20
-55.4789999999999992
 30
0.0
 11
-0.599
 21
-55.4440000000000026
 31
0.0
  0
LINE
  5
1C7
100
AcDbEntity
100
AcDbLine
  8
0
 62
256
370
-1
  6
ByLayer
 10
-0.599
 20
-55.4440000000000026
 30
0.0
 11
-0.657
 21
-55.4040000000000035
 31
0.0
  0
LINE
  5
1C8
100
AcDbEntity
100
AcDbLine
  8
0
 62
256
370
-1
  6
ByLayer
 10
-0.657
 20
-55.4040000000000035
 30
0.0
 11
-0.712
 21
-55.3609999999999971
 31
0.0
  0
LINE
  5
1C9
100
AcDbEntity
100
AcDbLine
  8
0
 62
256
370
-1
  6
ByLayer
 10
-0.712
 20
-55.3609999999999971
 30
0.0
 11
-0.765
 21
-55.3149999999999977
 31
0.0
  0
LINE
  5
1CA
100
AcDbEntity
100
AcDbLine
  8
0
 62
256
370
-1
  6
ByLayer
 10
-0.765
 20
-55.3149999999999977
 30
0.0
 11
-0.8149999999999999
 21
-55.2650000000000006
 31
0.0
  0
LINE
  5
1CB
100
AcDbEntity
100
AcDbLine
  8
0
 62
256
370
-1
  6
ByLayer
 10
-0.8149999999999999
 20
-55.2650000000000006
 30
0.0
 11
-0.861
 21
-55.2120000000000033
 31
0.0
  0
LINE
  5
1CC
100
AcDbEntity
100
AcDbLine
  8
0
 62
256
370
-1
  6
ByLayer
 10
-0.861
 20
-55.2120000000000033
 30
0.0
 11
-0.904
 21
-55.1569999999999965
 31
0.0
  0
LINE
  5
1CD
100
AcDbEntity
100
AcDbLine
  8
0
 62
256
370
-1
  6
ByLayer
 10
-0.904
 20
-55.1569999999999965
 30
0.0
 11
-0.944
 21
-55.0989999999999966
 31
0.0
  0
LINE
  5
1CE
100
AcDbEntity
100
AcDbLine
  8
0
 62
256
370
-1
  6
ByLayer
 10
-0.944
 20
-55.0989999999999966
 30
0.0
 11
-0.979
 21
-55.0379999999999967
 31
0.0
  0
LINE
  5
1CF
100
AcDbEntity
100
AcDbLine
  8
0
 62
256
370
-1
  6
ByLayer
 10
-0.979
 20
-55.0379999999999967
 30
0.0
 11
-1.0109999999999999
 21
-54.9759999999999991
 31
0.0
  0
LINE
  5
1D0
100
AcDbEntity
100
AcDbLine
  8
0
 62
256
370
-1
  6
ByLayer
 10
-1.0109999999999999
 20
-54.9759999999999991
 30
0.0
 11
-1.0389999999999999
 21
-54.9110000000000014
 31
0.0
  0
LINE
  5
1D1
100
AcDbEntity
100
AcDbLine
  8
0
 62
256
370
-1
  6
ByLayer
 10
-1.0389999999999999
 20
-54.9110000000000014
 30
0.0
 11
-1.0629999999999999
 21
-54.8449999999999989
 31
0.0
  0
LINE
  5
1D2
100
AcDbEntity
100
AcDbLine
  8
0
 62
256
370
-1
  6
ByLayer
 10
-1.0629999999999999
 20
-54.8449999999999989
 30
0.0
 11
-1.0820000000000001
 21
-54.7779999999999987
 31
0.0
  0
LINE
  5
1D3
100
AcDbEntity
100
AcDbLine
  8
0
 62
256
370
-1
  6
ByLayer
 10
-1.0820000000000001
 20
-54.7779999999999987
 30
0.0
 11
-1.0980000000000001
 21
-54.7090000000000032
 31
0.0
  0
LINE
  5
1D4
100
AcDbEntity
100
AcDbLine
  8
0
 62
256
370
-1
  6
ByLayer
 10
-1.0980000000000001
 20
-54.7090000000000032
 30
0.0
 11
-1.109
 21
-54.6400000000000006
 31
0.0
  0
LINE
  5
1D5
100
AcDbEntity
100
AcDbLine
  8
0
 62
256
370
-1
  6
ByLayer
 10
-1.109
 20
-54.6400000000000006
 30
0.0
 11
-1.115
 21
-54.5700000000000003
 31
0.0
  0
LINE
  5
1D6
100
AcDbEntity
100
AcDbLine
  8
0
 62
256
370
-1
  6
ByLayer
 10
-1.115
 20
-54.5700000000000003
 30
0.0
 11
-1.1180000000000001
 21
-54.5
 31
0.0
  0
LINE
  5
1D7
100
AcDbEntity
100
AcDbLine
  8
0
 62
256
370
-1
  6
ByLayer
 10
-1.1180000000000001
 20
54.5
 30
0.0
 11
-1.115
 21
54.5700000000000003
 31
0.0
  0
LINE
  5
1D8
100
AcDbEntity
100
AcDbLine
  8
0
 62
256
370
-1
  6
ByLayer
 10
-1.115
 20
54.5700000000000003
 30
0.0
 11
-1.109
 21
54.6400000000000006
 31
0.0
  0
LINE
  5
1D9
100
AcDbEntity
100
AcDbLine
  8
0
 62
256
370
-1
  6
ByLayer
 10
-1.109
 20
54.6400000000000006
 30
0.0
 11
-1.0980000000000001
 21
54.7090000000000032
 31
0.0
  0
LINE
  5
1DA
100
AcDbEntity
100
AcDbLine
  8
0
 62
256
370
-1
  6
ByLayer
 10
-1.0980000000000001
 20
54.7090000000000032
 30
0.0
 11
-1.0820000000000001
 21
54.7779999999999987
 31
0.0
  0
LINE
  5
1DB
100
AcDbEntity
100
AcDbLine
  8
0
 62
256
370
-1
  6
ByLayer
 10
-1.0820000000000001
 20
54.7779999999999987
 30
0.0
 11
-1.0629999999999999
 21
54.8449999999999989
 31
0.0
  0
LINE
  5
1DC
100
AcDbEntity
100
AcDbLine
  8
0
 62
256
370
-1
  6
ByLayer
 10
-1.0629999999999999
 20
54.8449999999999989
 30
0.0
 11
-1.0389999999999999
 21
54.9110000000000014
 31
0.0
  0
LINE
  5
1DD
100
AcDbEntity
100
AcDbLine
  8
0
 62
256
370
-1
  6
ByLayer
 10
-1.0389999999999999
 20
54.9110000000000014
 30
0.0
 11
-1.0109999999999999
 21
54.9759999999999991
 31
0.0
  0
LINE
  5
1DE
100
AcDbEntity
100
AcDbLine
  8
0
 62
256
370
-1
  6
ByLayer
 10
-1.0109999999999999
 20
54.9759999999999991
 30
0.0
 11
-0.979
 21
55.0379999999999967
 31
0.0
  0
LINE
  5
1DF
100
AcDbEntity
100
AcDbLine
  8
0
 62
256
370
-1
  6
ByLayer
 10
-0.979
 20
55.0379999999999967
 30
0.0
 11
-0.944
 21
55.0989999999999966
 31
0.0
  0
LINE
  5
1E0
100
AcDbEntity
100
AcDbLine
  8
0
 62
256
370
-1
  6
ByLayer
 10
-0.944
 20
55.0989999999999966
 30
0.0
 11
-0.904
 21
55.1569999999999965
 31
0.0
  0
LINE
  5
1E1
100
AcDbEntity
100
AcDbLine
  8
0
 62
256
370
-1
  6
ByLayer
 10
-0.904
 20
55.1569999999999965
 30
0.0
 11
-0.861
 21
55.2120000000000033
 31
0.0
  0
LINE
  5
1E2
100
AcDbEntity
100
AcDbLine
  8
0
 62
256
370
-1
  6
ByLayer
 10
-0.861
 20
55.2120000000000033
 30
0.0
 11
-0.8149999999999999
 21
55.2650000000000006
 31
0.0
  0
LINE
  5
1E3
100
AcDbEntity
100
AcDbLine
  8
0
 62
256
370
-1
  6
ByLayer
 10
-0.8149999999999999
 20
55.2650000000000006
 30
0.0
 11
-0.765
 21
55.3149999999999977
 31
0.0
  0
LINE
  5
1E4
100
AcDbEntity
100
AcDbLine
  8
0
 62
256
370
-1
  6
ByLayer
 10
-0.765
 20
55.3149999999999977
 30
0.0
 11
-0.712
 21
55.3609999999999971
 31
0.0
  0
LINE
  5
1E5
100
AcDbEntity
100
AcDbLine
  8
0
 62
256
370
-1
  6
ByLayer
 10
-0.712
 20
55.3609999999999971
 30
0.0
 11
-0.657
 21
55.4040000000000035
 31
0.0
  0
LINE
  5
1E6
100
AcDbEntity
100
AcDbLine
  8
0
 62
256
370
-1
  6
ByLayer
 10
-0.657
 20
55.4040000000000035
 30
0.0
 11
-0.599
 21
55.4440000000000026
 31
0.0
  0
LINE
  5
1E7
100
AcDbEntity
100
AcDbLine
  8
0
 62
256
370
-1
  6
ByLayer
 10
-0.599
 20
55.4440000000000026
 30
0.0
 11
-0.538
 21
55.4789999999999992
 31
0.0
  0
LINE
  5
1E8
100
AcDbEntity
100
AcDbLine
  8
0
 62
256
370
-1
  6
ByLayer
 10
-0.538
 20
55.4789999999999992
 30
0.0
 11
-0.476
 21
55.5110000000000028
 31
0.0
  0
LINE
  5
1E9
100
AcDbEntity
100
AcDbLine
  8
0
 62
256
370
-1
  6
ByLayer
 10
-0.476
 20
55.5110000000000028
 30
0.0
 11
-0.411
 21
55.5390000000000015
 31
0.0
  0
LINE
  5
1EA
100
AcDbEntity
100
AcDbLine
  8
0
 62
256
370
-1
  6
ByLayer
 10
-0.411
 20
55.5390000000000015
 30
0.0
 11
-0.345
 21
55.5630000000000024
 31
0.0
  0
LINE
  5
1EB
100
AcDbEntity
100
AcDbLine
  8
0
 62
256
370
-1
  6
ByLayer
 10
-0.345
 20
55.5630000000000024
 30
0.0
 11
-0.278
 21
55.5820000000000007
 31
0.0
  0
LINE
  5
1EC
100
AcDbEntity
100
AcDbLine
  8
0
 62
256
370
-1
  6
ByLayer
 10
-0.278
 20
55.5820000000000007
 30
0.0
 11
-0.209
 21
55.597999999999999
 31
0.0
  0
LINE
  5
1ED
100
AcDbEntity
100
AcDbLine
  8
0
 62
256
370
-1
  6
ByLayer
 10
-0.209
 20
55.597999999999999
 30
0.0
 11
-0.14
 21
55.6090000000000018
 31
0.0
  0
LINE
  5
1EE
100
AcDbEntity
100
AcDbLine
  8
0
 62
256
370
-1
  6
ByLayer
 10
-0.14
 20
55.6090000000000018
 30
0.0
 11
-0.07
 21
55.615000000000002
 31
0.0
  0
LINE
  5
1EF
100
AcDbEntity
100
AcDbLine
  8
0
 62
256
370
-1
  6
ByLayer
 10
-0.07
 20
55.615000000000002
 30
0.0
 11
0.0
 21
55.6180000000000021
 31
0.0
  0
LINE
  5
1F0
100
AcDbEntity
100
AcDbLine
  8
0
 62
256
370
-1
  6
ByLayer
 10
0.0
 20
55.6180000000000021
 30
0.0
 11
0.07
 21
55.615000000000002
 31
0.0
  0
LINE
  5
1F1
100
AcDbEntity
100
AcDbLine
  8
0
 62
256
370
-1
  6
ByLayer
 10
0.07
 20
55.615000000000002
 30
0.0
 11
0.14
 21
55.6090000000000018
 31
0.0
  0
LINE
  5
1F2
100
AcDbEntity
100
AcDbLine
  8
0
 62
256
370
-1
  6
ByLayer
 10
0.14
 20
55.6090000000000018
 30
0.0
 11
0.209
 21
55.597999999999999
 31
0.0
  0
LINE
  5
1F3
100
AcDbEntity
100
AcDbLine
  8
0
 62
256
370
-1
  6
ByLayer
 10
0.209
 20
55.597999999999999
 30
0.0
 11
0.278
 21
55.5820000000000007
 31
0.0
  0
LINE
  5
1F4
100
AcDbEntity
100
AcDbLine
  8
0
 62
256
370
-1
  6
ByLayer
 10
0.278
 20
55.5820000000000007
 30
0.0
 11
0.345
 21
55.5630000000000024
 31
0.0
  0
LINE
  5
1F5
100
AcDbEntity
100
AcDbLine
  8
0
 62
256
370
-1
  6
ByLayer
 10
0.345
 20
55.5630000000000024
 30
0.0
 11
0.411
 21
55.5390000000000015
 31
0.0
  0
LINE
  5
1F6
100
AcDbEntity
100
AcDbLine
  8
0
 62
256
370
-1
  6
ByLayer
 10
0.411
 20
55.5390000000000015
 30
0.0
 11
0.476
 21
55.5110000000000028
 31
0.0
  0
LINE
  5
1F7
100
AcDbEntity
100
AcDbLine
  8
0
 62
256
370
-1
  6
ByLayer
 10
0.476
 20
55.5110000000000028
 30
0.0
 11
0.538
 21
55.4789999999999992
 31
0.0
  0
LINE
  5
1F8
100
AcDbEntity
100
AcDbLine
  8
0
 62
256
370
-1
  6
ByLayer
 10
0.538
 20
55.4789999999999992
 30
0.0
 11
0.599
 21
55.4440000000000026
 31
0.0
  0
LINE
  5
1F9
100
AcDbEntity
100
AcDbLine
  8
0
 62
256
370
-1
  6
ByLayer
 10
0.599
 20
55.4440000000000026
 30
0.0
 11
0.657
 21
55.4040000000000035
 31
0.0
  0
LINE
  5
1FA
100
AcDbEntity
100
AcDbLine
  8
0
 62
256
370
-1
  6
ByLayer
 10
0.657
 20
55.4040000000000035
 30
0.0
 11
0.712
 21
55.3609999999999971
 31
0.0
  0
LINE
  5
1FB
100
AcDbEntity
100
AcDbLine
  8
0
 62
256
370
-1
  6
ByLayer
 10
0.712
 20
55.3609999999999971
 30
0.0
 11
0.765
 21
55.3149999999999977
 31
0.0
  0
LINE
  5
1FC
100
AcDbEntity
100
AcDbLine
  8
0
 62
256
370
-1
  6
ByLayer
 10
0.765
 20
55.3149999999999977
 30
0.0
 11
0.8149999999999999
 21
55.2650000000000006
 31
0.0
  0
LINE
  5
1FD
100
AcDbEntity
100
AcDbLine
  8
0
 62
256
370
-1
  6
ByLayer
 10
0.8149999999999999
 20
55.2650000000000006
 30
0.0
 11
0.861
 21
55.2120000000000033
 31
0.0
  0
LINE
  5
1FE
100
AcDbEntity
100
AcDbLine
  8
0
 62
256
370
-1
  6
ByLayer
 10
0.861
 20
55.2120000000000033
 30
0.0
 11
0.904
 21
55.1569999999999965
 31
0.0
  0
LINE
  5
1FF
100
AcDbEntity
100
AcDbLine
  8
0
 62
256
370
-1
  6
ByLayer
 10
0.904
 20
55.1569999999999965
 30
0.0
 11
0.944
 21
55.0989999999999966
 31
0.0
  0
LINE
  5
200
100
AcDbEntity
100
AcDbLine
  8
0
 62
256
370
-1
  6
ByLayer
 10
0.944
 20
55.0989999999999966
 30
0.0
 11
0.979
 21
55.0379999999999967
 31
0.0
  0
LINE
  5
201
100
AcDbEntity
100
AcDbLine
  8
0
 62
256
370
-1
  6
ByLayer
 10
0.979
 20
55.0379999999999967
 30
0.0
 11
1.0109999999999999
 21
54.9759999999999991
 31
0.0
  0
LINE
  5
202
100
AcDbEntity
100
AcDbLine
  8
0
 62
256
370
-1
  6
ByLayer
 10
1.0109999999999999
 20
54.9759999999999991
 30
0.0
 11
1.0389999999999999
 21
54.9110000000000014
 31
0.0
  0
LINE
  5
203
100
AcDbEntity
100
AcDbLine
  8
0
 62
256
370
-1
  6
ByLayer
 10
1.0389999999999999
 20
54.9110000000000014
 30
0.0
 11
1.0629999999999999
 21
54.8449999999999989
 31
0.0
  0
LINE
  5
204
100
AcDbEntity
100
AcDbLine
  8
0
 62
256
370
-1
  6
ByLayer
 10
1.0629999999999999
 20
54.8449999999999989
 30
0.0
 11
1.0820000000000001
 21
54.7779999999999987
 31
0.0
  0
LINE
  5
205
100
AcDbEntity
100
AcDbLine
  8
0
 62
256
370
-1
  6
ByLayer
 10
1.0820000000000001
 20
54.7779999999999987
 30
0.0
 11
1.0980000000000001
 21
54.7090000000000032
 31
0.0
  0
LINE
  5
206
100
AcDbEntity
100
AcDbLine
  8
0
 62
256
370
-1
  6
ByLayer
 10
1.0980000000000001
 20
54.7090000000000032
 30
0.0
 11
1.109
 21
54.6400000000000006
 31
0.0
  0
LINE
  5
207
100
AcDbEntity
100
AcDbLine
  8
0
 62
256
370
-1
  6
ByLayer
 10
1.109
 20
54.6400000000000006
 30
0.0
 11
1.115
 21
54.5700000000000003
 31
0.0
  0
LINE
  5
208
100
AcDbEntity
100
AcDbLine
  8
0
 62
256
370
-1
  6
ByLayer
 10
1.115
 20
54.5700000000000003
 30
0.0
 11
1.1180000000000001
 21
54.5
 31
0.0
  0
LINE
  5
209
100
AcDbEntity
100
AcDbLine
  8
0
 62
256
370
-1
  6
ByLayer
 10
1.1180000000000001
 20
54.5
 30
0.0
 11
1.115
 21
54.4299999999999997
 31
0.0
  0
LINE
  5
20A
100
AcDbEntity
100
AcDbLine
  8
0
 62
256
370
-1
  6
ByLayer
 10
1.115
 20
54.4299999999999997
 30
0.0
 11
1.109
 21
54.3599999999999994
 31
0.0
  0
LINE
  5
20B
100
AcDbEntity
100
AcDbLine
  8
0
 62
256
370
-1
  6
ByLayer
 10
1.109
 20
54.3599999999999994
 30
0.0
 11
1.0980000000000001
 21
54.2909999999999968
 31
0.0
  0
LINE
  5
20C
100
AcDbEntity
100
AcDbLine
  8
0
 62
256
370
-1
  6
ByLayer
 10
1.0980000000000001
 20
54.2909999999999968
 30
0.0
 11
1.0820000000000001
 21
54.2220000000000013
 31
0.0
  0
LINE
  5
20D
100
AcDbEntity
100
AcDbLine
  8
0
 62
256
370
-1
  6
ByLayer
 10
1.0820000000000001
 20
54.2220000000000013
 30
0.0
 11
1.0629999999999999
 21
54.1550000000000011
 31
0.0
  0
LINE
  5
20E
100
AcDbEntity
100
AcDbLine
  8
0
 62
256
370
-1
  6
ByLayer
 10
1.0629999999999999
 20
54.1550000000000011
 30
0.0
 11
1.0389999999999999
 21
54.0889999999999986
 31
0.0
  0
LINE
  5
20F
100
AcDbEntity
100
AcDbLine
  8
0
 62
256
370
-1
  6
ByLayer
 10
1.0389999999999999
 20
54.0889999999999986
 30
0.0
 11
1.0109999999999999
 21
54.0240000000000009
 31
0.0
  0
LINE
  5
210
100
AcDbEntity
100
AcDbLine
  8
0
 62
256
370
-1
  6
ByLayer
 10
1.0109999999999999
 20
54.0240000000000009
 30
0.0
 11
0.979
 21
53.9620000000000033
 31
0.0
  0
LINE
  5
211
100
AcDbEntity
100
AcDbLine
  8
0
 62
256
370
-1
  6
ByLayer
 10
0.979
 20
53.9620000000000033
 30
0.0
 11
0.944
 21
53.9010000000000034
 31
0.0
  0
LINE
  5
212
100
AcDbEntity
100
AcDbLine
  8
0
 62
256
370
-1
  6
ByLayer
 10
0.944
 20
53.9010000000000034
 30
0.0
 11
0.904
 21
53.8430000000000035
 31
0.0
  0
LINE
  5
213
100
AcDbEntity
100
AcDbLine
  8
0
 62
256
370
-1
  6
ByLayer
 10
0.904
 20
53.8430000000000035
 30
0.0
 11
0.861
 21
53.7879999999999967
 31
0.0
  0
LINE
  5
214
100
AcDbEntity
100
AcDbLine
  8
0
 62
256
370
-1
  6
ByLayer
 10
0.861
 20
53.7879999999999967
 30
0.0
 11
0.8149999999999999
 21
53.7349999999999994
 31
0.0
  0
LINE
  5
215
100
AcDbEntity
100
AcDbLine
  8
0
 62
256
370
-1
  6
ByLayer
 10
0.8149999999999999
 20
53.7349999999999994
 30
0.0
 11
0.765
 21
53.6850000000000023
 31
0.0
  0
LINE
  5
216
100
AcDbEntity
100
AcDbLine
  8
0
 62
256
370
-1
  6
ByLayer
 10
0.765
 20
53.6850000000000023
 30
0.0
 11
0.712
 21
53.6390000000000029
 31
0.0
  0
LINE
  5
217
100
AcDbEntity
100
AcDbLine
  8
0
 62
256
370
-1
  6
ByLayer
 10
0.712
 20
53.6390000000000029
 30
0.0
 11
0.657
 21
53.5959999999999965
 31
0.0
  0
LINE
  5
218
100
AcDbEntity
100
AcDbLine
  8
0
 62
256
370
-1
  6
ByLayer
 10
0.657
 20
53.5959999999999965
 30
0.0
 11
0.599
 21
53.5559999999999974
 31
0.0
  0
LINE
  5
219
100
AcDbEntity
100
AcDbLine
  8
0
 62
256
370
-1
  6
ByLayer
 10
0.599
 20
53.5559999999999974
 30
0.0
 11
0.538
 21
53.5210000000000008
 31
0.0
  0
LINE
  5
21A
100
AcDbEntity
100
AcDbLine
  8
0
 62
256
370
-1
  6
ByLayer
 10
0.538
 20
53.5210000000000008
 30
0.0
 11
0.476
 21
53.4889999999999972
 31
0.0
  0
LINE
  5
21B
100
AcDbEntity
100
AcDbLine
  8
0
 62
256
370
-1
  6
ByLayer
 10
0.476
 20
53.4889999999999972
 30
0.0
 11
0.411
 21
53.4609999999999985
 31
0.0
  0
LINE
  5
21C
100
AcDbEntity
100
AcDbLine
  8
0
 62
256
370
-1
  6
ByLayer
 10
0.411
 20
53.4609999999999985
 30
0.0
 11
0.345
 21
53.4369999999999976
 31
0.0
  0
LINE
  5
21D
100
AcDbEntity
100
AcDbLine
  8
0
 62
256
370
-1
  6
ByLayer
 10
0.345
 20
53.4369999999999976
 30
0.0
 11
0.278
 21
53.4179999999999993
 31
0.0
  0
LINE
  5
21E
100
AcDbEntity
100
AcDbLine
  8
0
 62
256
370
-1
  6
ByLayer
 10
0.278
 20
53.4179999999999993
 30
0.0
 11
0.209
 21
53.402000000000001
 31
0.0
  0
LINE
  5
21F
100
AcDbEntity
100
AcDbLine
  8
0
 62
256
370
-1
  6
ByLayer
 10
0.209
 20
53.402000000000001
 30
0.0
 11
0.14
 21
53.3909999999999982
 31
0.0
  0
LINE
  5
220
100
AcDbEntity
100
AcDbLine
  8
0
 62
256
370
-1
  6
ByLayer
 10
0.14
 20
53.3909999999999982
 30
0.0
 11
0.07
 21
53.384999999999998
 31
0.0
  0
LINE
  5
221
100
AcDbEntity
100
AcDbLine
  8
0
 62
256
370
-1
  6
ByLayer
 10
0.07
 20
53.384999999999998
 30
0.0
 11
0.0
 21
53.3819999999999979
 31
0.0
  0
LINE
  5
222
100
AcDbEntity
100
AcDbLine
  8
0
 62
256
370
-1
  6
ByLayer
 10
0.0
 20
53.3819999999999979
 30
0.0
 11
-0.07
 21
53.384999999999998
 31
0.0
  0
LINE
  5
223
100
AcDbEntity
100
AcDbLine
  8
0
 62
256
370
-1
  6
ByLayer
 10
-0.07
 20
53.384999999999998
 30
0.0
 11
-0.14
 21
53.3909999999999982
 31
0.0
  0
LINE
  5
224
100
AcDbEntity
100
AcDbLine
  8
0
 62
256
370
-1
  6
ByLayer
 10
-0.14
 20
53.3909999999999982
 30
0.0
 11
-0.209
 21
53.402000000000001
 31
0.0
  0
LINE
  5
225
100
AcDbEntity
100
AcDbLine
  8
0
 62
256
370
-1
  6
ByLayer
 10
-0.209
 20
53.402000000000001
 30
0.0
 11
-0.278
 21
53.4179999999999993
 31
0.0
  0
LINE
  5
226
100
AcDbEntity
100
AcDbLine
  8
0
 62
256
370
-1
  6
ByLayer
 10
-0.278
 20
53.4179999999999993
 30
0.0
 11
-0.345
 21
53.4369999999999976
 31
0.0
  0
LINE
  5
227
100
AcDbEntity
100
AcDbLine
  8
0
 62
256
370
-1
  6
ByLayer
 10
-0.345
 20
53.4369999999999976
 30
0.0
 11
-0.411
 21
53.4609999999999985
 31
0.0
  0
LINE
  5
228
100
AcDbEntity
100
AcDbLine
  8
0
 62
256
370
-1
  6
ByLayer
 10
-0.411
 20
53.4609999999999985
 30
0.0
 11
-0.476
 21
53.4889999999999972
 31
0.0
  0
LINE
  5
229
100
AcDbEntity
100
AcDbLine
  8
0
 62
256
370
-1
  6
ByLayer
 10
-0.476
 20
53.4889999999999972
 30
0.0
 11
-0.538
 21
53.5210000000000008
 31
0.0
  0
LINE
  5
22A
100
AcDbEntity
100
AcDbLine
  8
0
 62
256
370
-1
  6
ByLayer
 10
-0.538
 20
53.5210000000000008
 30
0.0
 11
-0.599
 21
53.5559999999999974
 31
0.0
  0
LINE
  5
22B
100
AcDbEntity
100
AcDbLine
  8
0
 62
256
370
-1
  6
ByLayer
 10
-0.599
 20
53.5559999999999974
 30
0.0
 11
-0.657
 21
53.5959999999999965
 31
0.0
  0
LINE
  5
22C
100
AcDbEntity
100
AcDbLine
  8
0
 62
256
370
-1
  6
ByLayer
 10
-0.657
 20
53.5959999999999965
 30
0.0
 11
-0.712
 21
53.6390000000000029
 31
0.0
  0
LINE
  5
22D
100
AcDbEntity
100
AcDbLine
  8
0
 62
256
370
-1
  6
ByLayer
 10
-0.712
 20
53.6390000000000029
 30
0.0
 11
-0.765
 21
53.6850000000000023
 31
0.0
  0
LINE
  5
22E
100
AcDbEntity
100
AcDbLine
  8
0
 62
256
370
-1
  6
ByLayer
 10
-0.765
 20
53.6850000000000023
 30
0.0
 11
-0.8149999999999999
 21
53.7349999999999994
 31
0.0
  0
LINE
  5
22F
100
AcDbEntity
100
AcDbLine
  8
0
 62
256
370
-1
  6
ByLayer
 10
-0.8149999999999999
 20
53.7349999999999994
 30
0.0
 11
-0.861
 21
53.7879999999999967
 31
0.0
  0
LINE
  5
230
100
AcDbEntity
100
AcDbLine
  8
0
 62
256
370
-1
  6
ByLayer
 10
-0.861
 20
53.7879999999999967
 30
0.0
 11
-0.904
 21
53.8430000000000035
 31
0.0
  0
LINE
  5
231
100
AcDbEntity
100
AcDbLine
  8
0
 62
256
370
-1
  6
ByLayer
 10
-0.904
 20
53.8430000000000035
 30
0.0
 11
-0.944
 21
53.9010000000000034
 31
0.0
  0
LINE
  5
232
100
AcDbEntity
100
AcDbLine
  8
0
 62
256
370
-1
  6
ByLayer
 10
-0.944
 20
53.9010000000000034
 30
0.0
 11
-0.979
 21
53.9620000000000033
 31
0.0
  0
LINE
  5
233
100
AcDbEntity
100
AcDbLine
  8
0
 62
256
370
-1
  6
ByLayer
 10
-0.979
 20
53.9620000000000033
 30
0.0
 11
-1.0109999999999999
 21
54.0240000000000009
 31
0.0
  0
LINE
  5
234
100
AcDbEntity
100
AcDbLine
  8
0
 62
256
370
-1
  6
ByLayer
 10
-1.0109999999999999
 20
54.0240000000000009
 30
0.0
 11
-1.0389999999999999
 21
54.0889999999999986
 31
0.0
  0
LINE
  5
235
100
AcDbEntity
100
AcDbLine
  8
0
 62
256
370
-1
  6
ByLayer
 10
-1.0389999999999999
 20
54.0889999999999986
 30
0.0
 11
-1.0629999999999999
 21
54.1550000000000011
 31
0.0
  0
LINE
  5
236
100
AcDbEntity
100
AcDbLine
  8
0
 62
256
370
-1
  6
ByLayer
 10
-1.0629999999999999
 20
54.1550000000000011
 30
0.0
 11
-1.0820000000000001
 21
54.2220000000000013
 31
0.0
  0
LINE
  5
237
100
AcDbEntity
100
AcDbLine
  8
0
 62
256
370
-1
  6
ByLayer
 10
-1.0820000000000001
 20
54.2220000000000013
 30
0.0
 11
-1.0980000000000001
 21
54.2909999999999968
 31
0.0
  0
LINE
  5
238
100
AcDbEntity
100
AcDbLine
  8
0
 62
256
370
-1
  6
ByLayer
 10
-1.0980000000000001
 20
54.2909999999999968
 30
0.0
 11
-1.109
 21
54.3599999999999994
 31
0.0
  0
LINE
  5
239
100
AcDbEntity
100
AcDbLine
  8
0
 62
256
370
-1
  6
ByLayer
 10
-1.109
 20
54.3599999999999994
 30
0.0
 11
-1.115
 21
54.4299999999999997
 31
0.0
  0
LINE
  5
23A
100
AcDbEntity
100
AcDbLine
  8
0
 62
256
370
-1
  6
ByLayer
 10
-1.115
 20
54.4299999999999997
 30
0.0
 11
-1.1180000000000001
 21
54.5
 31
0.0
  0
LINE
  5
23B
100
AcDbEntity
100
AcDbLine
  8
0
 62
256
370
-1
  6
ByLayer
 10
46.0810000000000031
 20
-27.25
 30
0.0
 11
46.0829999999999984
 21
-27.1799999999999997
 31
0.0
  0
LINE
  5
23C
100
AcDbEntity
100
AcDbLine
  8
0
 62
256
370
-1
  6
ByLayer
 10
46.0829999999999984
 20
-27.1799999999999997
 30
0.0
 11
46.0900000000000034
 21
-27.1099999999999994
 31
0.0
  0
LINE
  5
23D
100
AcDbEntity
100
AcDbLine
  8
0
 62
256
370
-1
  6
ByLayer
 10
46.0900000000000034
 20
-27.1099999999999994
 30
0.0
 11
46.1009999999999991
 21
-27.0410000000000004
 31
0.0
  0
LINE
  5
23E
100
AcDbEntity
100
AcDbLine
  8
0
 62
256
370
-1
  6
ByLayer
 10
46.1009999999999991
 20
-27.0410000000000004
 30
0.0
 11
46.1159999999999997
 21
-26.9720000000000013
 31
0.0
  0
LINE
  5
23F
100
AcDbEntity
100
AcDbLine
  8
0
 62
256
370
-1
  6
ByLayer
 10
46.1159999999999997
 20
-26.9720000000000013
 30
0.0
 11
46.134999999999998
 21
-26.9050000000000011
 31
0.0
  0
LINE
  5
240
100
AcDbEntity
100
AcDbLine
  8
0
 62
256
370
-1
  6
ByLayer
 10
46.134999999999998
 20
-26.9050000000000011
 30
0.0
 11
46.1589999999999989
 21
-26.8389999999999986
 31
0.0
  0
LINE
  5
241
100
AcDbEntity
100
AcDbLine
  8
0
 62
256
370
-1
  6
ByLayer
 10
46.1589999999999989
 20
-26.8389999999999986
 30
0.0
 11
46.1869999999999976
 21
-26.7740000000000009
 31
0.0
  0
LINE
  5
242
100
AcDbEntity
100
AcDbLine
  8
0
 62
256
370
-1
  6
ByLayer
 10
46.1869999999999976
 20
-26.7740000000000009
 30
0.0
 11
46.2190000000000012
 21
-26.7119999999999997
 31
0.0
  0
LINE
  5
243
100
AcDbEntity
100
AcDbLine
  8
0
 62
256
370
-1
  6
ByLayer
 10
46.2190000000000012
 20
-26.7119999999999997
 30
0.0
 11
46.2550000000000026
 21
-26.6509999999999998
 31
0.0
  0
LINE
  5
244
100
AcDbEntity
100
AcDbLine
  8
0
 62
256
370
-1
  6
ByLayer
 10
46.2550000000000026
 20
-26.6509999999999998
 30
0.0
 11
46.2939999999999969
 21
-26.593
 31
0.0
  0
LINE
  5
245
100
AcDbEntity
100
AcDbLine
  8
0
 62
256
370
-1
  6
ByLayer
 10
46.2939999999999969
 20
-26.593
 30
0.0
 11
46.3370000000000033
 21
-26.5380000000000003
 31
0.0
  0
LINE
  5
246
100
AcDbEntity
100
AcDbLine
  8
0
 62
256
370
-1
  6
ByLayer
 10
46.3370000000000033
 20
-26.5380000000000003
 30
0.0
 11
46.3840000000000003
 21
-26.4849999999999994
 31
0.0
  0
LINE
  5
247
100
AcDbEntity
100
AcDbLine
  8
0
 62
256
370
-1
  6
ByLayer
 10
46.3840000000000003
 20
-26.4849999999999994
 30
0.0
 11
46.4329999999999998
 21
-26.4349999999999987
 31
0.0
  0
LINE
  5
248
100
AcDbEntity
100
AcDbLine
  8
0
 62
256
370
-1
  6
ByLayer
 10
46.4329999999999998
 20
-26.4349999999999987
 30
0.0
 11
46.4859999999999971
 21
-26.3889999999999993
 31
0.0
  0
LINE
  5
249
100
AcDbEntity
100
AcDbLine
  8
0
 62
256
370
-1
  6
ByLayer
 10
46.4859999999999971
 20
-26.3889999999999993
 30
0.0
 11
46.5409999999999968
 21
-26.3460000000000001
 31
0.0
  0
LINE
  5
24A
100
AcDbEntity
100
AcDbLine
  8
0
 62
256
370
-1
  6
ByLayer
 10
46.5409999999999968
 20
-26.3460000000000001
 30
0.0
 11
46.6000000000000014
 21
-26.3060000000000009
 31
0.0
  0
LINE
  5
24B
100
AcDbEntity
100
AcDbLine
  8
0
 62
256
370
-1
  6
ByLayer
 10
46.6000000000000014
 20
-26.3060000000000009
 30
0.0
 11
46.6599999999999966
 21
-26.2710000000000008
 31
0.0
  0
LINE
  5
24C
100
AcDbEntity
100
AcDbLine
  8
0
 62
256
370
-1
  6
ByLayer
 10
46.6599999999999966
 20
-26.2710000000000008
 30
0.0
 11
46.722999999999999
 21
-26.2390000000000008
 31
0.0
  0
LINE
  5
24D
100
AcDbEntity
100
AcDbLine
  8
0
 62
256
370
-1
  6
ByLayer
 10
46.722999999999999
 20
-26.2390000000000008
 30
0.0
 11
46.786999999999999
 21
-26.2109999999999985
 31
0.0
  0
LINE
  5
24E
100
AcDbEntity
100
AcDbLine
  8
0
 62
256
370
-1
  6
ByLayer
 10
46.786999999999999
 20
-26.2109999999999985
 30
0.0
 11
46.8530000000000015
 21
-26.1870000000000012
 31
0.0
  0
LINE
  5
24F
100
AcDbEntity
100
AcDbLine
  8
0
 62
256
370
-1
  6
ByLayer
 10
46.8530000000000015
 20
-26.1870000000000012
 30
0.0
 11
46.9200000000000017
 21
-26.1679999999999993
 31
0.0
  0
LINE
  5
250
100
AcDbEntity
100
AcDbLine
  8
0
 62
256
370
-1
  6
ByLayer
 10
46.9200000000000017
 20
-26.1679999999999993
 30
0.0
 11
46.9889999999999972
 21
-26.152000000000001
 31
0.0
  0
LINE
  5
251
100
AcDbEntity
100
AcDbLine
  8
0
 62
256
370
-1
  6
ByLayer
 10
46.9889999999999972
 20
-26.152000000000001
 30
0.0
 11
47.0579999999999998
 21
-26.1409999999999982
 31
0.0
  0
LINE
  5
252
100
AcDbEntity
100
AcDbLine
  8
0
 62
256
370
-1
  6
ByLayer
 10
47.0579999999999998
 20
-26.1409999999999982
 30
0.0
 11
47.1280000000000001
 21
-26.1350000000000016
 31
0.0
  0
LINE
  5
253
100
AcDbEntity
100
AcDbLine
  8
0
 62
256
370
-1
  6
ByLayer
 10
47.1280000000000001
 20
-26.1350000000000016
 30
0.0
 11
47.1980000000000004
 21
-26.1320000000000014
 31
0.0
  0
LINE
  5
254
100
AcDbEntity
100
AcDbLine
  8
0
 62
256
370
-1
  6
ByLayer
 10
47.1980000000000004
 20
-26.1320000000000014
 30
0.0
 11
47.2689999999999984
 21
-26.1350000000000016
 31
0.0
  0
LINE
  5
255
100
AcDbEntity
100
AcDbLine
  8
0
 62
256
370
-1
  6
ByLayer
 10
47.2689999999999984
 20
-26.1350000000000016
 30
0.0
 11
47.338000000000001
 21
-26.1409999999999982
 31
0.0
  0
LINE
  5
256
100
AcDbEntity
100
AcDbLine
  8
0
 62
256
370
-1
  6
ByLayer
 10
47.338000000000001
 20
-26.1409999999999982
 30
0.0
 11
47.4080000000000013
 21
-26.152000000000001
 31
0.0
  0
LINE
  5
257
100
AcDbEntity
100
AcDbLine
  8
0
 62
256
370
-1
  6
ByLayer
 10
47.4080000000000013
 20
-26.152000000000001
 30
0.0
 11
47.4759999999999991
 21
-26.1679999999999993
 31
0.0
  0
LINE
  5
258
100
AcDbEntity
100
AcDbLine
  8
0
 62
256
370
-1
  6
ByLayer
 10
47.4759999999999991
 20
-26.1679999999999993
 30
0.0
 11
47.5439999999999969
 21
-26.1870000000000012
 31
0.0
  0
LINE
  5
259
100
AcDbEntity
100
AcDbLine
  8
0
 62
256
370
-1
  6
ByLayer
 10
47.5439999999999969
 20
-26.1870000000000012
 30
0.0
 11
47.6099999999999994
 21
-26.2109999999999985
 31
0.0
  0
LINE
  5
25A
100
AcDbEntity
100
AcDbLine
  8
0
 62
256
370
-1
  6
ByLayer
 10
47.6099999999999994
 20
-26.2109999999999985
 30
0.0
 11
47.6739999999999995
 21
-26.2390000000000008
 31
0.0
  0
LINE
  5
25B
100
AcDbEntity
100
AcDbLine
  8
0
 62
256
370
-1
  6
ByLayer
 10
47.6739999999999995
 20
-26.2390000000000008
 30
0.0
 11
47.7370000000000019
 21
-26.2710000000000008
 31
0.0
  0
LINE
  5
25C
100
AcDbEntity
100
AcDbLine
  8
0
 62
256
370
-1
  6
ByLayer
 10
47.7370000000000019
 20
-26.2710000000000008
 30
0.0
 11
47.796999999999997
 21
-26.3060000000000009
 31
0.0
  0
LINE
  5
25D
100
AcDbEntity
100
AcDbLine
  8
0
 62
256
370
-1
  6
ByLayer
 10
47.796999999999997
 20
-26.3060000000000009
 30
0.0
 11
47.8549999999999969
 21
-26.3460000000000001
 31
0.0
  0
LINE
  5
25E
100
AcDbEntity
100
AcDbLine
  8
0
 62
256
370
-1
  6
ByLayer
 10
47.8549999999999969
 20
-26.3460000000000001
 30
0.0
 11
47.9110000000000014
 21
-26.3889999999999993
 31
0.0
  0
LINE
  5
25F
100
AcDbEntity
100
AcDbLine
  8
0
 62
256
370
-1
  6
ByLayer
 10
47.9110000000000014
 20
-26.3889999999999993
 30
0.0
 11
47.963000000000001
 21
-26.4349999999999987
 31
0.0
  0
LINE
  5
260
100
AcDbEntity
100
AcDbLine
  8
0
 62
256
370
-1
  6
ByLayer
 10
47.963000000000001
 20
-26.4349999999999987
 30
0.0
 11
48.0129999999999981
 21
-26.4849999999999994
 31
0.0
  0
LINE
  5
261
100
AcDbEntity
100
AcDbLine
  8
0
 62
256
370
-1
  6
ByLayer
 10
48.0129999999999981
 20
-26.4849999999999994
 30
0.0
 11
48.0600000000000023
 21
-26.5380000000000003
 31
0.0
  0
LINE
  5
262
100
AcDbEntity
100
AcDbLine
  8
0
 62
256
370
-1
  6
ByLayer
 10
48.0600000000000023
 20
-26.5380000000000003
 30
0.0
 11
48.1030000000000015
 21
-26.593
 31
0.0
  0
LINE
  5
263
100
AcDbEntity
100
AcDbLine
  8
0
 62
256
370
-1
  6
ByLayer
 10
48.1030000000000015
 20
-26.593
 30
0.0
 11
48.142000000000003
 21
-26.6509999999999998
 31
0.0
  0
LINE
  5
264
100
AcDbEntity
100
AcDbLine
  8
0
 62
256
370
-1
  6
ByLayer
 10
48.142000000000003
 20
-26.6509999999999998
 30
0.0
 11
48.1779999999999973
 21
-26.7119999999999997
 31
0.0
  0
LINE
  5
265
100
AcDbEntity
100
AcDbLine
  8
0
 62
256
370
-1
  6
ByLayer
 10
48.1779999999999973
 20
-26.7119999999999997
 30
0.0
 11
48.2100000000000009
 21
-26.7740000000000009
 31
0.0
  0
LINE
  5
266
100
AcDbEntity
100
AcDbLine
  8
0
 62
256
370
-1
  6
ByLayer
 10
48.2100000000000009
 20
-26.7740000000000009
 30
0.0
 11
48.2370000000000019
 21
-26.8389999999999986
 31
0.0
  0
LINE
  5
267
100
AcDbEntity
100
AcDbLine
  8
0
 62
256
370
-1
  6
ByLayer
 10
48.2370000000000019
 20
-26.8389999999999986
 30
0.0
 11
48.2610000000000028
 21
-26.9050000000000011
 31
0.0
  0
LINE
  5
268
100
AcDbEntity
100
AcDbLine
  8
0
 62
256
370
-1
  6
ByLayer
 10
48.2610000000000028
 20
-26.9050000000000011
 30
0.0
 11
48.2809999999999988
 21
-26.9720000000000013
 31
0.0
  0
LINE
  5
269
100
AcDbEntity
100
AcDbLine
  8
0
 62
256
370
-1
  6
ByLayer
 10
48.2809999999999988
 20
-26.9720000000000013
 30
0.0
 11
48.2959999999999994
 21
-27.0410000000000004
 31
0.0
  0
LINE
  5
26A
100
AcDbEntity
100
AcDbLine
  8
0
 62
256
370
-1
  6
ByLayer
 10
48.2959999999999994
 20
-27.0410000000000004
 30
0.0
 11
48.3070000000000022
 21
-27.1099999999999994
 31
0.0
  0
LINE
  5
26B
100
AcDbEntity
100
AcDbLine
  8
0
 62
256
370
-1
  6
ByLayer
 10
48.3070000000000022
 20
-27.1099999999999994
 30
0.0
 11
48.3140000000000001
 21
-27.1799999999999997
 31
0.0
  0
LINE
  5
26C
100
AcDbEntity
100
AcDbLine
  8
0
 62
256
370
-1
  6
ByLayer
 10
48.3140000000000001
 20
-27.1799999999999997
 30
0.0
 11
48.3160000000000025
 21
-27.25
 31
0.0
  0
LINE
  5
26D
100
AcDbEntity
100
AcDbLine
  8
0
 62
256
370
-1
  6
ByLayer
 10
48.3160000000000025
 20
-27.25
 30
0.0
 11
48.3140000000000001
 21
-27.3200000000000003
 31
0.0
  0
LINE
  5
26E
100
AcDbEntity
100
AcDbLine
  8
0
 62
256
370
-1
  6
ByLayer
 10
48.3140000000000001
 20
-27.3200000000000003
 30
0.0
 11
48.3070000000000022
 21
-27.3900000000000006
 31
0.0
  0
LINE
  5
26F
100
AcDbEntity
100
AcDbLine
  8
0
 62
256
370
-1
  6
ByLayer
 10
48.3070000000000022
 20
-27.3900000000000006
 30
0.0
 11
48.2959999999999994
 21
-27.4589999999999996
 31
0.0
  0
LINE
  5
270
100
AcDbEntity
100
AcDbLine
  8
0
 62
256
370
-1
  6
ByLayer
 10
48.2959999999999994
 20
-27.4589999999999996
 30
0.0
 11
48.2809999999999988
 21
-27.5279999999999987
 31
0.0
  0
LINE
  5
271
100
AcDbEntity
100
AcDbLine
  8
0
 62
256
370
-1
  6
ByLayer
 10
48.2809999999999988
 20
-27.5279999999999987
 30
0.0
 11
48.2610000000000028
 21
-27.5949999999999989
 31
0.0
  0
LINE
  5
272
100
AcDbEntity
100
AcDbLine
  8
0
 62
256
370
-1
  6
ByLayer
 10
48.2610000000000028
 20
-27.5949999999999989
 30
0.0
 11
48.2370000000000019
 21
-27.6610000000000014
 31
0.0
  0
LINE
  5
273
100
AcDbEntity
100
AcDbLine
  8
0
 62
256
370
-1
  6
ByLayer
 10
48.2370000000000019
 20
-27.6610000000000014
 30
0.0
 11
48.2100000000000009
 21
-27.7259999999999991
 31
0.0
  0
LINE
  5
274
100
AcDbEntity
100
AcDbLine
  8
0
 62
256
370
-1
  6
ByLayer
 10
48.2100000000000009
 20
-27.7259999999999991
 30
0.0
 11
48.1779999999999973
 21
-27.7880000000000003
 31
0.0
  0
LINE
  5
275
100
AcDbEntity
100
AcDbLine
  8
0
 62
256
370
-1
  6
ByLayer
 10
48.1779999999999973
 20
-27.7880000000000003
 30
0.0
 11
48.142000000000003
 21
-27.8490000000000002
 31
0.0
  0
LINE
  5
276
100
AcDbEntity
100
AcDbLine
  8
0
 62
256
370
-1
  6
ByLayer
 10
48.142000000000003
 20
-27.8490000000000002
 30
0.0
 11
48.1030000000000015
 21
-27.907
 31
0.0
  0
LINE
  5
277
100
AcDbEntity
100
AcDbLine
  8
0
 62
256
370
-1
  6
ByLayer
 10
48.1030000000000015
 20
-27.907
 30
0.0
 11
48.0600000000000023
 21
-27.9619999999999997
 31
0.0
  0
LINE
  5
278
100
AcDbEntity
100
AcDbLine
  8
0
 62
256
370
-1
  6
ByLayer
 10
48.0600000000000023
 20
-27.9619999999999997
 30
0.0
 11
48.0129999999999981
 21
-28.0150000000000006
 31
0.0
  0
LINE
  5
279
100
AcDbEntity
100
AcDbLine
  8
0
 62
256
370
-1
  6
ByLayer
 10
48.0129999999999981
 20
-28.0150000000000006
 30
0.0
 11
47.963000000000001
 21
-28.0650000000000013
 31
0.0
  0
LINE
  5
27A
100
AcDbEntity
100
AcDbLine
  8
0
 62
256
370
-1
  6
ByLayer
 10
47.963000000000001
 20
-28.0650000000000013
 30
0.0
 11
47.9110000000000014
 21
-28.1110000000000007
 31
0.0
  0
LINE
  5
27B
100
AcDbEntity
100
AcDbLine
  8
0
 62
256
370
-1
  6
ByLayer
 10
47.9110000000000014
 20
-28.1110000000000007
 30
0.0
 11
47.8549999999999969
 21
-28.1539999999999999
 31
0.0
  0
LINE
  5
27C
100
AcDbEntity
100
AcDbLine
  8
0
 62
256
370
-1
  6
ByLayer
 10
47.8549999999999969
 20
-28.1539999999999999
 30
0.0
 11
47.796999999999997
 21
-28.1939999999999991
 31
0.0
  0
LINE
  5
27D
100
AcDbEntity
100
AcDbLine
  8
0
 62
256
370
-1
  6
ByLayer
 10
47.796999999999997
 20
-28.1939999999999991
 30
0.0
 11
47.7370000000000019
 21
-28.2289999999999992
 31
0.0
  0
LINE
  5
27E
100
AcDbEntity
100
AcDbLine
  8
0
 62
256
370
-1
  6
ByLayer
 10
47.7370000000000019
 20
-28.2289999999999992
 30
0.0
 11
47.6739999999999995
 21
-28.2609999999999992
 31
0.0
  0
LINE
  5
27F
100
AcDbEntity
100
AcDbLine
  8
0
 62
256
370
-1
  6
ByLayer
 10
47.6739999999999995
 20
-28.2609999999999992
 30
0.0
 11
47.6099999999999994
 21
-28.2890000000000015
 31
0.0
  0
LINE
  5
280
100
AcDbEntity
100
AcDbLine
  8
0
 62
256
370
-1
  6
ByLayer
 10
47.6099999999999994
 20
-28.2890000000000015
 30
0.0
 11
47.5439999999999969
 21
-28.3129999999999988
 31
0.0
  0
LINE
  5
281
100
AcDbEntity
100
AcDbLine
  8
0
 62
256
370
-1
  6
ByLayer
 10
47.5439999999999969
 20
-28.3129999999999988
 30
0.0
 11
47.4759999999999991
 21
-28.3320000000000007
 31
0.0
  0
LINE
  5
282
100
AcDbEntity
100
AcDbLine
  8
0
 62
256
370
-1
  6
ByLayer
 10
47.4759999999999991
 20
-28.3320000000000007
 30
0.0
 11
47.4080000000000013
 21
-28.347999999999999
 31
0.0
  0
LINE
  5
283
100
AcDbEntity
100
AcDbLine
  8
0
 62
256
370
-1
  6
ByLayer
 10
47.4080000000000013
 20
-28.347999999999999
 30
0.0
 11
47.338000000000001
 21
-28.3590000000000018
 31
0.0
  0
LINE
  5
284
100
AcDbEntity
100
AcDbLine
  8
0
 62
256
370
-1
  6
ByLayer
 10
47.338000000000001
 20
-28.3590000000000018
 30
0.0
 11
47.2689999999999984
 21
-28.3649999999999984
 31
0.0
  0
LINE
  5
285
100
AcDbEntity
100
AcDbLine
  8
0
 62
256
370
-1
  6
ByLayer
 10
47.2689999999999984
 20
-28.3649999999999984
 30
0.0
 11
47.1980000000000004
 21
-28.3679999999999986
 31
0.0
  0
LINE
  5
286
100
AcDbEntity
100
AcDbLine
  8
0
 62
256
370
-1
  6
ByLayer
 10
47.1980000000000004
 20
-28.3679999999999986
 30
0.0
 11
47.1280000000000001
 21
-28.3649999999999984
 31
0.0
  0
LINE
  5
287
100
AcDbEntity
100
AcDbLine
  8
0
 62
256
370
-1
  6
ByLayer
 10
47.1280000000000001
 20
-28.3649999999999984
 30
0.0
 11
47.0579999999999998
 21
-28.3590000000000018
 31
0.0
  0
LINE
  5
288
100
AcDbEntity
100
AcDbLine
  8
0
 62
256
370
-1
  6
ByLayer
 10
47.0579999999999998
 20
-28.3590000000000018
 30
0.0
 11
46.9889999999999972
 21
-28.347999999999999
 31
0.0
  0
LINE
  5
289
100
AcDbEntity
100
AcDbLine
  8
0
 62
256
370
-1
  6
ByLayer
 10
46.9889999999999972
 20
-28.347999999999999
 30
0.0
 11
46.9200000000000017
 21
-28.3320000000000007
 31
0.0
  0
LINE
  5
28A
100
AcDbEntity
100
AcDbLine
  8
0
 62
256
370
-1
  6
ByLayer
 10
46.9200000000000017
 20
-28.3320000000000007
 30
0.0
 11
46.8530000000000015
 21
-28.3129999999999988
 31
0.0
  0
LINE
  5
28B
100
AcDbEntity
100
AcDbLine
  8
0
 62
256
370
-1
  6
ByLayer
 10
46.8530000000000015
 20
-28.3129999999999988
 30
0.0
 11
46.786999999999999
 21
-28.2890000000000015
 31
0.0
  0
LINE
  5
28C
100
AcDbEntity
100
AcDbLine
  8
0
 62
256
370
-1
  6
ByLayer
 10
46.786999999999999
 20
-28.2890000000000015
 30
0.0
 11
46.722999999999999
 21
-28.2609999999999992
 31
0.0
  0
LINE
  5
28D
100
AcDbEntity
100
AcDbLine
  8
0
 62
256
370
-1
  6
ByLayer
 10
46.722999999999999
 20
-28.2609999999999992
 30
0.0
 11
46.6599999999999966
 21
-28.2289999999999992
 31
0.0
  0
LINE
  5
28E
100
AcDbEntity
100
AcDbLine
  8
0
 62
256
370
-1
  6
ByLayer
 10
46.6599999999999966
 20
-28.2289999999999992
 30
0.0
 11
46.6000000000000014
 21
-28.1939999999999991
 31
0.0
  0
LINE
  5
28F
100
AcDbEntity
100
AcDbLine
  8
0
 62
256
370
-1
  6
ByLayer
 10
46.6000000000000014
 20
-28.1939999999999991
 30
0.0
 11
46.5409999999999968
 21
-28.1539999999999999
 31
0.0
  0
LINE
  5
290
100
AcDbEntity
100
AcDbLine
  8
0
 62
256
370
-1
  6
ByLayer
 10
46.5409999999999968
 20
-28.1539999999999999
 30
0.0
 11
46.4859999999999971
 21
-28.1110000000000007
 31
0.0
  0
LINE
  5
291
100
AcDbEntity
100
AcDbLine
  8
0
 62
256
370
-1
  6
ByLayer
 10
46.4859999999999971
 20
-28.1110000000000007
 30
0.0
 11
46.4329999999999998
 21
-28.0650000000000013
 31
0.0
  0
LINE
  5
292
100
AcDbEntity
100
AcDbLine
  8
0
 62
256
370
-1
  6
ByLayer
 10
46.4329999999999998
 20
-28.0650000000000013
 30
0.0
 11
46.3840000000000003
 21
-28.0150000000000006
 31
0.0
  0
LINE
  5
293
100
AcDbEntity
100
AcDbLine
  8
0
 62
256
370
-1
  6
ByLayer
 10
46.3840000000000003
 20
-28.0150000000000006
 30
0.0
 11
46.3370000000000033
 21
-27.9619999999999997
 31
0.0
  0
LINE
  5
294
100
AcDbEntity
100
AcDbLine
  8
0
 62
256
370
-1
  6
ByLayer
 10
46.3370000000000033
 20
-27.9619999999999997
 30
0.0
 11
46.2939999999999969
 21
-27.907
 31
0.0
  0
LINE
  5
295
100
AcDbEntity
100
AcDbLine
  8
0
 62
256
370
-1
  6
ByLayer
 10
46.2939999999999969
 20
-27.907
 30
0.0
 11
46.2550000000000026
 21
-27.8490000000000002
 31
0.0
  0
LINE
  5
296
100
AcDbEntity
100
AcDbLine
  8
0
 62
256
370
-1
  6
ByLayer
 10
46.2550000000000026
 20
-27.8490000000000002
 30
0.0
 11
46.2190000000000012
 21
-27.7880000000000003
 31
0.0
  0
LINE
  5
297
100
AcDbEntity
100
AcDbLine
  8
0
 62
256
370
-1
  6
ByLayer
 10
46.2190000000000012
 20
-27.7880000000000003
 30
0.0
 11
46.1869999999999976
 21
-27.7259999999999991
 31
0.0
  0
LINE
  5
298
100
AcDbEntity
100
AcDbLine
  8
0
 62
256
370
-1
  6
ByLayer
 10
46.1869999999999976
 20
-27.7259999999999991
 30
0.0
 11
46.1589999999999989
 21
-27.6610000000000014
 31
0.0
  0
LINE
  5
299
100
AcDbEntity
100
AcDbLine
  8
0
 62
256
370
-1
  6
ByLayer
 10
46.1589999999999989
 20
-27.6610000000000014
 30
0.0
 11
46.134999999999998
 21
-27.5949999999999989
 31
0.0
  0
LINE
  5
29A
100
AcDbEntity
100
AcDbLine
  8
0
 62
256
370
-1
  6
ByLayer
 10
46.134999999999998
 20
-27.5949999999999989
 30
0.0
 11
46.1159999999999997
 21
-27.5279999999999987
 31
0.0
  0
LINE
  5
29B
100
AcDbEntity
100
AcDbLine
  8
0
 62
256
370
-1
  6
ByLayer
 10
46.1159999999999997
 20
-27.5279999999999987
 30
0.0
 11
46.1009999999999991
 21
-27.4589999999999996
 31
0.0
  0
LINE
  5
29C
100
AcDbEntity
100
AcDbLine
  8
0
 62
256
370
-1
  6
ByLayer
 10
46.1009999999999991
 20
-27.4589999999999996
 30
0.0
 11
46.0900000000000034
 21
-27.3900000000000006
 31
0.0
  0
LINE
  5
29D
100
AcDbEntity
100
AcDbLine
  8
0
 62
256
370
-1
  6
ByLayer
 10
46.0900000000000034
 20
-27.3900000000000006
 30
0.0
 11
46.0829999999999984
 21
-27.3200000000000003
 31
0.0
  0
LINE
  5
29E
100
AcDbEntity
100
AcDbLine
  8
0
 62
256
370
-1
  6
ByLayer
 10
46.0829999999999984
 20
-27.3200000000000003
 30
0.0
 11
46.0810000000000031
 21
-27.25
 31
0.0
  0
LINE
  5
29F
100
AcDbEntity
100
AcDbLine
  8
0
 62
256
370
-1
  6
ByLayer
 10
46.0810000000000031
 20
27.25
 30
0.0
 11
46.0829999999999984
 21
27.3200000000000003
 31
0.0
  0
LINE
  5
2A0
100
AcDbEntity
100
AcDbLine
  8
0
 62
256
370
-1
  6
ByLayer
 10
46.0829999999999984
 20
27.3200000000000003
 30
0.0
 11
46.0900000000000034
 21
27.3900000000000006
 31
0.0
  0
LINE
  5
2A1
100
AcDbEntity
100
AcDbLine
  8
0
 62
256
370
-1
  6
ByLayer
 10
46.0900000000000034
 20
27.3900000000000006
 30
0.0
 11
46.1009999999999991
 21
27.4589999999999996
 31
0.0
  0
LINE
  5
2A2
100
AcDbEntity
100
AcDbLine
  8
0
 62
256
370
-1
  6
ByLayer
 10
46.1009999999999991
 20
27.4589999999999996
 30
0.0
 11
46.1159999999999997
 21
27.5279999999999987
 31
0.0
  0
LINE
  5
2A3
100
AcDbEntity
100
AcDbLine
  8
0
 62
256
370
-1
  6
ByLayer
 10
46.1159999999999997
 20
27.5279999999999987
 30
0.0
 11
46.134999999999998
 21
27.5949999999999989
 31
0.0
  0
LINE
  5
2A4
100
AcDbEntity
100
AcDbLine
  8
0
 62
256
370
-1
  6
ByLayer
 10
46.134999999999998
 20
27.5949999999999989
 30
0.0
 11
46.1589999999999989
 21
27.6610000000000014
 31
0.0
  0
LINE
  5
2A5
100
AcDbEntity
100
AcDbLine
  8
0
 62
256
370
-1
  6
ByLayer
 10
46.1589999999999989
 20
27.6610000000000014
 30
0.0
 11
46.1869999999999976
 21
27.7259999999999991
 31
0.0
  0
LINE
  5
2A6
100
AcDbEntity
100
AcDbLine
  8
0
 62
256
370
-1
  6
ByLayer
 10
46.1869999999999976
 20
27.7259999999999991
 30
0.0
 11
46.2190000000000012
 21
27.7880000000000003
 31
0.0
  0
LINE
  5
2A7
100
AcDbEntity
100
AcDbLine
  8
0
 62
256
370
-1
  6
ByLayer
 10
46.2190000000000012
 20
27.7880000000000003
 30
0.0
 11
46.2550000000000026
 21
27.8490000000000002
 31
0.0
  0
LINE
  5
2A8
100
AcDbEntity
100
AcDbLine
  8
0
 62
256
370
-1
  6
ByLayer
 10
46.2550000000000026
 20
27.8490000000000002
 30
0.0
 11
46.2939999999999969
 21
27.907
 31
0.0
  0
LINE
  5
2A9
100
AcDbEntity
100
AcDbLine
  8
0
 62
256
370
-1
  6
ByLayer
 10
46.2939999999999969
 20
27.907
 30
0.0
 11
46.3370000000000033
 21
27.9619999999999997
 31
0.0
  0
LINE
  5
2AA
100
AcDbEntity
100
AcDbLine
  8
0
 62
256
370
-1
  6
ByLayer
 10
46.3370000000000033
 20
27.9619999999999997
 30
0.0
 11
46.3840000000000003
 21
28.0150000000000006
 31
0.0
  0
LINE
  5
2AB
100
AcDbEntity
100
AcDbLine
  8
0
 62
256
370
-1
  6
ByLayer
 10
46.3840000000000003
 20
28.0150000000000006
 30
0.0
 11
46.4329999999999998
 21
28.0650000000000013
 31
0.0
  0
LINE
  5
2AC
100
AcDbEntity
100
AcDbLine
  8
0
 62
256
370
-1
  6
ByLayer
 10
46.4329999999999998
 20
28.0650000000000013
 30
0.0
 11
46.4859999999999971
 21
28.1110000000000007
 31
0.0
  0
LINE
  5
2AD
100
AcDbEntity
100
AcDbLine
  8
0
 62
256
370
-1
  6
ByLayer
 10
46.4859999999999971
 20
28.1110000000000007
 30
0.0
 11
46.5409999999999968
 21
28.1539999999999999
 31
0.0
  0
LINE
  5
2AE
100
AcDbEntity
100
AcDbLine
  8
0
 62
256
370
-1
  6
ByLayer
 10
46.5409999999999968
 20
28.1539999999999999
 30
0.0
 11
46.6000000000000014
 21
28.1939999999999991
 31
0.0
  0
LINE
  5
2AF
100
AcDbEntity
100
AcDbLine
  8
0
 62
256
370
-1
  6
ByLayer
 10
46.6000000000000014
 20
28.1939999999999991
 30
0.0
 11
46.6599999999999966
 21
28.2289999999999992
 31
0.0
  0
LINE
  5
2B0
100
AcDbEntity
100
AcDbLine
  8
0
 62
256
370
-1
  6
ByLayer
 10
46.6599999999999966
 20
28.2289999999999992
 30
0.0
 11
46.722999999999999
 21
28.2609999999999992
 31
0.0
  0
LINE
  5
2B1
100
AcDbEntity
100
AcDbLine
  8
0
 62
256
370
-1
  6
ByLayer
 10
46.722999999999999
 20
28.2609999999999992
 30
0.0
 11
46.786999999999999
 21
28.2890000000000015
 31
0.0
  0
LINE
  5
2B2
100
AcDbEntity
100
AcDbLine
  8
0
 62
256
370
-1
  6
ByLayer
 10
46.786999999999999
 20
28.2890000000000015
 30
0.0
 11
46.8530000000000015
 21
28.3129999999999988
 31
0.0
  0
LINE
  5
2B3
100
AcDbEntity
100
AcDbLine
  8
0
 62
256
370
-1
  6
ByLayer
 10
46.8530000000000015
 20
28.3129999999999988
 30
0.0
 11
46.9200000000000017
 21
28.3320000000000007
 31
0.0
  0
LINE
  5
2B4
100
AcDbEntity
100
AcDbLine
  8
0
 62
256
370
-1
  6
ByLayer
 10
46.9200000000000017
 20
28.3320000000000007
 30
0.0
 11
46.9889999999999972
 21
28.347999999999999
 31
0.0
  0
LINE
  5
2B5
100
AcDbEntity
100
AcDbLine
  8
0
 62
256
370
-1
  6
ByLayer
 10
46.9889999999999972
 20
28.347999999999999
 30
0.0
 11
47.0579999999999998
 21
28.3590000000000018
 31
0.0
  0
LINE
  5
2B6
100
AcDbEntity
100
AcDbLine
  8
0
 62
256
370
-1
  6
ByLayer
 10
47.0579999999999998
 20
28.3590000000000018
 30
0.0
 11
47.1280000000000001
 21
28.3649999999999984
 31
0.0
  0
LINE
  5
2B7
100
AcDbEntity
100
AcDbLine
  8
0
 62
256
370
-1
  6
ByLayer
 10
47.1280000000000001
 20
28.3649999999999984
 30
0.0
 11
47.1980000000000004
 21
28.3679999999999986
 31
0.0
  0
LINE
  5
2B8
100
AcDbEntity
100
AcDbLine
  8
0
 62
256
370
-1
  6
ByLayer
 10
47.1980000000000004
 20
28.3679999999999986
 30
0.0
 11
47.2689999999999984
 21
28.3649999999999984
 31
0.0
  0
LINE
  5
2B9
100
AcDbEntity
100
AcDbLine
  8
0
 62
256
370
-1
  6
ByLayer
 10
47.2689999999999984
 20
28.3649999999999984
 30
0.0
 11
47.338000000000001
 21
28.3590000000000018
 31
0.0
  0
LINE
  5
2BA
100
AcDbEntity
100
AcDbLine
  8
0
 62
256
370
-1
  6
ByLayer
 10
47.338000000000001
 20
28.3590000000000018
 30
0.0
 11
47.4080000000000013
 21
28.347999999999999
 31
0.0
  0
LINE
  5
2BB
100
AcDbEntity
100
AcDbLine
  8
0
 62
256
370
-1
  6
ByLayer
 10
47.4080000000000013
 20
28.347999999999999
 30
0.0
 11
47.4759999999999991
 21
28.3320000000000007
 31
0.0
  0
LINE
  5
2BC
100
AcDbEntity
100
AcDbLine
  8
0
 62
256
370
-1
  6
ByLayer
 10
47.4759999999999991
 20
28.3320000000000007
 30
0.0
 11
47.5439999999999969
 21
28.3129999999999988
 31
0.0
  0
LINE
  5
2BD
100
AcDbEntity
100
AcDbLine
  8
0
 62
256
370
-1
  6
ByLayer
 10
47.5439999999999969
 20
28.3129999999999988
 30
0.0
 11
47.6099999999999994
 21
28.2890000000000015
 31
0.0
  0
LINE
  5
2BE
100
AcDbEntity
100
AcDbLine
  8
0
 62
256
370
-1
  6
ByLayer
 10
47.6099999999999994
 20
28.2890000000000015
 30
0.0
 11
47.6739999999999995
 21
28.2609999999999992
 31
0.0
  0
LINE
  5
2BF
100
AcDbEntity
100
AcDbLine
  8
0
 62
256
370
-1
  6
ByLayer
 10
47.6739999999999995
 20
28.2609999999999992
 30
0.0
 11
47.7370000000000019
 21
28.2289999999999992
 31
0.0
  0
LINE
  5
2C0
100
AcDbEntity
100
AcDbLine
  8
0
 62
256
370
-1
  6
ByLayer
 10
47.7370000000000019
 20
28.2289999999999992
 30
0.0
 11
47.796999999999997
 21
28.1939999999999991
 31
0.0
  0
LINE
  5
2C1
100
AcDbEntity
100
AcDbLine
  8
0
 62
256
370
-1
  6
ByLayer
 10
47.796999999999997
 20
28.1939999999999991
 30
0.0
 11
47.8549999999999969
 21
28.1539999999999999
 31
0.0
  0
LINE
  5
2C2
100
AcDbEntity
100
AcDbLine
  8
0
 62
256
370
-1
  6
ByLayer
 10
47.8549999999999969
 20
28.1539999999999999
 30
0.0
 11
47.9110000000000014
 21
28.1110000000000007
 31
0.0
  0
LINE
  5
2C3
100
AcDbEntity
100
AcDbLine
  8
0
 62
256
370
-1
  6
ByLayer
 10
47.9110000000000014
 20
28.1110000000000007
 30
0.0
 11
47.963000000000001
 21
28.0650000000000013
 31
0.0
  0
LINE
  5
2C4
100
AcDbEntity
100
AcDbLine
  8
0
 62
256
370
-1
  6
ByLayer
 10
47.963000000000001
 20
28.0650000000000013
 30
0.0
 11
48.0129999999999981
 21
28.0150000000000006
 31
0.0
  0
LINE
  5
2C5
100
AcDbEntity
100
AcDbLine
  8
0
 62
256
370
-1
  6
ByLayer
 10
48.0129999999999981
 20
28.0150000000000006
 30
0.0
 11
48.0600000000000023
 21
27.9619999999999997
 31
0.0
  0
LINE
  5
2C6
100
AcDbEntity
100
AcDbLine
  8
0
 62
256
370
-1
  6
ByLayer
 10
48.0600000000000023
 20
27.9619999999999997
 30
0.0
 11
48.1030000000000015
 21
27.907
 31
0.0
  0
LINE
  5
2C7
100
AcDbEntity
100
AcDbLine
  8
0
 62
256
370
-1
  6
ByLayer
 10
48.1030000000000015
 20
27.907
 30
0.0
 11
48.142000000000003
 21
27.8490000000000002
 31
0.0
  0
LINE
  5
2C8
100
AcDbEntity
100
AcDbLine
  8
0
 62
256
370
-1
  6
ByLayer
 10
48.142000000000003
 20
27.8490000000000002
 30
0.0
 11
48.1779999999999973
 21
27.7880000000000003
 31
0.0
  0
LINE
  5
2C9
100
AcDbEntity
100
AcDbLine
  8
0
 62
256
370
-1
  6
ByLayer
 10
48.1779999999999973
 20
27.7880000000000003
 30
0.0
 11
48.2100000000000009
 21
27.7259999999999991
 31
0.0
  0
LINE
  5
2CA
100
AcDbEntity
100
AcDbLine
  8
0
 62
256
370
-1
  6
ByLayer
 10
48.2100000000000009
 20
27.7259999999999991
 30
0.0
 11
48.2370000000000019
 21
27.6610000000000014
 31
0.0
  0
LINE
  5
2CB
100
AcDbEntity
100
AcDbLine
  8
0
 62
256
370
-1
  6
ByLayer
 10
48.2370000000000019
 20
27.6610000000000014
 30
0.0
 11
48.2610000000000028
 21
27.5949999999999989
 31
0.0
  0
LINE
  5
2CC
100
AcDbEntity
100
AcDbLine
  8
0
 62
256
370
-1
  6
ByLayer
 10
48.2610000000000028
 20
27.5949999999999989
 30
0.0
 11
48.2809999999999988
 21
27.5279999999999987
 31
0.0
  0
LINE
  5
2CD
100
AcDbEntity
100
AcDbLine
  8
0
 62
256
370
-1
  6
ByLayer
 10
48.2809999999999988
 20
27.5279999999999987
 30
0.0
 11
48.2959999999999994
 21
27.4589999999999996
 31
0.0
  0
LINE
  5
2CE
100
AcDbEntity
100
AcDbLine
  8
0
 62
256
370
-1
  6
ByLayer
 10
48.2959999999999994
 20
27.4589999999999996
 30
0.0
 11
48.3070000000000022
 21
27.3900000000000006
 31
0.0
  0
LINE
  5
2CF
100
AcDbEntity
100
AcDbLine
  8
0
 62
256
370
-1
  6
ByLayer
 10
48.3070000000000022
 20
27.3900000000000006
 30
0.0
 11
48.3140000000000001
 21
27.3200000000000003
 31
0.0
  0
LINE
  5
2D0
100
AcDbEntity
100
AcDbLine
  8
0
 62
256
370
-1
  6
ByLayer
 10
48.3140000000000001
 20
27.3200000000000003
 30
0.0
 11
48.3160000000000025
 21
27.25
 31
0.0
  0
LINE
  5
2D1
100
AcDbEntity
100
AcDbLine
  8
0
 62
256
370
-1
  6
ByLayer
 10
48.3160000000000025
 20
27.25
 30
0.0
 11
48.3140000000000001
 21
27.1799999999999997
 31
0.0
  0
LINE
  5
2D2
100
AcDbEntity
100
AcDbLine
  8
0
 62
256
370
-1
  6
ByLayer
 10
48.3140000000000001
 20
27.1799999999999997
 30
0.0
 11
48.3070000000000022
 21
27.1099999999999994
 31
0.0
  0
LINE
  5
2D3
100
AcDbEntity
100
AcDbLine
  8
0
 62
256
370
-1
  6
ByLayer
 10
48.3070000000000022
 20
27.1099999999999994
 30
0.0
 11
48.2959999999999994
 21
27.0410000000000004
 31
0.0
  0
LINE
  5
2D4
100
AcDbEntity
100
AcDbLine
  8
0
 62
256
370
-1
  6
ByLayer
 10
48.2959999999999994
 20
27.0410000000000004
 30
0.0
 11
48.2809999999999988
 21
26.9720000000000013
 31
0.0
  0
LINE
  5
2D5
100
AcDbEntity
100
AcDbLine
  8
0
 62
256
370
-1
  6
ByLayer
 10
48.2809999999999988
 20
26.9720000000000013
 30
0.0
 11
48.2610000000000028
 21
26.9050000000000011
 31
0.0
  0
LINE
  5
2D6
100
AcDbEntity
100
AcDbLine
  8
0
 62
256
370
-1
  6
ByLayer
 10
48.2610000000000028
 20
26.9050000000000011
 30
0.0
 11
48.2370000000000019
 21
26.8389999999999986
 31
0.0
  0
LINE
  5
2D7
100
AcDbEntity
100
AcDbLine
  8
0
 62
256
370
-1
  6
ByLayer
 10
48.2370000000000019
 20
26.8389999999999986
 30
0.0
 11
48.2100000000000009
 21
26.7740000000000009
 31
0.0
  0
LINE
  5
2D8
100
AcDbEntity
100
AcDbLine
  8
0
 62
256
370
-1
  6
ByLayer
 10
48.2100000000000009
 20
26.7740000000000009
 30
0.0
 11
48.1779999999999973
 21
26.7119999999999997
 31
0.0
  0
LINE
  5
2D9
100
AcDbEntity
100
AcDbLine
  8
0
 62
256
370
-1
  6
ByLayer
 10
48.1779999999999973
 20
26.7119999999999997
 30
0.0
 11
48.142000000000003
 21
26.6509999999999998
 31
0.0
  0
LINE
  5
2DA
100
AcDbEntity
100
AcDbLine
  8
0
 62
256
370
-1
  6
ByLayer
 10
48.142000000000003
 20
26.6509999999999998
 30
0.0
 11
48.1030000000000015
 21
26.593
 31
0.0
  0
LINE
  5
2DB
100
AcDbEntity
100
AcDbLine
  8
0
 62
256
370
-1
  6
ByLayer
 10
48.1030000000000015
 20
26.593
 30
0.0
 11
48.0600000000000023
 21
26.5380000000000003
 31
0.0
  0
LINE
  5
2DC
100
AcDbEntity
100
AcDbLine
  8
0
 62
256
370
-1
  6
ByLayer
 10
48.0600000000000023
 20
26.5380000000000003
 30
0.0
 11
48.0129999999999981
 21
26.4849999999999994
 31
0.0
  0
LINE
  5
2DD
100
AcDbEntity
100
AcDbLine
  8
0
 62
256
370
-1
  6
ByLayer
 10
48.0129999999999981
 20
26.4849999999999994
 30
0.0
 11
47.963000000000001
 21
26.4349999999999987
 31
0.0
  0
LINE
  5
2DE
100
AcDbEntity
100
AcDbLine
  8
0
 62
256
370
-1
  6
ByLayer
 10
47.963000000000001
 20
26.4349999999999987
 30
0.0
 11
47.9110000000000014
 21
26.3889999999999993
 31
0.0
  0
LINE
  5
2DF
100
AcDbEntity
100
AcDbLine
  8
0
 62
256
370
-1
  6
ByLayer
 10
47.9110000000000014
 20
26.3889999999999993
 30
0.0
 11
47.8549999999999969
 21
26.3460000000000001
 31
0.0
  0
LINE
  5
2E0
100
AcDbEntity
100
AcDbLine
  8
0
 62
256
370
-1
  6
ByLayer
 10
47.8549999999999969
 20
26.3460000000000001
 30
0.0
 11
47.796999999999997
 21
26.3060000000000009
 31
0.0
  0
LINE
  5
2E1
100
AcDbEntity
100
AcDbLine
  8
0
 62
256
370
-1
  6
ByLayer
 10
47.796999999999997
 20
26.3060000000000009
 30
0.0
 11
47.7370000000000019
 21
26.2710000000000008
 31
0.0
  0
LINE
  5
2E2
100
AcDbEntity
100
AcDbLine
  8
0
 62
256
370
-1
  6
ByLayer
 10
47.7370000000000019
 20
26.2710000000000008
 30
0.0
 11
47.6739999999999995
 21
26.2390000000000008
 31
0.0
  0
LINE
  5
2E3
100
AcDbEntity
100
AcDbLine
  8
0
 62
256
370
-1
  6
ByLayer
 10
47.6739999999999995
 20
26.2390000000000008
 30
0.0
 11
47.6099999999999994
 21
26.2109999999999985
 31
0.0
  0
LINE
  5
2E4
100
AcDbEntity
100
AcDbLine
  8
0
 62
256
370
-1
  6
ByLayer
 10
47.6099999999999994
 20
26.2109999999999985
 30
0.0
 11
47.5439999999999969
 21
26.1870000000000012
 31
0.0
  0
LINE
  5
2E5
100
AcDbEntity
100
AcDbLine
  8
0
 62
256
370
-1
  6
ByLayer
 10
47.5439999999999969
 20
26.1870000000000012
 30
0.0
 11
47.4759999999999991
 21
26.1679999999999993
 31
0.0
  0
LINE
  5
2E6
100
AcDbEntity
100
AcDbLine
  8
0
 62
256
370
-1
  6
ByLayer
 10
47.4759999999999991
 20
26.1679999999999993
 30
0.0
 11
47.4080000000000013
 21
26.152000000000001
 31
0.0
  0
LINE
  5
2E7
100
AcDbEntity
100
AcDbLine
  8
0
 62
256
370
-1
  6
ByLayer
 10
47.4080000000000013
 20
26.152000000000001
 30
0.0
 11
47.338000000000001
 21
26.1409999999999982
 31
0.0
  0
LINE
  5
2E8
100
AcDbEntity
100
AcDbLine
  8
0
 62
256
370
-1
  6
ByLayer
 10
47.338000000000001
 20
26.1409999999999982
 30
0.0
 11
47.2689999999999984
 21
26.1350000000000016
 31
0.0
  0
LINE
  5
2E9
100
AcDbEntity
100
AcDbLine
  8
0
 62
256
370
-1
  6
ByLayer
 10
47.2689999999999984
 20
26.1350000000000016
 30
0.0
 11
47.1980000000000004
 21
26.1320000000000014
 31
0.0
  0
LINE
  5
2EA
100
AcDbEntity
100
AcDbLine
  8
0
 62
256
370
-1
  6
ByLayer
 10
47.1980000000000004
 20
26.1320000000000014
 30
0.0
 11
47.1280000000000001
 21
26.1350000000000016
 31
0.0
  0
LINE
  5
2EB
100
AcDbEntity
100
AcDbLine
  8
0
 62
256
370
-1
  6
ByLayer
 10
47.1280000000000001
 20
26.1350000000000016
 30
0.0
 11
47.0579999999999998
 21
26.1409999999999982
 31
0.0
  0
LINE
  5
2EC
100
AcDbEntity
100
AcDbLine
  8
0
 62
256
370
-1
  6
ByLayer
 10
47.0579999999999998
 20
26.1409999999999982
 30
0.0
 11
46.9889999999999972
 21
26.152000000000001
 31
0.0
  0
LINE
  5
2ED
100
AcDbEntity
100
AcDbLine
  8
0
 62
256
370
-1
  6
ByLayer
 10
46.9889999999999972
 20
26.152000000000001
 30
0.0
 11
46.9200000000000017
 21
26.1679999999999993
 31
0.0
  0
LINE
  5
2EE
100
AcDbEntity
100
AcDbLine
  8
0
 62
256
370
-1
  6
ByLayer
 10
46.9200000000000017
 20
26.1679999999999993
 30
0.0
 11
46.8530000000000015
 21
26.1870000000000012
 31
0.0
  0
LINE
  5
2EF
100
AcDbEntity
100
AcDbLine
  8
0
 62
256
370
-1
  6
ByLayer
 10
46.8530000000000015
 20
26.1870000000000012
 30
0.0
 11
46.786999999999999
 21
26.2109999999999985
 31
0.0
  0
LINE
  5
2F0
100
AcDbEntity
100
AcDbLine
  8
0
 62
256
370
-1
  6
ByLayer
 10
46.786999999999999
 20
26.2109999999999985
 30
0.0
 11
46.722999999999999
 21
26.2390000000000008
 31
0.0
  0
LINE
  5
2F1
100
AcDbEntity
100
AcDbLine
  8
0
 62
256
370
-1
  6
ByLayer
 10
46.722999999999999
 20
26.2390000000000008
 30
0.0
 11
46.6599999999999966
 21
26.2710000000000008
 31
0.0
  0
LINE
  5
2F2
100
AcDbEntity
100
AcDbLine
  8
0
 62
256
370
-1
  6
ByLayer
 10
46.6599999999999966
 20
26.2710000000000008
 30
0.0
 11
46.6000000000000014
 21
26.3060000000000009
 31
0.0
  0
LINE
  5
2F3
100
AcDbEntity
100
AcDbLine
  8
0
 62
256
370
-1
  6
ByLayer
 10
46.6000000000000014
 20
26.3060000000000009
 30
0.0
 11
46.5409999999999968
 21
26.3460000000000001
 31
0.0
  0
LINE
  5
2F4
100
AcDbEntity
100
AcDbLine
  8
0
 62
256
370
-1
  6
ByLayer
 10
46.5409999999999968
 20
26.3460000000000001
 30
0.0
 11
46.4859999999999971
 21
26.3889999999999993
 31
0.0
  0
LINE
  5
2F5
100
AcDbEntity
100
AcDbLine
  8
0
 62
256
370
-1
  6
ByLayer
 10
46.4859999999999971
 20
26.3889999999999993
 30
0.0
 11
46.4329999999999998
 21
26.4349999999999987
 31
0.0
  0
LINE
  5
2F6
100
AcDbEntity
100
AcDbLine
  8
0
 62
256
370
-1
  6
ByLayer
 10
46.4329999999999998
 20
26.4349999999999987
 30
0.0
 11
46.3840000000000003
 21
26.4849999999999994
 31
0.0
  0
LINE
  5
2F7
100
AcDbEntity
100
AcDbLine
  8
0
 62
256
370
-1
  6
ByLayer
 10
46.3840000000000003
 20
26.4849999999999994
 30
0.0
 11
46.3370000000000033
 21
26.5380000000000003
 31
0.0
  0
LINE
  5
2F8
100
AcDbEntity
100
AcDbLine
  8
0
 62
256
370
-1
  6
ByLayer
 10
46.3370000000000033
 20
26.5380000000000003
 30
0.0
 11
46.2939999999999969
 21
26.593
 31
0.0
  0
LINE
  5
2F9
100
AcDbEntity
100
AcDbLine
  8
0
 62
256
370
-1
  6
ByLayer
 10
46.2939999999999969
 20
26.593
 30
0.0
 11
46.2550000000000026
 21
26.6509999999999998
 31
0.0
  0
LINE
  5
2FA
100
AcDbEntity
100
AcDbLine
  8
0
 62
256
370
-1
  6
ByLayer
 10
46.2550000000000026
 20
26.6509999999999998
 30
0.0
 11
46.2190000000000012
 21
26.7119999999999997
 31
0.0
  0
LINE
  5
2FB
100
AcDbEntity
100
AcDbLine
  8
0
 62
256
370
-1
  6
ByLayer
 10
46.2190000000000012
 20
26.7119999999999997
 30
0.0
 11
46.1869999999999976
 21
26.7740000000000009
 31
0.0
  0
LINE
  5
2FC
100
AcDbEntity
100
AcDbLine
  8
0
 62
256
370
-1
  6
ByLayer
 10
46.1869999999999976
 20
26.7740000000000009
 30
0.0
 11
46.1589999999999989
 21
26.8389999999999986
 31
0.0
  0
LINE
  5
2FD
100
AcDbEntity
100
AcDbLine
  8
0
 62
256
370
-1
  6
ByLayer
 10
46.1589999999999989
 20
26.8389999999999986
 30
0.0
 11
46.134999999999998
 21
26.9050000000000011
 31
0.0
  0
LINE
  5
2FE
100
AcDbEntity
100
AcDbLine
  8
0
 62
256
370
-1
  6
ByLayer
 10
46.134999999999998
 20
26.9050000000000011
 30
0.0
 11
46.1159999999999997
 21
26.9720000000000013
 31
0.0
  0
LINE
  5
2FF
100
AcDbEntity
100
AcDbLine
  8
0
 62
256
370
-1
  6
ByLayer
 10
46.1159999999999997
 20
26.9720000000000013
 30
0.0
 11
46.1009999999999991
 21
27.0410000000000004
 31
0.0
  0
LINE
  5
300
100
AcDbEntity
100
AcDbLine
  8
0
 62
256
370
-1
  6
ByLayer
 10
46.1009999999999991
 20
27.0410000000000004
 30
0.0
 11
46.0900000000000034
 21
27.1099999999999994
 31
0.0
  0
LINE
  5
301
100
AcDbEntity
100
AcDbLine
  8
0
 62
256
370
-1
  6
ByLayer
 10
46.0900000000000034
 20
27.1099999999999994
 30
0.0
 11
46.0829999999999984
 21
27.1799999999999997
 31
0.0
  0
LINE
  5
302
100
AcDbEntity
100
AcDbLine
  8
0
 62
256
370
-1
  6
ByLayer
 10
46.0829999999999984
 20
27.1799999999999997
 30
0.0
 11
46.0810000000000031
 21
27.25
 31
0.0
  0
ENDSEC
  0
SECTION
  2
OBJECTS
  0
DICTIONARY
  5
C
100
AcDbDictionary
280
0
281
1
  3
ACAD_GROUP
350
D
  3
ACAD_LAYOUT
350
1A
  3
ACAD_MLINESTYLE
350
17
  3
ACAD_PLOTSETTINGS
350
19
  3
ACAD_PLOTSTYLENAME
350
E
  3
AcDbVariableDictionary
350
303
  0
DICTIONARY
  5
D
100
AcDbDictionary
280
0
281
1
  0
ACDBDICTIONARYWDFLT
  5
E
100
AcDbDictionary
281
1
  3
Normal
350
F
100
AcDbDictionaryWithDefault
340
F
  0
ACDBPLACEHOLDER
  5
F
  0
DICTIONARY
  5
17
100
AcDbDictionary
280
0
281
1
  3
Standard
350
18
  0
MLINESTYLE
  5
18
100
AcDbMlineStyle
  2
STANDARD
 70
0
  3

 62
256
 51
90.0
 52
90.0
 71
2
 49
0.5
 62
256
  6
BYLAYER
 49
-0.5
 62
256
  6
BYLAYER
  0
DICTIONARY
  5
19
100
AcDbDictionary
280
0
281
1
  0
DICTIONARY
  5
1A
100
AcDbDictionary
281
1
  3
Layout1
350
1E
  3
Layout2
350
26
  3
Model
350
22
  0
LAYOUT
  5
1E
100
AcDbPlotSettings
  1

  2
C:\Program Files\AutoCAD 2002\plotters\DWF ePlot (optimized for plotting).pc3
  4

  6

 40
0.0
 41
0.0
 42
0.0
 43
0.0
 44
0.0
 45
0.0
 46
0.0
 47
0.0
 48
0.0
 49
0.0
140
0.0
141
0.0
142
1.0
143
1.0
 70
688
 72
0
 73
0
 74
5
  7

 75
16
147
1.0
148
0.0
149
0.0
100
AcDbLayout
  1
Layout1
 70
1
 71
1
 10
0.0
 20
0.0
 11
420.0
 21
297.0
 12
0.0
 22
0.0
 32
0.0
 14
100000000000000000000.0
 24
100000000000000000000.0
 34
100000000000000000000.0
 15
-100000000000000000000.0
 25
-100000000000000000000.0
 35
-100000000000000000000.0
146
0.0
 13
0.0
 23
0.0
 33
0.0
 16
1.0
 26
0.0
 36
0.0
 17
0.0
 27
1.0
 37
0.0
 76
0
330
1B
  0
LAYOUT
  5
22
100
AcDbPlotSettings
  1

  2
C:\Program Files\AutoCAD 2002\plotters\DWF ePlot (optimized for plotting).pc3
  4

  6

 40
0.0
 41
0.0
 42
0.0
 43
0.0
 44
0.0
 45
0.0
 46
0.0
 47
0.0
 48
0.0
 49
0.0
140
0.0
141
0.0
142
1.0
143
1.0
 70
1712
 72
0
 73
0
 74
0
  7

 75
0
147
1.0
148
0.0
149
0.0
100
AcDbLayout
  1
Model
 70
1
 71
0
 10
0.0
 20
0.0
 11
12.0
 21
9.0
 12
0.0
 22
0.0
 32
0.0
 14
0.0
 24
0.0
 34
0.0
 15
0.0
 25
0.0
 35
0.0
146
0.0
 13
0.0
 23
0.0
 33
0.0
 16
1.0
 26
0.0
 36
0.0
 17
0.0
 27
1.0
 37
0.0
 76
0
330
1F
  0
LAYOUT
  5
26
100
AcDbPlotSettings
  1

  2
C:\Program Files\AutoCAD 2002\plotters\DWF ePlot (optimized for plotting).pc3
  4

  6

 40
0.0
 41
0.0
 42
0.0
 43
0.0
 44
0.0
 45
0.0
 46
0.0
 47
0.0
 48
0.0
 49
0.0
140
0.0
141
0.0
142
1.0
143
1.0
 70
688
 72
0
 73
0
 74
5
  7

 75
16
147
1.0
148
0.0
149
0.0
100
AcDbLayout
  1
Layout2
 70
1
 71
2
 10
0.0
 20
0.0
 11
12.0
 21
9.0
 12
0.0
 22
0.0
 32
0.0
 14
0.0
 24
0.0
 34
0.0
 15
0.0
 25
0.0
 35
0.0
146
0.0
 13
0.0
 23
0.0
 33
0.0
 16
1.0
 26
0.0
 36
0.0
 17
0.0
 27
1.0
 37
0.0
 76
0
330
23
  0
DICTIONARY
  5
303
100
AcDbDictionary
281
1
  3
DIMASSOC
350
305
  3
HIDETEXT
350
304
  0
DICTIONARYVAR
  5
304
100
DictionaryVariables
280
0
  1
2
  0
DICTIONARYVAR
  5
305
100
DictionaryVariables
280
0
  1
1
  0
ENDSEC
  0
EOF
