G04 (created by PCBNEW (2013-mar-13)-testing) date Sat 10 Aug 2013 01:32:29 PM PDT*
%MOIN*%
G04 Gerber Fmt 3.4, Leading zero omitted, Abs format*
%FSLAX34Y34*%
G01*
G70*
G90*
G04 APERTURE LIST*
%ADD10C,0.005906*%
%ADD11R,0.070000X0.070000*%
%ADD12C,0.070000*%
%ADD13C,0.130000*%
%ADD14C,0.035000*%
%ADD15C,0.010000*%
G04 APERTURE END LIST*
G54D10*
G54D11*
X44250Y-33000D03*
G54D12*
X43250Y-33000D03*
X44250Y-34000D03*
X43250Y-34000D03*
X44250Y-35000D03*
X43250Y-35000D03*
X44250Y-36000D03*
X43250Y-36000D03*
X44250Y-37000D03*
X43250Y-37000D03*
G54D13*
X41000Y-31000D03*
X54000Y-31000D03*
X41000Y-39000D03*
X54000Y-39000D03*
G54D14*
X49175Y-38065D03*
G54D15*
X46315Y-38065D02*
X44250Y-36000D01*
X49175Y-38065D02*
X46315Y-38065D01*
G54D10*
G36*
X54730Y-38457D02*
X54510Y-38237D01*
X54179Y-38100D01*
X53821Y-38099D01*
X53490Y-38236D01*
X53237Y-38489D01*
X53100Y-38820D01*
X53099Y-39178D01*
X53236Y-39509D01*
X53457Y-39730D01*
X49600Y-39730D01*
X49600Y-37981D01*
X49536Y-37825D01*
X49416Y-37705D01*
X49260Y-37641D01*
X49091Y-37640D01*
X48935Y-37705D01*
X48874Y-37765D01*
X46440Y-37765D01*
X44950Y-36276D01*
X44833Y-36159D01*
X44849Y-36119D01*
X44850Y-35881D01*
X44758Y-35660D01*
X44598Y-35499D01*
X44758Y-35340D01*
X44849Y-35119D01*
X44850Y-34881D01*
X44758Y-34660D01*
X44655Y-34557D01*
X44674Y-34460D01*
X44250Y-34035D01*
X43825Y-34460D01*
X43844Y-34557D01*
X43749Y-34651D01*
X43598Y-34499D01*
X43692Y-34405D01*
X43789Y-34424D01*
X44214Y-34000D01*
X44209Y-33994D01*
X44244Y-33959D01*
X44250Y-33964D01*
X44255Y-33959D01*
X44290Y-33994D01*
X44285Y-34000D01*
X44710Y-34424D01*
X44841Y-34399D01*
X44949Y-34142D01*
X44950Y-33863D01*
X44845Y-33605D01*
X44841Y-33600D01*
X44710Y-33575D01*
X44710Y-33574D01*
X44741Y-33561D01*
X44811Y-33491D01*
X44850Y-33399D01*
X44850Y-33300D01*
X44850Y-32600D01*
X44811Y-32508D01*
X44741Y-32438D01*
X44649Y-32400D01*
X44550Y-32400D01*
X43850Y-32400D01*
X43758Y-32438D01*
X43688Y-32508D01*
X43664Y-32565D01*
X43590Y-32491D01*
X43369Y-32400D01*
X43131Y-32399D01*
X42910Y-32491D01*
X42741Y-32659D01*
X42650Y-32880D01*
X42649Y-33118D01*
X42741Y-33339D01*
X42901Y-33500D01*
X42741Y-33659D01*
X42650Y-33880D01*
X42649Y-34118D01*
X42741Y-34339D01*
X42901Y-34500D01*
X42741Y-34659D01*
X42650Y-34880D01*
X42649Y-35118D01*
X42741Y-35339D01*
X42901Y-35500D01*
X42741Y-35659D01*
X42650Y-35880D01*
X42649Y-36118D01*
X42741Y-36339D01*
X42901Y-36500D01*
X42741Y-36659D01*
X42650Y-36880D01*
X42649Y-37118D01*
X42741Y-37339D01*
X42909Y-37508D01*
X43130Y-37599D01*
X43368Y-37600D01*
X43589Y-37508D01*
X43750Y-37348D01*
X43909Y-37508D01*
X44130Y-37599D01*
X44368Y-37600D01*
X44589Y-37508D01*
X44758Y-37340D01*
X44849Y-37119D01*
X44849Y-37024D01*
X46103Y-38278D01*
X46201Y-38343D01*
X46315Y-38365D01*
X48874Y-38365D01*
X48934Y-38426D01*
X49090Y-38490D01*
X49259Y-38491D01*
X49415Y-38426D01*
X49535Y-38307D01*
X49600Y-38150D01*
X49600Y-37981D01*
X49600Y-39730D01*
X41542Y-39730D01*
X41762Y-39510D01*
X41899Y-39179D01*
X41900Y-38821D01*
X41763Y-38490D01*
X41510Y-38237D01*
X41179Y-38100D01*
X40821Y-38099D01*
X40490Y-38236D01*
X40269Y-38457D01*
X40269Y-31542D01*
X40489Y-31762D01*
X40820Y-31899D01*
X41178Y-31900D01*
X41509Y-31763D01*
X41762Y-31510D01*
X41899Y-31179D01*
X41900Y-30821D01*
X41763Y-30490D01*
X41542Y-30269D01*
X53457Y-30269D01*
X53237Y-30489D01*
X53100Y-30820D01*
X53099Y-31178D01*
X53236Y-31509D01*
X53489Y-31762D01*
X53820Y-31899D01*
X54178Y-31900D01*
X54509Y-31763D01*
X54730Y-31542D01*
X54730Y-38457D01*
X54730Y-38457D01*
G37*
G54D15*
X54730Y-38457D02*
X54510Y-38237D01*
X54179Y-38100D01*
X53821Y-38099D01*
X53490Y-38236D01*
X53237Y-38489D01*
X53100Y-38820D01*
X53099Y-39178D01*
X53236Y-39509D01*
X53457Y-39730D01*
X49600Y-39730D01*
X49600Y-37981D01*
X49536Y-37825D01*
X49416Y-37705D01*
X49260Y-37641D01*
X49091Y-37640D01*
X48935Y-37705D01*
X48874Y-37765D01*
X46440Y-37765D01*
X44950Y-36276D01*
X44833Y-36159D01*
X44849Y-36119D01*
X44850Y-35881D01*
X44758Y-35660D01*
X44598Y-35499D01*
X44758Y-35340D01*
X44849Y-35119D01*
X44850Y-34881D01*
X44758Y-34660D01*
X44655Y-34557D01*
X44674Y-34460D01*
X44250Y-34035D01*
X43825Y-34460D01*
X43844Y-34557D01*
X43749Y-34651D01*
X43598Y-34499D01*
X43692Y-34405D01*
X43789Y-34424D01*
X44214Y-34000D01*
X44209Y-33994D01*
X44244Y-33959D01*
X44250Y-33964D01*
X44255Y-33959D01*
X44290Y-33994D01*
X44285Y-34000D01*
X44710Y-34424D01*
X44841Y-34399D01*
X44949Y-34142D01*
X44950Y-33863D01*
X44845Y-33605D01*
X44841Y-33600D01*
X44710Y-33575D01*
X44710Y-33574D01*
X44741Y-33561D01*
X44811Y-33491D01*
X44850Y-33399D01*
X44850Y-33300D01*
X44850Y-32600D01*
X44811Y-32508D01*
X44741Y-32438D01*
X44649Y-32400D01*
X44550Y-32400D01*
X43850Y-32400D01*
X43758Y-32438D01*
X43688Y-32508D01*
X43664Y-32565D01*
X43590Y-32491D01*
X43369Y-32400D01*
X43131Y-32399D01*
X42910Y-32491D01*
X42741Y-32659D01*
X42650Y-32880D01*
X42649Y-33118D01*
X42741Y-33339D01*
X42901Y-33500D01*
X42741Y-33659D01*
X42650Y-33880D01*
X42649Y-34118D01*
X42741Y-34339D01*
X42901Y-34500D01*
X42741Y-34659D01*
X42650Y-34880D01*
X42649Y-35118D01*
X42741Y-35339D01*
X42901Y-35500D01*
X42741Y-35659D01*
X42650Y-35880D01*
X42649Y-36118D01*
X42741Y-36339D01*
X42901Y-36500D01*
X42741Y-36659D01*
X42650Y-36880D01*
X42649Y-37118D01*
X42741Y-37339D01*
X42909Y-37508D01*
X43130Y-37599D01*
X43368Y-37600D01*
X43589Y-37508D01*
X43750Y-37348D01*
X43909Y-37508D01*
X44130Y-37599D01*
X44368Y-37600D01*
X44589Y-37508D01*
X44758Y-37340D01*
X44849Y-37119D01*
X44849Y-37024D01*
X46103Y-38278D01*
X46201Y-38343D01*
X46315Y-38365D01*
X48874Y-38365D01*
X48934Y-38426D01*
X49090Y-38490D01*
X49259Y-38491D01*
X49415Y-38426D01*
X49535Y-38307D01*
X49600Y-38150D01*
X49600Y-37981D01*
X49600Y-39730D01*
X41542Y-39730D01*
X41762Y-39510D01*
X41899Y-39179D01*
X41900Y-38821D01*
X41763Y-38490D01*
X41510Y-38237D01*
X41179Y-38100D01*
X40821Y-38099D01*
X40490Y-38236D01*
X40269Y-38457D01*
X40269Y-31542D01*
X40489Y-31762D01*
X40820Y-31899D01*
X41178Y-31900D01*
X41509Y-31763D01*
X41762Y-31510D01*
X41899Y-31179D01*
X41900Y-30821D01*
X41763Y-30490D01*
X41542Y-30269D01*
X53457Y-30269D01*
X53237Y-30489D01*
X53100Y-30820D01*
X53099Y-31178D01*
X53236Y-31509D01*
X53489Y-31762D01*
X53820Y-31899D01*
X54178Y-31900D01*
X54509Y-31763D01*
X54730Y-31542D01*
X54730Y-38457D01*
M02*
