G04 (created by PCBNEW (2013-mar-13)-testing) date Sat 10 Aug 2013 01:32:29 PM PDT*
%MOIN*%
G04 Gerber Fmt 3.4, Leading zero omitted, Abs format*
%FSLAX34Y34*%
G01*
G70*
G90*
G04 APERTURE LIST*
%ADD10C,0.005906*%
%ADD11C,0.008000*%
%ADD12C,0.005000*%
%ADD13C,0.003900*%
%ADD14C,0.015000*%
%ADD15C,0.004500*%
%ADD16C,0.004300*%
G04 APERTURE END LIST*
G54D10*
G54D11*
X43014Y-39321D02*
X43071Y-39340D01*
X43090Y-39359D01*
X43109Y-39397D01*
X43109Y-39454D01*
X43090Y-39492D01*
X43071Y-39511D01*
X43033Y-39530D01*
X42880Y-39530D01*
X42880Y-39130D01*
X43014Y-39130D01*
X43052Y-39150D01*
X43071Y-39169D01*
X43090Y-39207D01*
X43090Y-39245D01*
X43071Y-39283D01*
X43052Y-39302D01*
X43014Y-39321D01*
X42880Y-39321D01*
X43452Y-39530D02*
X43452Y-39321D01*
X43433Y-39283D01*
X43395Y-39264D01*
X43319Y-39264D01*
X43280Y-39283D01*
X43452Y-39511D02*
X43414Y-39530D01*
X43319Y-39530D01*
X43280Y-39511D01*
X43261Y-39473D01*
X43261Y-39435D01*
X43280Y-39397D01*
X43319Y-39378D01*
X43414Y-39378D01*
X43452Y-39359D01*
X43814Y-39511D02*
X43776Y-39530D01*
X43700Y-39530D01*
X43661Y-39511D01*
X43642Y-39492D01*
X43623Y-39454D01*
X43623Y-39340D01*
X43642Y-39302D01*
X43661Y-39283D01*
X43700Y-39264D01*
X43776Y-39264D01*
X43814Y-39283D01*
X43985Y-39530D02*
X43985Y-39130D01*
X44023Y-39378D02*
X44138Y-39530D01*
X44138Y-39264D02*
X43985Y-39416D01*
X44290Y-39511D02*
X44328Y-39530D01*
X44404Y-39530D01*
X44442Y-39511D01*
X44461Y-39473D01*
X44461Y-39454D01*
X44442Y-39416D01*
X44404Y-39397D01*
X44347Y-39397D01*
X44309Y-39378D01*
X44290Y-39340D01*
X44290Y-39321D01*
X44309Y-39283D01*
X44347Y-39264D01*
X44404Y-39264D01*
X44442Y-39283D01*
X44804Y-39511D02*
X44766Y-39530D01*
X44690Y-39530D01*
X44652Y-39511D01*
X44633Y-39492D01*
X44614Y-39454D01*
X44614Y-39340D01*
X44633Y-39302D01*
X44652Y-39283D01*
X44690Y-39264D01*
X44766Y-39264D01*
X44804Y-39283D01*
X45147Y-39530D02*
X45147Y-39321D01*
X45128Y-39283D01*
X45090Y-39264D01*
X45014Y-39264D01*
X44976Y-39283D01*
X45147Y-39511D02*
X45109Y-39530D01*
X45014Y-39530D01*
X44976Y-39511D01*
X44957Y-39473D01*
X44957Y-39435D01*
X44976Y-39397D01*
X45014Y-39378D01*
X45109Y-39378D01*
X45147Y-39359D01*
X45280Y-39264D02*
X45433Y-39264D01*
X45338Y-39130D02*
X45338Y-39473D01*
X45357Y-39511D01*
X45395Y-39530D01*
X45433Y-39530D01*
X45509Y-39264D02*
X45661Y-39264D01*
X45566Y-39130D02*
X45566Y-39473D01*
X45585Y-39511D01*
X45623Y-39530D01*
X45661Y-39530D01*
X45947Y-39511D02*
X45909Y-39530D01*
X45833Y-39530D01*
X45795Y-39511D01*
X45776Y-39473D01*
X45776Y-39321D01*
X45795Y-39283D01*
X45833Y-39264D01*
X45909Y-39264D01*
X45947Y-39283D01*
X45966Y-39321D01*
X45966Y-39359D01*
X45776Y-39397D01*
X46138Y-39530D02*
X46138Y-39264D01*
X46138Y-39340D02*
X46157Y-39302D01*
X46176Y-39283D01*
X46214Y-39264D01*
X46252Y-39264D01*
X46671Y-39511D02*
X46728Y-39530D01*
X46823Y-39530D01*
X46861Y-39511D01*
X46880Y-39492D01*
X46900Y-39454D01*
X46900Y-39416D01*
X46880Y-39378D01*
X46861Y-39359D01*
X46823Y-39340D01*
X46747Y-39321D01*
X46709Y-39302D01*
X46690Y-39283D01*
X46671Y-39245D01*
X46671Y-39207D01*
X46690Y-39169D01*
X46709Y-39150D01*
X46747Y-39130D01*
X46842Y-39130D01*
X46900Y-39150D01*
X47223Y-39511D02*
X47185Y-39530D01*
X47109Y-39530D01*
X47071Y-39511D01*
X47052Y-39473D01*
X47052Y-39321D01*
X47071Y-39283D01*
X47109Y-39264D01*
X47185Y-39264D01*
X47223Y-39283D01*
X47242Y-39321D01*
X47242Y-39359D01*
X47052Y-39397D01*
X47414Y-39264D02*
X47414Y-39530D01*
X47414Y-39302D02*
X47433Y-39283D01*
X47471Y-39264D01*
X47528Y-39264D01*
X47566Y-39283D01*
X47585Y-39321D01*
X47585Y-39530D01*
X47757Y-39511D02*
X47795Y-39530D01*
X47871Y-39530D01*
X47909Y-39511D01*
X47928Y-39473D01*
X47928Y-39454D01*
X47909Y-39416D01*
X47871Y-39397D01*
X47814Y-39397D01*
X47776Y-39378D01*
X47757Y-39340D01*
X47757Y-39321D01*
X47776Y-39283D01*
X47814Y-39264D01*
X47871Y-39264D01*
X47909Y-39283D01*
X48157Y-39530D02*
X48119Y-39511D01*
X48100Y-39492D01*
X48080Y-39454D01*
X48080Y-39340D01*
X48100Y-39302D01*
X48119Y-39283D01*
X48157Y-39264D01*
X48214Y-39264D01*
X48252Y-39283D01*
X48271Y-39302D01*
X48290Y-39340D01*
X48290Y-39454D01*
X48271Y-39492D01*
X48252Y-39511D01*
X48214Y-39530D01*
X48157Y-39530D01*
X48461Y-39530D02*
X48461Y-39264D01*
X48461Y-39340D02*
X48480Y-39302D01*
X48500Y-39283D01*
X48538Y-39264D01*
X48576Y-39264D01*
X49147Y-39321D02*
X49204Y-39340D01*
X49223Y-39359D01*
X49242Y-39397D01*
X49242Y-39454D01*
X49223Y-39492D01*
X49204Y-39511D01*
X49166Y-39530D01*
X49014Y-39530D01*
X49014Y-39130D01*
X49147Y-39130D01*
X49185Y-39150D01*
X49204Y-39169D01*
X49223Y-39207D01*
X49223Y-39245D01*
X49204Y-39283D01*
X49185Y-39302D01*
X49147Y-39321D01*
X49014Y-39321D01*
X49471Y-39530D02*
X49433Y-39511D01*
X49414Y-39492D01*
X49395Y-39454D01*
X49395Y-39340D01*
X49414Y-39302D01*
X49433Y-39283D01*
X49471Y-39264D01*
X49528Y-39264D01*
X49566Y-39283D01*
X49585Y-39302D01*
X49604Y-39340D01*
X49604Y-39454D01*
X49585Y-39492D01*
X49566Y-39511D01*
X49528Y-39530D01*
X49471Y-39530D01*
X49947Y-39530D02*
X49947Y-39321D01*
X49928Y-39283D01*
X49890Y-39264D01*
X49814Y-39264D01*
X49776Y-39283D01*
X49947Y-39511D02*
X49909Y-39530D01*
X49814Y-39530D01*
X49776Y-39511D01*
X49757Y-39473D01*
X49757Y-39435D01*
X49776Y-39397D01*
X49814Y-39378D01*
X49909Y-39378D01*
X49947Y-39359D01*
X50138Y-39530D02*
X50138Y-39264D01*
X50138Y-39340D02*
X50157Y-39302D01*
X50176Y-39283D01*
X50214Y-39264D01*
X50252Y-39264D01*
X50557Y-39530D02*
X50557Y-39130D01*
X50557Y-39511D02*
X50519Y-39530D01*
X50442Y-39530D01*
X50404Y-39511D01*
X50385Y-39492D01*
X50366Y-39454D01*
X50366Y-39340D01*
X50385Y-39302D01*
X50404Y-39283D01*
X50442Y-39264D01*
X50519Y-39264D01*
X50557Y-39283D01*
X51014Y-39264D02*
X51109Y-39530D01*
X51204Y-39264D01*
X51566Y-39530D02*
X51338Y-39530D01*
X51452Y-39530D02*
X51452Y-39130D01*
X51414Y-39188D01*
X51376Y-39226D01*
X51338Y-39245D01*
X51738Y-39492D02*
X51757Y-39511D01*
X51738Y-39530D01*
X51719Y-39511D01*
X51738Y-39492D01*
X51738Y-39530D01*
X52004Y-39130D02*
X52042Y-39130D01*
X52080Y-39150D01*
X52099Y-39169D01*
X52119Y-39207D01*
X52138Y-39283D01*
X52138Y-39378D01*
X52119Y-39454D01*
X52099Y-39492D01*
X52080Y-39511D01*
X52042Y-39530D01*
X52004Y-39530D01*
X51966Y-39511D01*
X51947Y-39492D01*
X51928Y-39454D01*
X51909Y-39378D01*
X51909Y-39283D01*
X51928Y-39207D01*
X51947Y-39169D01*
X51966Y-39150D01*
X52004Y-39130D01*
X45878Y-30680D02*
X45878Y-30280D01*
X46145Y-30280D02*
X46221Y-30280D01*
X46259Y-30300D01*
X46297Y-30338D01*
X46316Y-30414D01*
X46316Y-30547D01*
X46297Y-30623D01*
X46259Y-30661D01*
X46221Y-30680D01*
X46145Y-30680D01*
X46107Y-30661D01*
X46069Y-30623D01*
X46050Y-30547D01*
X46050Y-30414D01*
X46069Y-30338D01*
X46107Y-30300D01*
X46145Y-30280D01*
X47021Y-30680D02*
X46888Y-30490D01*
X46792Y-30680D02*
X46792Y-30280D01*
X46945Y-30280D01*
X46983Y-30300D01*
X47002Y-30319D01*
X47021Y-30357D01*
X47021Y-30414D01*
X47002Y-30452D01*
X46983Y-30471D01*
X46945Y-30490D01*
X46792Y-30490D01*
X47250Y-30680D02*
X47211Y-30661D01*
X47192Y-30642D01*
X47173Y-30604D01*
X47173Y-30490D01*
X47192Y-30452D01*
X47211Y-30433D01*
X47250Y-30414D01*
X47307Y-30414D01*
X47345Y-30433D01*
X47364Y-30452D01*
X47383Y-30490D01*
X47383Y-30604D01*
X47364Y-30642D01*
X47345Y-30661D01*
X47307Y-30680D01*
X47250Y-30680D01*
X47726Y-30680D02*
X47726Y-30280D01*
X47726Y-30661D02*
X47688Y-30680D01*
X47611Y-30680D01*
X47573Y-30661D01*
X47554Y-30642D01*
X47535Y-30604D01*
X47535Y-30490D01*
X47554Y-30452D01*
X47573Y-30433D01*
X47611Y-30414D01*
X47688Y-30414D01*
X47726Y-30433D01*
X48069Y-30661D02*
X48030Y-30680D01*
X47954Y-30680D01*
X47916Y-30661D01*
X47897Y-30623D01*
X47897Y-30471D01*
X47916Y-30433D01*
X47954Y-30414D01*
X48030Y-30414D01*
X48069Y-30433D01*
X48088Y-30471D01*
X48088Y-30509D01*
X47897Y-30547D01*
X48316Y-30680D02*
X48278Y-30661D01*
X48259Y-30642D01*
X48240Y-30604D01*
X48240Y-30490D01*
X48259Y-30452D01*
X48278Y-30433D01*
X48316Y-30414D01*
X48373Y-30414D01*
X48411Y-30433D01*
X48430Y-30452D01*
X48450Y-30490D01*
X48450Y-30604D01*
X48430Y-30642D01*
X48411Y-30661D01*
X48373Y-30680D01*
X48316Y-30680D01*
X48926Y-30680D02*
X48926Y-30280D01*
X49116Y-30414D02*
X49116Y-30680D01*
X49116Y-30452D02*
X49135Y-30433D01*
X49173Y-30414D01*
X49230Y-30414D01*
X49269Y-30433D01*
X49288Y-30471D01*
X49288Y-30680D01*
X49650Y-30661D02*
X49611Y-30680D01*
X49535Y-30680D01*
X49497Y-30661D01*
X49478Y-30642D01*
X49459Y-30604D01*
X49459Y-30490D01*
X49478Y-30452D01*
X49497Y-30433D01*
X49535Y-30414D01*
X49611Y-30414D01*
X49650Y-30433D01*
X49821Y-30642D02*
X49840Y-30661D01*
X49821Y-30680D01*
X49802Y-30661D01*
X49821Y-30642D01*
X49821Y-30680D01*
G54D12*
X46200Y-34650D02*
X45300Y-34650D01*
X45300Y-34650D02*
X45300Y-34150D01*
X45300Y-34150D02*
X46200Y-34150D01*
X46200Y-34150D02*
X46200Y-34650D01*
G54D13*
X51450Y-34700D02*
G75*
G03X51450Y-34700I-50J0D01*
G74*
G01*
X51850Y-34700D02*
X51450Y-34700D01*
X51450Y-34700D02*
X51450Y-34100D01*
X51450Y-34100D02*
X51850Y-34100D01*
X52250Y-34100D02*
X52650Y-34100D01*
X52650Y-34100D02*
X52650Y-34700D01*
X52650Y-34700D02*
X52250Y-34700D01*
X51450Y-33450D02*
G75*
G03X51450Y-33450I-50J0D01*
G74*
G01*
X51850Y-33450D02*
X51450Y-33450D01*
X51450Y-33450D02*
X51450Y-32850D01*
X51450Y-32850D02*
X51850Y-32850D01*
X52250Y-32850D02*
X52650Y-32850D01*
X52650Y-32850D02*
X52650Y-33450D01*
X52650Y-33450D02*
X52250Y-33450D01*
X51450Y-32300D02*
G75*
G03X51450Y-32300I-50J0D01*
G74*
G01*
X51850Y-32300D02*
X51450Y-32300D01*
X51450Y-32300D02*
X51450Y-31700D01*
X51450Y-31700D02*
X51850Y-31700D01*
X52250Y-31700D02*
X52650Y-31700D01*
X52650Y-31700D02*
X52650Y-32300D01*
X52650Y-32300D02*
X52250Y-32300D01*
G54D14*
X48159Y-32016D02*
X49341Y-32016D01*
X49341Y-32016D02*
X49341Y-33787D01*
X49341Y-33787D02*
X49144Y-33984D01*
X49144Y-33984D02*
X48159Y-33984D01*
X48159Y-33984D02*
X48159Y-32016D01*
X49537Y-35419D02*
X49537Y-37584D01*
X49537Y-37584D02*
X49341Y-37781D01*
X49341Y-37781D02*
X47963Y-37781D01*
X47963Y-37781D02*
X47963Y-35419D01*
X47963Y-35419D02*
X49537Y-35419D01*
G54D15*
X45720Y-34471D02*
X45711Y-34480D01*
X45685Y-34490D01*
X45668Y-34490D01*
X45642Y-34480D01*
X45625Y-34461D01*
X45617Y-34442D01*
X45608Y-34404D01*
X45608Y-34376D01*
X45617Y-34338D01*
X45625Y-34319D01*
X45642Y-34300D01*
X45668Y-34290D01*
X45685Y-34290D01*
X45711Y-34300D01*
X45720Y-34309D01*
X45891Y-34490D02*
X45788Y-34490D01*
X45840Y-34490D02*
X45840Y-34290D01*
X45822Y-34319D01*
X45805Y-34338D01*
X45788Y-34347D01*
X46435Y-34290D02*
X46452Y-34290D01*
X46470Y-34300D01*
X46478Y-34309D01*
X46487Y-34328D01*
X46495Y-34366D01*
X46495Y-34414D01*
X46487Y-34452D01*
X46478Y-34471D01*
X46470Y-34480D01*
X46452Y-34490D01*
X46435Y-34490D01*
X46418Y-34480D01*
X46410Y-34471D01*
X46401Y-34452D01*
X46392Y-34414D01*
X46392Y-34366D01*
X46401Y-34328D01*
X46410Y-34309D01*
X46418Y-34300D01*
X46435Y-34290D01*
X46572Y-34471D02*
X46581Y-34480D01*
X46572Y-34490D01*
X46564Y-34480D01*
X46572Y-34471D01*
X46572Y-34490D01*
X46752Y-34490D02*
X46650Y-34490D01*
X46701Y-34490D02*
X46701Y-34290D01*
X46684Y-34319D01*
X46667Y-34338D01*
X46650Y-34347D01*
X47044Y-34357D02*
X47044Y-34490D01*
X46967Y-34357D02*
X46967Y-34461D01*
X46975Y-34480D01*
X46992Y-34490D01*
X47018Y-34490D01*
X47035Y-34480D01*
X47044Y-34471D01*
X47190Y-34385D02*
X47130Y-34385D01*
X47130Y-34490D02*
X47130Y-34290D01*
X47215Y-34290D01*
G54D16*
X52017Y-34489D02*
X51951Y-34395D01*
X51904Y-34489D02*
X51904Y-34292D01*
X51979Y-34292D01*
X51998Y-34301D01*
X52007Y-34310D01*
X52017Y-34329D01*
X52017Y-34357D01*
X52007Y-34376D01*
X51998Y-34385D01*
X51979Y-34395D01*
X51904Y-34395D01*
X52204Y-34489D02*
X52092Y-34489D01*
X52148Y-34489D02*
X52148Y-34292D01*
X52129Y-34320D01*
X52110Y-34339D01*
X52092Y-34348D01*
X52868Y-34489D02*
X52906Y-34489D01*
X52924Y-34479D01*
X52934Y-34470D01*
X52953Y-34442D01*
X52962Y-34404D01*
X52962Y-34329D01*
X52953Y-34310D01*
X52943Y-34301D01*
X52924Y-34292D01*
X52887Y-34292D01*
X52868Y-34301D01*
X52859Y-34310D01*
X52849Y-34329D01*
X52849Y-34376D01*
X52859Y-34395D01*
X52868Y-34404D01*
X52887Y-34414D01*
X52924Y-34414D01*
X52943Y-34404D01*
X52953Y-34395D01*
X52962Y-34376D01*
X53084Y-34292D02*
X53103Y-34292D01*
X53121Y-34301D01*
X53131Y-34310D01*
X53140Y-34329D01*
X53150Y-34367D01*
X53150Y-34414D01*
X53140Y-34451D01*
X53131Y-34470D01*
X53121Y-34479D01*
X53103Y-34489D01*
X53084Y-34489D01*
X53065Y-34479D01*
X53056Y-34470D01*
X53046Y-34451D01*
X53037Y-34414D01*
X53037Y-34367D01*
X53046Y-34329D01*
X53056Y-34310D01*
X53065Y-34301D01*
X53084Y-34292D01*
X52017Y-33239D02*
X51951Y-33145D01*
X51904Y-33239D02*
X51904Y-33042D01*
X51979Y-33042D01*
X51998Y-33051D01*
X52007Y-33060D01*
X52017Y-33079D01*
X52017Y-33107D01*
X52007Y-33126D01*
X51998Y-33135D01*
X51979Y-33145D01*
X51904Y-33145D01*
X52092Y-33060D02*
X52101Y-33051D01*
X52120Y-33042D01*
X52167Y-33042D01*
X52186Y-33051D01*
X52195Y-33060D01*
X52204Y-33079D01*
X52204Y-33098D01*
X52195Y-33126D01*
X52082Y-33239D01*
X52204Y-33239D01*
X52868Y-33289D02*
X52906Y-33289D01*
X52924Y-33279D01*
X52934Y-33270D01*
X52953Y-33242D01*
X52962Y-33204D01*
X52962Y-33129D01*
X52953Y-33110D01*
X52943Y-33101D01*
X52924Y-33092D01*
X52887Y-33092D01*
X52868Y-33101D01*
X52859Y-33110D01*
X52849Y-33129D01*
X52849Y-33176D01*
X52859Y-33195D01*
X52868Y-33204D01*
X52887Y-33214D01*
X52924Y-33214D01*
X52943Y-33204D01*
X52953Y-33195D01*
X52962Y-33176D01*
X53084Y-33092D02*
X53103Y-33092D01*
X53121Y-33101D01*
X53131Y-33110D01*
X53140Y-33129D01*
X53150Y-33167D01*
X53150Y-33214D01*
X53140Y-33251D01*
X53131Y-33270D01*
X53121Y-33279D01*
X53103Y-33289D01*
X53084Y-33289D01*
X53065Y-33279D01*
X53056Y-33270D01*
X53046Y-33251D01*
X53037Y-33214D01*
X53037Y-33167D01*
X53046Y-33129D01*
X53056Y-33110D01*
X53065Y-33101D01*
X53084Y-33092D01*
X52017Y-32089D02*
X51951Y-31995D01*
X51904Y-32089D02*
X51904Y-31892D01*
X51979Y-31892D01*
X51998Y-31901D01*
X52007Y-31910D01*
X52017Y-31929D01*
X52017Y-31957D01*
X52007Y-31976D01*
X51998Y-31985D01*
X51979Y-31995D01*
X51904Y-31995D01*
X52082Y-31892D02*
X52204Y-31892D01*
X52139Y-31967D01*
X52167Y-31967D01*
X52186Y-31976D01*
X52195Y-31985D01*
X52204Y-32004D01*
X52204Y-32051D01*
X52195Y-32070D01*
X52186Y-32079D01*
X52167Y-32089D01*
X52110Y-32089D01*
X52092Y-32079D01*
X52082Y-32070D01*
X52868Y-32089D02*
X52756Y-32089D01*
X52812Y-32089D02*
X52812Y-31892D01*
X52793Y-31920D01*
X52774Y-31939D01*
X52756Y-31948D01*
X53046Y-31892D02*
X52953Y-31892D01*
X52943Y-31985D01*
X52953Y-31976D01*
X52971Y-31967D01*
X53018Y-31967D01*
X53037Y-31976D01*
X53046Y-31985D01*
X53056Y-32004D01*
X53056Y-32051D01*
X53046Y-32070D01*
X53037Y-32079D01*
X53018Y-32089D01*
X52971Y-32089D01*
X52953Y-32079D01*
X52943Y-32070D01*
X53178Y-31892D02*
X53197Y-31892D01*
X53215Y-31901D01*
X53225Y-31910D01*
X53234Y-31929D01*
X53243Y-31967D01*
X53243Y-32014D01*
X53234Y-32051D01*
X53225Y-32070D01*
X53215Y-32079D01*
X53197Y-32089D01*
X53178Y-32089D01*
X53159Y-32079D01*
X53150Y-32070D01*
X53140Y-32051D01*
X53131Y-32014D01*
X53131Y-31967D01*
X53140Y-31929D01*
X53150Y-31910D01*
X53159Y-31901D01*
X53178Y-31892D01*
G54D11*
X48495Y-31380D02*
X48495Y-31704D01*
X48514Y-31742D01*
X48533Y-31761D01*
X48571Y-31780D01*
X48647Y-31780D01*
X48685Y-31761D01*
X48704Y-31742D01*
X48723Y-31704D01*
X48723Y-31380D01*
X49123Y-31780D02*
X48895Y-31780D01*
X49009Y-31780D02*
X49009Y-31380D01*
X48971Y-31438D01*
X48933Y-31476D01*
X48895Y-31495D01*
X48495Y-34780D02*
X48495Y-35104D01*
X48514Y-35142D01*
X48533Y-35161D01*
X48571Y-35180D01*
X48647Y-35180D01*
X48685Y-35161D01*
X48704Y-35142D01*
X48723Y-35104D01*
X48723Y-34780D01*
X48895Y-34819D02*
X48914Y-34800D01*
X48952Y-34780D01*
X49047Y-34780D01*
X49085Y-34800D01*
X49104Y-34819D01*
X49123Y-34857D01*
X49123Y-34895D01*
X49104Y-34952D01*
X48876Y-35180D01*
X49123Y-35180D01*
M02*
