G04 (created by PCBNEW (2013-mar-13)-testing) date Sat 10 Aug 2013 01:32:29 PM PDT*
%MOIN*%
G04 Gerber Fmt 3.4, Leading zero omitted, Abs format*
%FSLAX34Y34*%
G01*
G70*
G90*
G04 APERTURE LIST*
%ADD10C,0.005906*%
%ADD11R,0.025000X0.045000*%
%ADD12R,0.070000X0.070000*%
%ADD13C,0.070000*%
%ADD14R,0.035000X0.055000*%
%ADD15R,0.051200X0.027600*%
%ADD16R,0.088600X0.019700*%
%ADD17C,0.130000*%
%ADD18C,0.035000*%
%ADD19C,0.010000*%
G04 APERTURE END LIST*
G54D10*
G54D11*
X46050Y-34400D03*
X45450Y-34400D03*
G54D12*
X44250Y-33000D03*
G54D13*
X43250Y-33000D03*
X44250Y-34000D03*
X43250Y-34000D03*
X44250Y-35000D03*
X43250Y-35000D03*
X44250Y-36000D03*
X43250Y-36000D03*
X44250Y-37000D03*
X43250Y-37000D03*
G54D14*
X51675Y-34400D03*
X52425Y-34400D03*
X51675Y-33150D03*
X52425Y-33150D03*
X51675Y-32000D03*
X52425Y-32000D03*
G54D15*
X48169Y-32567D03*
X48169Y-33000D03*
X48169Y-33433D03*
X49331Y-32567D03*
X49331Y-33000D03*
X49331Y-33433D03*
G54D16*
X47835Y-37350D03*
X47835Y-36850D03*
X47835Y-36350D03*
X47835Y-35850D03*
X49666Y-37350D03*
X49666Y-36850D03*
X49666Y-36350D03*
X49666Y-35850D03*
G54D17*
X41000Y-31000D03*
X54000Y-31000D03*
X41000Y-39000D03*
X54000Y-39000D03*
G54D18*
X49175Y-38065D03*
G54D19*
X46050Y-34400D02*
X45774Y-34400D01*
X47241Y-35316D02*
X46325Y-34400D01*
X47241Y-35850D02*
X47241Y-35316D01*
X47835Y-35850D02*
X47241Y-35850D01*
X46050Y-34400D02*
X46325Y-34400D01*
X45774Y-34024D02*
X44750Y-33000D01*
X45774Y-34400D02*
X45774Y-34024D01*
X44250Y-33000D02*
X44750Y-33000D01*
X47835Y-36350D02*
X48428Y-36350D01*
X48428Y-36378D02*
X49148Y-37098D01*
X48428Y-36350D02*
X48428Y-36378D01*
X42724Y-36525D02*
X43250Y-36000D01*
X42724Y-37213D02*
X42724Y-36525D01*
X43232Y-37722D02*
X42724Y-37213D01*
X50074Y-37722D02*
X43232Y-37722D01*
X50259Y-37537D02*
X50074Y-37722D01*
X50259Y-37176D02*
X50259Y-37537D01*
X50180Y-37098D02*
X50259Y-37176D01*
X49148Y-37098D02*
X50180Y-37098D01*
X45848Y-36598D02*
X44250Y-35000D01*
X48337Y-36598D02*
X45848Y-36598D01*
X49072Y-37334D02*
X48337Y-36598D01*
X49072Y-37350D02*
X49072Y-37334D01*
X49665Y-37350D02*
X49072Y-37350D01*
X50474Y-37065D02*
X50474Y-37623D01*
X50259Y-36850D02*
X50474Y-37065D01*
X49665Y-36850D02*
X50259Y-36850D01*
X50031Y-38065D02*
X49175Y-38065D01*
X50474Y-37623D02*
X50031Y-38065D01*
X44400Y-36850D02*
X44250Y-37000D01*
X47835Y-36850D02*
X44400Y-36850D01*
X47835Y-37350D02*
X47241Y-37350D01*
X47241Y-37350D02*
X47091Y-37500D01*
X43750Y-37500D02*
X43250Y-37000D01*
X47091Y-37500D02*
X43750Y-37500D01*
X48169Y-33432D02*
X48575Y-33432D01*
X42543Y-34293D02*
X43250Y-35000D01*
X42543Y-32696D02*
X42543Y-34293D01*
X43160Y-32078D02*
X42543Y-32696D01*
X48572Y-32078D02*
X43160Y-32078D01*
X48775Y-32281D02*
X48572Y-32078D01*
X48775Y-33232D02*
X48775Y-32281D01*
X48575Y-33432D02*
X48775Y-33232D01*
X43250Y-34000D02*
X42743Y-33493D01*
X42743Y-33493D02*
X42743Y-32779D01*
X48575Y-32364D02*
X48575Y-33000D01*
X48489Y-32278D02*
X48575Y-32364D01*
X43243Y-32278D02*
X48489Y-32278D01*
X42743Y-32779D02*
X43243Y-32278D01*
X48169Y-33000D02*
X48575Y-33000D01*
X43750Y-32499D02*
X43250Y-33000D01*
X47695Y-32499D02*
X43750Y-32499D01*
X47762Y-32567D02*
X47695Y-32499D01*
X48169Y-32567D02*
X47762Y-32567D01*
X44774Y-34000D02*
X45174Y-34400D01*
X44250Y-34000D02*
X44774Y-34000D01*
X52425Y-32000D02*
X52425Y-33150D01*
X52425Y-33150D02*
X52425Y-34400D01*
X45450Y-34400D02*
X45174Y-34400D01*
X49665Y-36350D02*
X49072Y-36350D01*
X52425Y-34400D02*
X52099Y-34400D01*
X50893Y-35850D02*
X49665Y-35850D01*
X52099Y-34643D02*
X50893Y-35850D01*
X52099Y-34400D02*
X52099Y-34643D01*
X49665Y-35850D02*
X49072Y-35850D01*
X49072Y-35850D02*
X48824Y-36098D01*
X47148Y-36098D02*
X48824Y-36098D01*
X45450Y-34400D02*
X47148Y-36098D01*
X49072Y-36347D02*
X49072Y-36350D01*
X48824Y-36098D02*
X49072Y-36347D01*
X51199Y-33000D02*
X51349Y-33150D01*
X49330Y-33000D02*
X51199Y-33000D01*
X51675Y-33150D02*
X51349Y-33150D01*
X50782Y-32567D02*
X51349Y-32000D01*
X49330Y-32567D02*
X50782Y-32567D01*
X51675Y-32000D02*
X51349Y-32000D01*
X50704Y-34400D02*
X51675Y-34400D01*
X49737Y-33432D02*
X50704Y-34400D01*
X49330Y-33432D02*
X49737Y-33432D01*
G54D10*
G36*
X47169Y-36135D02*
X47142Y-36201D01*
X47142Y-36298D01*
X45972Y-36298D01*
X45425Y-35750D01*
X45425Y-34887D01*
X45425Y-34425D01*
X45062Y-34425D01*
X44975Y-34512D01*
X44975Y-34555D01*
X44975Y-34694D01*
X45028Y-34823D01*
X45126Y-34921D01*
X45255Y-34975D01*
X45337Y-34975D01*
X45425Y-34887D01*
X45425Y-35750D01*
X44950Y-35276D01*
X44833Y-35159D01*
X44849Y-35119D01*
X44850Y-34881D01*
X44758Y-34660D01*
X44655Y-34557D01*
X44674Y-34460D01*
X44250Y-34035D01*
X43825Y-34460D01*
X43844Y-34557D01*
X43749Y-34651D01*
X43598Y-34499D01*
X43692Y-34405D01*
X43789Y-34424D01*
X44214Y-34000D01*
X44209Y-33994D01*
X44244Y-33959D01*
X44250Y-33964D01*
X44255Y-33959D01*
X44290Y-33994D01*
X44285Y-34000D01*
X44710Y-34424D01*
X44841Y-34399D01*
X44949Y-34142D01*
X44950Y-33863D01*
X44845Y-33605D01*
X44841Y-33600D01*
X44710Y-33575D01*
X44710Y-33574D01*
X44741Y-33561D01*
X44811Y-33491D01*
X44813Y-33487D01*
X45181Y-33855D01*
X45126Y-33878D01*
X45028Y-33976D01*
X44975Y-34105D01*
X44975Y-34244D01*
X44975Y-34287D01*
X45062Y-34375D01*
X45425Y-34375D01*
X45425Y-34367D01*
X45474Y-34367D01*
X45474Y-34400D01*
X45479Y-34425D01*
X45475Y-34425D01*
X45475Y-34887D01*
X45562Y-34975D01*
X45644Y-34975D01*
X45773Y-34921D01*
X45836Y-34858D01*
X45875Y-34875D01*
X45974Y-34875D01*
X46224Y-34875D01*
X46316Y-34836D01*
X46327Y-34826D01*
X46941Y-35441D01*
X46941Y-35850D01*
X46964Y-35964D01*
X47029Y-36062D01*
X47127Y-36127D01*
X47169Y-36135D01*
X47169Y-36135D01*
G37*
G54D19*
X47169Y-36135D02*
X47142Y-36201D01*
X47142Y-36298D01*
X45972Y-36298D01*
X45425Y-35750D01*
X45425Y-34887D01*
X45425Y-34425D01*
X45062Y-34425D01*
X44975Y-34512D01*
X44975Y-34555D01*
X44975Y-34694D01*
X45028Y-34823D01*
X45126Y-34921D01*
X45255Y-34975D01*
X45337Y-34975D01*
X45425Y-34887D01*
X45425Y-35750D01*
X44950Y-35276D01*
X44833Y-35159D01*
X44849Y-35119D01*
X44850Y-34881D01*
X44758Y-34660D01*
X44655Y-34557D01*
X44674Y-34460D01*
X44250Y-34035D01*
X43825Y-34460D01*
X43844Y-34557D01*
X43749Y-34651D01*
X43598Y-34499D01*
X43692Y-34405D01*
X43789Y-34424D01*
X44214Y-34000D01*
X44209Y-33994D01*
X44244Y-33959D01*
X44250Y-33964D01*
X44255Y-33959D01*
X44290Y-33994D01*
X44285Y-34000D01*
X44710Y-34424D01*
X44841Y-34399D01*
X44949Y-34142D01*
X44950Y-33863D01*
X44845Y-33605D01*
X44841Y-33600D01*
X44710Y-33575D01*
X44710Y-33574D01*
X44741Y-33561D01*
X44811Y-33491D01*
X44813Y-33487D01*
X45181Y-33855D01*
X45126Y-33878D01*
X45028Y-33976D01*
X44975Y-34105D01*
X44975Y-34244D01*
X44975Y-34287D01*
X45062Y-34375D01*
X45425Y-34375D01*
X45425Y-34367D01*
X45474Y-34367D01*
X45474Y-34400D01*
X45479Y-34425D01*
X45475Y-34425D01*
X45475Y-34887D01*
X45562Y-34975D01*
X45644Y-34975D01*
X45773Y-34921D01*
X45836Y-34858D01*
X45875Y-34875D01*
X45974Y-34875D01*
X46224Y-34875D01*
X46316Y-34836D01*
X46327Y-34826D01*
X46941Y-35441D01*
X46941Y-35850D01*
X46964Y-35964D01*
X47029Y-36062D01*
X47127Y-36127D01*
X47169Y-36135D01*
G54D10*
G36*
X54730Y-38457D02*
X54510Y-38237D01*
X54179Y-38100D01*
X53821Y-38099D01*
X53490Y-38236D01*
X53237Y-38489D01*
X53100Y-38820D01*
X53099Y-39178D01*
X53236Y-39509D01*
X53457Y-39730D01*
X52950Y-39730D01*
X52950Y-34744D01*
X52950Y-34605D01*
X52950Y-34512D01*
X52950Y-34287D01*
X52950Y-34194D01*
X52950Y-34055D01*
X52896Y-33926D01*
X52798Y-33828D01*
X52669Y-33775D01*
X52798Y-33721D01*
X52896Y-33623D01*
X52950Y-33494D01*
X52950Y-33355D01*
X52950Y-33262D01*
X52950Y-33037D01*
X52950Y-32944D01*
X52950Y-32805D01*
X52896Y-32676D01*
X52798Y-32578D01*
X52790Y-32575D01*
X52798Y-32571D01*
X52896Y-32473D01*
X52950Y-32344D01*
X52950Y-32205D01*
X52950Y-32112D01*
X52950Y-31887D01*
X52950Y-31794D01*
X52950Y-31655D01*
X52896Y-31526D01*
X52798Y-31428D01*
X52669Y-31375D01*
X52537Y-31375D01*
X52450Y-31462D01*
X52450Y-31975D01*
X52862Y-31975D01*
X52950Y-31887D01*
X52950Y-32112D01*
X52862Y-32025D01*
X52450Y-32025D01*
X52450Y-32537D01*
X52487Y-32575D01*
X52450Y-32612D01*
X52450Y-33125D01*
X52862Y-33125D01*
X52950Y-33037D01*
X52950Y-33262D01*
X52862Y-33175D01*
X52450Y-33175D01*
X52450Y-33687D01*
X52537Y-33775D01*
X52450Y-33862D01*
X52450Y-34375D01*
X52862Y-34375D01*
X52950Y-34287D01*
X52950Y-34512D01*
X52862Y-34425D01*
X52450Y-34425D01*
X52450Y-34937D01*
X52537Y-35025D01*
X52669Y-35025D01*
X52798Y-34971D01*
X52896Y-34873D01*
X52950Y-34744D01*
X52950Y-39730D01*
X52400Y-39730D01*
X52400Y-34937D01*
X52400Y-34425D01*
X52392Y-34425D01*
X52392Y-34375D01*
X52400Y-34375D01*
X52400Y-33862D01*
X52312Y-33775D01*
X52400Y-33687D01*
X52400Y-33175D01*
X52392Y-33175D01*
X52392Y-33125D01*
X52400Y-33125D01*
X52400Y-32612D01*
X52362Y-32575D01*
X52400Y-32537D01*
X52400Y-32025D01*
X52392Y-32025D01*
X52392Y-31975D01*
X52400Y-31975D01*
X52400Y-31462D01*
X52312Y-31375D01*
X52180Y-31375D01*
X52051Y-31428D01*
X51974Y-31505D01*
X51899Y-31475D01*
X51800Y-31475D01*
X51450Y-31475D01*
X51358Y-31513D01*
X51288Y-31583D01*
X51250Y-31675D01*
X51250Y-31719D01*
X51235Y-31722D01*
X51137Y-31787D01*
X50658Y-32267D01*
X49778Y-32267D01*
X49728Y-32217D01*
X49636Y-32179D01*
X49537Y-32179D01*
X49054Y-32179D01*
X49052Y-32166D01*
X49052Y-32166D01*
X49026Y-32127D01*
X48987Y-32069D01*
X48784Y-31866D01*
X48687Y-31801D01*
X48572Y-31778D01*
X43160Y-31778D01*
X43045Y-31801D01*
X42948Y-31866D01*
X42331Y-32484D01*
X42266Y-32581D01*
X42243Y-32696D01*
X42243Y-34293D01*
X42266Y-34408D01*
X42331Y-34505D01*
X42666Y-34840D01*
X42650Y-34880D01*
X42649Y-35118D01*
X42741Y-35339D01*
X42901Y-35500D01*
X42741Y-35659D01*
X42650Y-35880D01*
X42649Y-36118D01*
X42666Y-36159D01*
X42512Y-36313D01*
X42447Y-36410D01*
X42424Y-36525D01*
X42424Y-37213D01*
X42447Y-37328D01*
X42512Y-37426D01*
X43020Y-37934D01*
X43020Y-37934D01*
X43117Y-37999D01*
X43232Y-38022D01*
X48750Y-38022D01*
X48750Y-38150D01*
X48815Y-38306D01*
X48934Y-38426D01*
X49090Y-38490D01*
X49259Y-38491D01*
X49415Y-38426D01*
X49476Y-38365D01*
X50031Y-38365D01*
X50031Y-38365D01*
X50146Y-38343D01*
X50146Y-38343D01*
X50243Y-38278D01*
X50686Y-37835D01*
X50686Y-37835D01*
X50725Y-37777D01*
X50751Y-37738D01*
X50751Y-37738D01*
X50774Y-37623D01*
X50774Y-37065D01*
X50751Y-36950D01*
X50751Y-36950D01*
X50725Y-36911D01*
X50686Y-36853D01*
X50471Y-36637D01*
X50422Y-36605D01*
X50459Y-36518D01*
X50459Y-36462D01*
X50459Y-36237D01*
X50459Y-36181D01*
X50425Y-36100D01*
X50459Y-36018D01*
X50459Y-35962D01*
X50459Y-35737D01*
X50459Y-35681D01*
X50405Y-35553D01*
X50307Y-35454D01*
X50178Y-35401D01*
X50039Y-35401D01*
X49778Y-35401D01*
X49691Y-35489D01*
X49691Y-35825D01*
X50371Y-35825D01*
X50459Y-35737D01*
X50459Y-35962D01*
X50371Y-35875D01*
X49691Y-35875D01*
X49691Y-35989D01*
X49691Y-36211D01*
X49691Y-36325D01*
X50371Y-36325D01*
X50459Y-36237D01*
X50459Y-36462D01*
X50371Y-36375D01*
X49691Y-36375D01*
X49691Y-36382D01*
X49641Y-36382D01*
X49641Y-36375D01*
X49641Y-36325D01*
X49641Y-36211D01*
X49641Y-35989D01*
X49641Y-35875D01*
X49641Y-35825D01*
X49641Y-35489D01*
X49553Y-35401D01*
X49292Y-35401D01*
X49153Y-35401D01*
X49024Y-35454D01*
X48926Y-35553D01*
X48873Y-35681D01*
X48873Y-35737D01*
X48960Y-35825D01*
X49641Y-35825D01*
X49641Y-35875D01*
X48960Y-35875D01*
X48873Y-35962D01*
X48873Y-36018D01*
X48906Y-36100D01*
X48873Y-36181D01*
X48873Y-36237D01*
X48960Y-36325D01*
X49641Y-36325D01*
X49641Y-36375D01*
X48960Y-36375D01*
X48904Y-36430D01*
X48696Y-36222D01*
X48640Y-36137D01*
X48542Y-36072D01*
X48500Y-36064D01*
X48528Y-35998D01*
X48528Y-35898D01*
X48528Y-35701D01*
X48489Y-35609D01*
X48419Y-35539D01*
X48327Y-35501D01*
X48228Y-35501D01*
X47541Y-35501D01*
X47541Y-35316D01*
X47519Y-35201D01*
X47519Y-35201D01*
X47493Y-35162D01*
X47454Y-35104D01*
X46537Y-34187D01*
X46439Y-34122D01*
X46422Y-34119D01*
X46386Y-34033D01*
X46316Y-33963D01*
X46224Y-33925D01*
X46125Y-33925D01*
X46055Y-33925D01*
X46052Y-33909D01*
X45987Y-33812D01*
X45987Y-33812D01*
X44974Y-32799D01*
X47581Y-32799D01*
X47581Y-32799D01*
X47648Y-32844D01*
X47648Y-32844D01*
X47663Y-32847D01*
X47663Y-32911D01*
X47663Y-33187D01*
X47674Y-33216D01*
X47663Y-33245D01*
X47663Y-33344D01*
X47663Y-33620D01*
X47701Y-33712D01*
X47771Y-33782D01*
X47863Y-33821D01*
X47962Y-33821D01*
X48474Y-33821D01*
X48566Y-33782D01*
X48626Y-33722D01*
X48626Y-33722D01*
X48689Y-33710D01*
X48689Y-33710D01*
X48787Y-33645D01*
X48825Y-33607D01*
X48825Y-33620D01*
X48863Y-33712D01*
X48933Y-33782D01*
X49025Y-33821D01*
X49124Y-33821D01*
X49636Y-33821D01*
X49682Y-33802D01*
X50491Y-34612D01*
X50491Y-34612D01*
X50589Y-34677D01*
X50704Y-34700D01*
X51250Y-34700D01*
X51250Y-34724D01*
X51288Y-34816D01*
X51358Y-34886D01*
X51450Y-34925D01*
X51549Y-34925D01*
X51899Y-34925D01*
X51974Y-34894D01*
X52051Y-34971D01*
X52180Y-35025D01*
X52312Y-35025D01*
X52400Y-34937D01*
X52400Y-39730D01*
X41542Y-39730D01*
X41762Y-39510D01*
X41899Y-39179D01*
X41900Y-38821D01*
X41763Y-38490D01*
X41510Y-38237D01*
X41179Y-38100D01*
X40821Y-38099D01*
X40490Y-38236D01*
X40269Y-38457D01*
X40269Y-31542D01*
X40489Y-31762D01*
X40820Y-31899D01*
X41178Y-31900D01*
X41509Y-31763D01*
X41762Y-31510D01*
X41899Y-31179D01*
X41900Y-30821D01*
X41763Y-30490D01*
X41542Y-30269D01*
X53457Y-30269D01*
X53237Y-30489D01*
X53100Y-30820D01*
X53099Y-31178D01*
X53236Y-31509D01*
X53489Y-31762D01*
X53820Y-31899D01*
X54178Y-31900D01*
X54509Y-31763D01*
X54730Y-31542D01*
X54730Y-38457D01*
X54730Y-38457D01*
G37*
G54D19*
X54730Y-38457D02*
X54510Y-38237D01*
X54179Y-38100D01*
X53821Y-38099D01*
X53490Y-38236D01*
X53237Y-38489D01*
X53100Y-38820D01*
X53099Y-39178D01*
X53236Y-39509D01*
X53457Y-39730D01*
X52950Y-39730D01*
X52950Y-34744D01*
X52950Y-34605D01*
X52950Y-34512D01*
X52950Y-34287D01*
X52950Y-34194D01*
X52950Y-34055D01*
X52896Y-33926D01*
X52798Y-33828D01*
X52669Y-33775D01*
X52798Y-33721D01*
X52896Y-33623D01*
X52950Y-33494D01*
X52950Y-33355D01*
X52950Y-33262D01*
X52950Y-33037D01*
X52950Y-32944D01*
X52950Y-32805D01*
X52896Y-32676D01*
X52798Y-32578D01*
X52790Y-32575D01*
X52798Y-32571D01*
X52896Y-32473D01*
X52950Y-32344D01*
X52950Y-32205D01*
X52950Y-32112D01*
X52950Y-31887D01*
X52950Y-31794D01*
X52950Y-31655D01*
X52896Y-31526D01*
X52798Y-31428D01*
X52669Y-31375D01*
X52537Y-31375D01*
X52450Y-31462D01*
X52450Y-31975D01*
X52862Y-31975D01*
X52950Y-31887D01*
X52950Y-32112D01*
X52862Y-32025D01*
X52450Y-32025D01*
X52450Y-32537D01*
X52487Y-32575D01*
X52450Y-32612D01*
X52450Y-33125D01*
X52862Y-33125D01*
X52950Y-33037D01*
X52950Y-33262D01*
X52862Y-33175D01*
X52450Y-33175D01*
X52450Y-33687D01*
X52537Y-33775D01*
X52450Y-33862D01*
X52450Y-34375D01*
X52862Y-34375D01*
X52950Y-34287D01*
X52950Y-34512D01*
X52862Y-34425D01*
X52450Y-34425D01*
X52450Y-34937D01*
X52537Y-35025D01*
X52669Y-35025D01*
X52798Y-34971D01*
X52896Y-34873D01*
X52950Y-34744D01*
X52950Y-39730D01*
X52400Y-39730D01*
X52400Y-34937D01*
X52400Y-34425D01*
X52392Y-34425D01*
X52392Y-34375D01*
X52400Y-34375D01*
X52400Y-33862D01*
X52312Y-33775D01*
X52400Y-33687D01*
X52400Y-33175D01*
X52392Y-33175D01*
X52392Y-33125D01*
X52400Y-33125D01*
X52400Y-32612D01*
X52362Y-32575D01*
X52400Y-32537D01*
X52400Y-32025D01*
X52392Y-32025D01*
X52392Y-31975D01*
X52400Y-31975D01*
X52400Y-31462D01*
X52312Y-31375D01*
X52180Y-31375D01*
X52051Y-31428D01*
X51974Y-31505D01*
X51899Y-31475D01*
X51800Y-31475D01*
X51450Y-31475D01*
X51358Y-31513D01*
X51288Y-31583D01*
X51250Y-31675D01*
X51250Y-31719D01*
X51235Y-31722D01*
X51137Y-31787D01*
X50658Y-32267D01*
X49778Y-32267D01*
X49728Y-32217D01*
X49636Y-32179D01*
X49537Y-32179D01*
X49054Y-32179D01*
X49052Y-32166D01*
X49052Y-32166D01*
X49026Y-32127D01*
X48987Y-32069D01*
X48784Y-31866D01*
X48687Y-31801D01*
X48572Y-31778D01*
X43160Y-31778D01*
X43045Y-31801D01*
X42948Y-31866D01*
X42331Y-32484D01*
X42266Y-32581D01*
X42243Y-32696D01*
X42243Y-34293D01*
X42266Y-34408D01*
X42331Y-34505D01*
X42666Y-34840D01*
X42650Y-34880D01*
X42649Y-35118D01*
X42741Y-35339D01*
X42901Y-35500D01*
X42741Y-35659D01*
X42650Y-35880D01*
X42649Y-36118D01*
X42666Y-36159D01*
X42512Y-36313D01*
X42447Y-36410D01*
X42424Y-36525D01*
X42424Y-37213D01*
X42447Y-37328D01*
X42512Y-37426D01*
X43020Y-37934D01*
X43020Y-37934D01*
X43117Y-37999D01*
X43232Y-38022D01*
X48750Y-38022D01*
X48750Y-38150D01*
X48815Y-38306D01*
X48934Y-38426D01*
X49090Y-38490D01*
X49259Y-38491D01*
X49415Y-38426D01*
X49476Y-38365D01*
X50031Y-38365D01*
X50031Y-38365D01*
X50146Y-38343D01*
X50146Y-38343D01*
X50243Y-38278D01*
X50686Y-37835D01*
X50686Y-37835D01*
X50725Y-37777D01*
X50751Y-37738D01*
X50751Y-37738D01*
X50774Y-37623D01*
X50774Y-37065D01*
X50751Y-36950D01*
X50751Y-36950D01*
X50725Y-36911D01*
X50686Y-36853D01*
X50471Y-36637D01*
X50422Y-36605D01*
X50459Y-36518D01*
X50459Y-36462D01*
X50459Y-36237D01*
X50459Y-36181D01*
X50425Y-36100D01*
X50459Y-36018D01*
X50459Y-35962D01*
X50459Y-35737D01*
X50459Y-35681D01*
X50405Y-35553D01*
X50307Y-35454D01*
X50178Y-35401D01*
X50039Y-35401D01*
X49778Y-35401D01*
X49691Y-35489D01*
X49691Y-35825D01*
X50371Y-35825D01*
X50459Y-35737D01*
X50459Y-35962D01*
X50371Y-35875D01*
X49691Y-35875D01*
X49691Y-35989D01*
X49691Y-36211D01*
X49691Y-36325D01*
X50371Y-36325D01*
X50459Y-36237D01*
X50459Y-36462D01*
X50371Y-36375D01*
X49691Y-36375D01*
X49691Y-36382D01*
X49641Y-36382D01*
X49641Y-36375D01*
X49641Y-36325D01*
X49641Y-36211D01*
X49641Y-35989D01*
X49641Y-35875D01*
X49641Y-35825D01*
X49641Y-35489D01*
X49553Y-35401D01*
X49292Y-35401D01*
X49153Y-35401D01*
X49024Y-35454D01*
X48926Y-35553D01*
X48873Y-35681D01*
X48873Y-35737D01*
X48960Y-35825D01*
X49641Y-35825D01*
X49641Y-35875D01*
X48960Y-35875D01*
X48873Y-35962D01*
X48873Y-36018D01*
X48906Y-36100D01*
X48873Y-36181D01*
X48873Y-36237D01*
X48960Y-36325D01*
X49641Y-36325D01*
X49641Y-36375D01*
X48960Y-36375D01*
X48904Y-36430D01*
X48696Y-36222D01*
X48640Y-36137D01*
X48542Y-36072D01*
X48500Y-36064D01*
X48528Y-35998D01*
X48528Y-35898D01*
X48528Y-35701D01*
X48489Y-35609D01*
X48419Y-35539D01*
X48327Y-35501D01*
X48228Y-35501D01*
X47541Y-35501D01*
X47541Y-35316D01*
X47519Y-35201D01*
X47519Y-35201D01*
X47493Y-35162D01*
X47454Y-35104D01*
X46537Y-34187D01*
X46439Y-34122D01*
X46422Y-34119D01*
X46386Y-34033D01*
X46316Y-33963D01*
X46224Y-33925D01*
X46125Y-33925D01*
X46055Y-33925D01*
X46052Y-33909D01*
X45987Y-33812D01*
X45987Y-33812D01*
X44974Y-32799D01*
X47581Y-32799D01*
X47581Y-32799D01*
X47648Y-32844D01*
X47648Y-32844D01*
X47663Y-32847D01*
X47663Y-32911D01*
X47663Y-33187D01*
X47674Y-33216D01*
X47663Y-33245D01*
X47663Y-33344D01*
X47663Y-33620D01*
X47701Y-33712D01*
X47771Y-33782D01*
X47863Y-33821D01*
X47962Y-33821D01*
X48474Y-33821D01*
X48566Y-33782D01*
X48626Y-33722D01*
X48626Y-33722D01*
X48689Y-33710D01*
X48689Y-33710D01*
X48787Y-33645D01*
X48825Y-33607D01*
X48825Y-33620D01*
X48863Y-33712D01*
X48933Y-33782D01*
X49025Y-33821D01*
X49124Y-33821D01*
X49636Y-33821D01*
X49682Y-33802D01*
X50491Y-34612D01*
X50491Y-34612D01*
X50589Y-34677D01*
X50704Y-34700D01*
X51250Y-34700D01*
X51250Y-34724D01*
X51288Y-34816D01*
X51358Y-34886D01*
X51450Y-34925D01*
X51549Y-34925D01*
X51899Y-34925D01*
X51974Y-34894D01*
X52051Y-34971D01*
X52180Y-35025D01*
X52312Y-35025D01*
X52400Y-34937D01*
X52400Y-39730D01*
X41542Y-39730D01*
X41762Y-39510D01*
X41899Y-39179D01*
X41900Y-38821D01*
X41763Y-38490D01*
X41510Y-38237D01*
X41179Y-38100D01*
X40821Y-38099D01*
X40490Y-38236D01*
X40269Y-38457D01*
X40269Y-31542D01*
X40489Y-31762D01*
X40820Y-31899D01*
X41178Y-31900D01*
X41509Y-31763D01*
X41762Y-31510D01*
X41899Y-31179D01*
X41900Y-30821D01*
X41763Y-30490D01*
X41542Y-30269D01*
X53457Y-30269D01*
X53237Y-30489D01*
X53100Y-30820D01*
X53099Y-31178D01*
X53236Y-31509D01*
X53489Y-31762D01*
X53820Y-31899D01*
X54178Y-31900D01*
X54509Y-31763D01*
X54730Y-31542D01*
X54730Y-38457D01*
M02*
